<svg width="129" height="128" viewBox="0 0 129 128" fill="none" xmlns="http://www.w3.org/2000/svg">
<ellipse cx="64.2715" cy="108" rx="47.5" ry="11" fill="#D8DDE9"/>
<path d="M30.293 25.5654V98.9674C30.293 101.242 39.2955 103.082 50.398 103.082C61.5004 103.082 70.503 101.239 70.503 98.9674V25.5654H30.293Z" fill="#FC6B4D"/>
<path d="M33.708 33.5391V91.8406C33.708 93.647 41.1814 95.1091 50.398 95.1091C59.6146 95.1091 67.088 93.6445 67.088 91.8406V33.5391H33.708Z" fill="#FBF2EB"/>
<path d="M46.6285 60.3204H45.7165V66.2724H40.7725V49.5684H46.8925C49.3085 49.5684 51.1085 50.0004 52.2925 50.8644C53.4765 51.7124 54.0685 53.0484 54.0685 54.8724C54.0685 55.9124 53.8365 56.7764 53.3725 57.4644C52.9085 58.1524 52.1565 58.8004 51.1165 59.4084L55.1965 66.2724H49.7245L46.6285 60.3204ZM45.7165 57.0084H47.0125C47.6845 57.0084 48.1885 56.8324 48.5245 56.4804C48.8605 56.1284 49.0285 55.5924 49.0285 54.8724C49.0285 53.5924 48.2765 52.9524 46.7725 52.9524H45.7165V57.0084Z" fill="#392FB4"/>
<path d="M55.3685 67.0533L60.0245 76.0533H54.6965L52.3925 70.3173L50.2325 76.0533H45.0005L49.4645 67.1973L45.3125 59.3493H50.6165L52.4405 64.1493L54.4805 59.3493H59.6885L55.3685 67.0533Z" fill="#392FB4"/>
<path d="M28.793 22.6123V36.0143C28.793 38.2886 38.5282 40.1293 50.5342 40.1293C62.5403 40.1293 72.2755 38.2854 72.2755 36.0143V22.6123H28.793Z" fill="#392FB4"/>
<path d="M50.5342 27.0347C62.5416 27.0347 72.2755 25.1924 72.2755 22.9197C72.2755 20.647 62.5416 18.8047 50.5342 18.8047C38.5269 18.8047 28.793 20.647 28.793 22.9197C28.793 25.1924 38.5269 27.0347 50.5342 27.0347Z" fill="#392FB4"/>
<path d="M69.9932 22.92C69.9932 22.9298 69.9877 23.0253 69.7726 23.2C69.5638 23.3694 69.2255 23.5552 68.7419 23.7451C67.7798 24.123 66.3581 24.4733 64.5654 24.7711C60.988 25.3654 56.027 25.7354 50.5342 25.7354C45.0414 25.7354 40.0803 25.3654 36.503 24.7711C34.7103 24.4733 33.2886 24.123 32.3265 23.7451C31.8429 23.5552 31.5045 23.3694 31.2958 23.2C31.0807 23.0253 31.0752 22.9298 31.0752 22.92C31.0752 22.9102 31.0807 22.8146 31.2958 22.64C31.5045 22.4705 31.8429 22.2847 32.3265 22.0948C33.2886 21.717 34.7103 21.3666 36.503 21.0688C40.0803 20.4746 45.0414 20.1045 50.5342 20.1045C56.027 20.1045 60.988 20.4746 64.5654 21.0688C66.3581 21.3666 67.7798 21.717 68.7419 22.0948C69.2255 22.2847 69.5638 22.4705 69.7726 22.64C69.9877 22.8146 69.9932 22.9102 69.9932 22.92Z" stroke="#C34EAB"/>
<path d="M36.8701 87.5654C38.3663 89.014 43.8725 90.0887 50.4361 90.0887C56.8923 90.0887 62.3254 89.0489 63.9255 87.6363" stroke="#E4B195" stroke-linecap="round"/>
<path d="M36.8701 82.5654C38.3663 84.014 43.8725 85.0887 50.4361 85.0887C56.8923 85.0887 62.3254 84.0489 63.9255 82.6363" stroke="#E4B195" stroke-linecap="round"/>
<ellipse cx="63.3115" cy="30.2835" rx="0.652285" ry="0.34696" fill="#392FB4"/>
<path d="M60.1118 29.6237C60.1118 29.6237 60.121 29.6237 60.1278 29.6237C60.3038 29.6285 60.4409 29.7075 60.4318 29.8012C60.3129 31.153 61.6454 32.5414 63.8258 33.3364C63.9721 33.3899 64.0087 33.4957 63.9081 33.5735C63.8075 33.6513 63.6087 33.6708 63.4624 33.6173C61.1037 32.7578 59.6638 31.2527 59.7918 29.7853C59.7987 29.6942 59.9404 29.6237 60.1118 29.6237Z" fill="#392FB4"/>
<path d="M68.6904 98.4619L70.571 103.409C71.3941 105.574 79.2192 107.215 87.0016 104.326C94.784 101.437 99.5787 95.1079 98.7568 92.9459L96.8762 87.9993L68.6904 98.4619Z" fill="#E4B195"/>
<path d="M96.8772 87.9985C97.9647 90.8592 92.9608 96.6362 85.1772 99.5255C77.3936 102.415 69.7779 101.322 68.6903 98.4615C67.6027 95.6009 72.6067 89.8238 80.3903 86.9345C88.1739 84.0452 95.7896 85.1379 96.8772 87.9985Z" fill="#FDC5A6"/>
<path d="M78.993 98.121L86.5751 88.3395" stroke="#E4B195" stroke-linecap="round"/>
<path d="M83.3965 77.9053L78.7539 80.5278C76.722 81.6756 69.6373 78.0049 65.5114 70.8734C61.3855 63.7418 61.7819 55.8453 63.8109 54.6991L68.4535 52.0766L83.3965 77.9053Z" fill="#E4B195"/>
<path d="M68.4535 52.0753C65.7687 53.5919 65.8901 61.1951 70.0167 68.3278C74.1433 75.4605 80.7122 79.4216 83.3971 77.905C86.0819 76.3884 85.9604 68.7852 81.8339 61.6525C77.7073 54.5199 71.1383 50.5587 68.4535 52.0753Z" fill="#FDC5A6"/>
<path d="M75.6849 71.146L76.1647 58.8341" stroke="#E4B195" stroke-linecap="round"/>
</svg>
