<svg width="129" height="132" viewBox="0 0 129 132" fill="none" xmlns="http://www.w3.org/2000/svg">
<circle cx="48.1797" cy="57.8574" r="31.5" fill="#C34EAB"></circle>
<path d="M74.7359 35.351C68.4939 28.0735 59.2987 23.4118 49.0284 23.2114C48.4762 23.2007 48.0322 23.6538 48.037 24.206L48.3227 56.9397C48.3264 57.358 48.8054 57.5921 49.1308 57.3292L74.601 36.7465C75.0307 36.3992 75.0956 35.7704 74.7359 35.351Z" fill="#392FB4"></path>
<path d="M61.1217 29.6572L62.8973 30.7557L55.9154 41.2435L54.1549 40.1451L61.1217 29.6572ZM54.9976 30.0936C55.5192 30.0936 55.9907 30.209 56.412 30.4397C56.8433 30.6704 57.1844 30.9964 57.4352 31.4178C57.686 31.8391 57.8114 32.3306 57.8114 32.8924C57.8114 33.4541 57.686 33.9457 57.4352 34.367C57.1844 34.7883 56.8433 35.1143 56.412 35.3451C55.9907 35.5758 55.5192 35.6911 54.9976 35.6911C54.4759 35.6911 53.9994 35.5758 53.5681 35.3451C53.1468 35.1143 52.8107 34.7883 52.5599 34.367C52.3091 33.9457 52.1838 33.4541 52.1838 32.8924C52.1838 32.3306 52.3091 31.8391 52.5599 31.4178C52.8107 30.9964 53.1468 30.6704 53.5681 30.4397C53.9994 30.209 54.4759 30.0936 54.9976 30.0936ZM54.9976 31.809C54.4458 31.809 54.17 32.1701 54.17 32.8924C54.17 33.6146 54.4458 33.9758 54.9976 33.9758C55.5393 33.9758 55.8101 33.6146 55.8101 32.8924C55.8101 32.1701 55.5393 31.809 54.9976 31.809ZM61.9945 35.2698C62.5161 35.2698 62.9876 35.3852 63.4089 35.6159C63.8403 35.8466 64.1813 36.1726 64.4321 36.594C64.6829 37.0153 64.8083 37.5068 64.8083 38.0686C64.8083 38.6303 64.6829 39.1219 64.4321 39.5432C64.1813 39.9645 63.8403 40.2905 63.4089 40.5213C62.9876 40.752 62.5161 40.8673 61.9945 40.8673C61.4728 40.8673 60.9963 40.752 60.565 40.5213C60.1336 40.2905 59.7926 39.9645 59.5418 39.5432C59.291 39.1119 59.1656 38.6203 59.1656 38.0686C59.1656 37.5169 59.291 37.0303 59.5418 36.609C59.7926 36.1777 60.1336 35.8466 60.565 35.6159C60.9963 35.3852 61.4728 35.2698 61.9945 35.2698ZM61.9945 36.9852C61.4427 36.9852 61.1669 37.3463 61.1669 38.0686C61.1669 38.7908 61.4427 39.152 61.9945 39.152C62.5362 39.152 62.807 38.7908 62.807 38.0686C62.807 37.3463 62.5362 36.9852 61.9945 36.9852Z" fill="#FBF2EB"></path>
<path d="M102.415 53.3632L45.1738 69.9504C43.3537 70.4778 42.3057 72.381 42.8331 74.2011L47.465 101.693C47.9924 103.513 49.8955 104.561 51.7157 104.034L108.957 87.4466C110.777 86.9192 111.825 85.0161 111.298 83.1959L106.666 55.7039C106.139 53.8838 104.235 52.8358 102.415 53.3632Z" fill="#FC6B4D"></path>
<path d="M43.9719 80.9344L43.6816 79.2361C48.1871 77.9305 50.5839 73.2638 49.2784 68.7583L50.9227 68.2818C52.491 73.694 49.3841 79.3661 43.9719 80.9344Z" fill="#392FB4"></path>
<path d="M59.0031 101.922L57.3588 102.398C56.0532 97.8928 51.1226 95.3493 46.6172 96.6549L46.3324 94.9584C51.7446 93.3901 57.4348 96.5096 59.0031 101.922Z" fill="#392FB4"></path>
<path d="M104.64 88.6981L102.995 89.1746C101.427 83.7624 104.753 78.0269 110.165 76.4586L110.442 78.1607C105.939 79.4656 103.334 84.1927 104.64 88.6981Z" fill="#392FB4"></path>
<path d="M107.784 62.443C102.372 64.0113 96.6943 60.8848 95.126 55.4727L96.7703 54.9962C98.0759 59.5016 103.011 62.0702 107.517 60.7646L107.784 62.443Z" fill="#392FB4"></path>
<path d="M77.7269 92.4865C83.6376 90.7738 88.2942 83.1657 86.2303 76.0433C84.1664 68.921 79.24 64.0899 73.3293 65.8026C67.4186 67.5154 62.762 75.1234 64.8259 82.2458C66.8898 89.3682 71.8163 94.1993 77.7269 92.4865Z" fill="#392FB4"></path>
<path d="M80.5339 82.7477C80.0079 83.5548 79.1562 84.1858 77.9813 84.6405L78.3325 86.4508L76.0324 86.8969L75.6971 85.1683C74.8724 85.2834 74.0679 85.3099 73.2835 85.2478C72.4992 85.1857 71.8299 85.049 71.2838 84.841L71.9807 81.7936C72.5867 82.0024 73.2435 82.139 73.9549 82.1978C74.6664 82.2566 75.3333 82.2269 75.9527 82.1067C76.4857 82.0033 76.8577 81.8789 77.0653 81.729C77.2733 81.5815 77.3583 81.4031 77.3183 81.1966C77.2717 80.9565 77.0884 80.8077 76.765 80.7459C76.4416 80.6841 75.9242 80.6499 75.2125 80.641C74.2955 80.627 73.5221 80.5703 72.8929 80.4731C72.2637 80.3759 71.6848 80.127 71.1562 79.7263C70.6275 79.3256 70.2819 78.7126 70.1216 77.8866C69.9358 76.9287 70.1223 76.0405 70.681 75.2221C71.2397 74.4037 72.1465 73.7744 73.4048 73.3385L73.0597 71.5594L75.3597 71.1132L75.6983 72.8587C77.0277 72.7254 78.1932 72.8256 79.1951 73.1619L78.5766 76.1767C77.3455 75.8276 76.2298 75.7526 75.231 75.9463C74.2322 76.1401 73.7914 76.4747 73.8841 76.9525C73.9284 77.1806 74.1083 77.325 74.4255 77.3806C74.7408 77.439 75.2496 77.4674 75.9494 77.4662C76.8502 77.4608 77.6212 77.5056 78.2624 77.6004C78.9012 77.6957 79.4893 77.9404 80.0218 78.3353C80.5563 78.7274 80.9014 79.3381 81.0621 80.1664C81.2396 81.0812 81.0652 81.9421 80.5392 82.7492L80.5339 82.7477Z" fill="#FDC5A6"></path>
</svg>