<svg width="256" height="256" viewBox="0 0 256 256" fill="none" xmlns="http://www.w3.org/2000/svg">
<ellipse cx="128" cy="216" rx="95.3352" ry="22" fill="#090084"></ellipse>
<path d="M21.8873 113.274L35.0096 161.473C37.2365 169.652 57.8255 171.157 80.9942 164.849C104.163 158.541 121.144 146.795 118.92 138.628L105.798 90.4292L21.8873 113.274Z" fill="#6256EA"></path>
<path d="M68.1729 117.757C91.3442 111.449 108.324 99.7088 106.099 91.5355C103.874 83.3621 83.2859 81.8504 60.1146 88.1589C36.9433 94.4675 19.9631 106.207 22.1883 114.381C24.4136 122.554 45.0016 124.066 68.1729 117.757Z" fill="#6256EA"></path>
<path d="M61.1611 92.0034C71.7276 89.1266 81.617 87.8593 89.0488 88.1151C92.771 88.2433 95.8178 88.7518 98.0103 89.5922C100.227 90.4418 101.367 91.5451 101.691 92.7357C102.015 93.9264 101.592 95.4559 100.112 97.3121C98.6482 99.148 96.2797 101.131 93.1362 103.128C86.8598 107.116 77.6929 111.037 67.1263 113.914C56.5598 116.791 46.6704 118.058 39.2386 117.802C35.5165 117.674 32.4697 117.166 30.2771 116.325C28.0602 115.475 26.9204 114.371 26.5962 113.181C26.2722 111.99 26.6953 110.461 28.1753 108.605C29.6392 106.769 32.0077 104.786 35.1512 102.789C41.4276 98.8011 50.5946 94.8802 61.1611 92.0034Z" stroke="#DB66C3" stroke-width="2.00706"></path>
<path d="M64.6302 104.749C67.1119 104.073 69.4142 103.828 71.1135 103.952C71.9679 104.015 72.6135 104.167 73.0409 104.363C73.4749 104.561 73.5518 104.737 73.5655 104.788C73.5793 104.838 73.602 105.029 73.3288 105.42C73.0594 105.805 72.58 106.263 71.8751 106.75C70.4733 107.718 68.3649 108.675 65.8831 109.351C63.4012 110.026 61.0988 110.271 59.3995 110.146C58.5454 110.084 57.9006 109.932 57.4733 109.737C57.0396 109.538 56.9626 109.362 56.9487 109.312C56.9349 109.261 56.9118 109.071 57.1854 108.679C57.4548 108.294 57.9331 107.836 58.6379 107.349C60.0396 106.38 62.1483 105.424 64.6302 104.749Z" stroke="#DB66C3" stroke-width="2.00706"></path>
<path d="M50.9514 138.89C49.4046 139.142 50.7141 142.246 52.1152 142.851C75.5009 152.949 95.1867 140.583 100.161 135.223C104.634 130.408 106.93 122.325 102.429 117.802C96.3196 111.665 72.7669 135.303 50.9502 138.885L50.9514 138.89Z" fill="#FF8268"></path>
<ellipse cx="96.0111" cy="122.729" rx="1.30457" ry="1.29321" transform="rotate(-15.23 96.0111 122.729)" fill="#6256EA"></ellipse>
<path d="M52.1842 142.809C46.7084 146.953 44.2571 146.667 40.1434 145.322C39.5714 145.135 39.4038 144.415 39.8256 143.98C42.6284 141.085 45.6333 140.69 50.6291 141.204C44.2663 139.897 42.6068 135.977 42.5439 129.499C42.5416 129.317 42.7163 129.175 42.8933 129.216C50.4859 131.038 55.0471 140.639 52.1874 142.803L52.1842 142.809Z" fill="#FF8268"></path>
<path d="M89.19 122.036C89.19 122.036 89.2077 122.031 89.2209 122.027C89.5653 121.952 89.9073 122.164 89.9813 122.506C91.0756 127.43 95.0064 131.723 99.9925 133.437C100.327 133.552 100.501 133.914 100.383 134.246C100.266 134.579 99.9009 134.753 99.5662 134.638C94.173 132.786 89.9206 128.13 88.7309 122.785C88.6548 122.454 88.8593 122.126 89.19 122.036Z" fill="#6256EA"></path>
<rect x="142.258" y="29.502" width="99.3154" height="17.3802" rx="2.00706" transform="rotate(14.45 142.258 29.502)" fill="#6256EA"></rect>
<path d="M124.518 69.8051L140.49 46.9939L231.705 70.4987L234.496 98.1657C234.591 99.1073 234.519 100.058 234.283 100.975L206.249 209.764C204.749 213.615 205.385 215.585 188.544 212.347C176.851 210.098 152.261 203.99 136.803 200.007C102.364 191.132 94.3016 185.018 95.2928 181.172L123.32 72.4065C123.56 71.4746 123.966 70.5934 124.518 69.8051Z" fill="#FF8268"></path>
<path d="M227.795 75.713L219.2 96.3259C218.754 97.3963 218.761 98.655 219.611 99.4437C222.077 101.732 227.309 103.162 231.484 99.5887" stroke="#6256EA" stroke-width="2.00706" stroke-linecap="round"></path>
<path d="M215.65 111.409L192.033 201.531" stroke="#6256EA" stroke-width="2.00706" stroke-linecap="round" stroke-dasharray="54.19 4.01"></path>
<path d="M160.797 165.015C165.31 166.288 170.063 163.439 171.413 158.653C172.453 154.966 171.384 150.451 168.777 147.988C167.905 147.103 166.022 143.987 165.46 138.604C165.279 134.043 162.387 129.987 157.986 128.746C153.586 127.505 149 129.45 146.463 133.244C143.17 137.541 139.936 139.213 138.73 139.512C135.22 140.248 131.949 143.539 130.909 147.226C129.559 152.012 132.122 156.925 136.635 158.198C138.441 158.866 143.005 159.806 146.81 158.218C147.332 158 147.822 157.858 148.28 157.778C149.288 157.602 150.321 157.893 151.088 158.57C151.437 158.877 151.78 159.255 152.112 159.714C154.526 163.057 158.908 164.64 160.797 165.015Z" fill="#FBF2EB"></path>
<path d="M143.093 125.74C142.95 130.742 140.077 134.8 136.674 134.803C133.272 134.807 130.629 130.754 130.772 125.751C130.914 120.748 133.788 116.69 137.19 116.687C140.593 116.684 143.235 120.737 143.093 125.74Z" fill="#FBF2EB"></path>
<path d="M172.253 133.966C169.76 138.306 170.089 143.267 172.988 145.048C175.887 146.829 180.258 144.755 182.751 140.415C185.245 136.076 184.915 131.114 182.016 129.333C179.117 127.552 174.746 129.627 172.253 133.966Z" fill="#FBF2EB"></path>
<path d="M164.665 115.702C161.804 120.683 162.116 126.337 165.362 128.332C168.608 130.326 173.56 127.904 176.421 122.924C179.283 117.943 178.971 112.288 175.724 110.294C172.478 108.3 167.527 110.721 164.665 115.702Z" fill="#FBF2EB"></path>
<path d="M159.102 114.133C158.939 119.875 155.718 124.533 151.908 124.536C148.098 124.539 145.142 119.887 145.306 114.145C145.469 108.403 148.69 103.746 152.5 103.742C156.31 103.739 159.266 108.391 159.102 114.133Z" fill="#FBF2EB"></path>
</svg>