<svg width="129" height="128" viewBox="0 0 129 128" fill="none" xmlns="http://www.w3.org/2000/svg">
<ellipse cx="64.5693" cy="108.367" rx="47.5" ry="11" fill="#D8DDE9"></ellipse>
<path fill-rule="evenodd" clip-rule="evenodd" d="M33.5015 95.2673C32.8152 95.2052 32.135 95.118 31.4638 95.0065C30.4549 94.839 29.6192 94.1844 29.2722 93.2898C28.9251 92.3952 29.1196 91.3968 29.7822 90.6714C31.3233 88.9842 32.4149 86.9402 32.8951 84.6945C32.9824 84.2861 32.8091 83.572 31.9226 82.7716C25.6211 77.082 21.7061 69.3603 21.7061 60.8233C21.7061 42.9926 38.6259 28.9236 58.9619 28.9236C79.2979 28.9236 96.2177 42.9926 96.2177 60.8233C96.2177 78.6541 79.2979 92.7231 58.9619 92.7231C55.7781 92.7231 52.6834 92.3808 49.7269 91.7353C45.7579 94.0453 41.0611 95.3814 36.0352 95.3814C35.1811 95.3814 34.3354 95.3428 33.5015 95.2673Z" fill="#392FB4"></path>
<path fill-rule="evenodd" clip-rule="evenodd" d="M97.9351 100.412C98.4913 100.362 99.0426 100.291 99.5866 100.201C100.404 100.065 101.082 99.5344 101.363 98.8093C101.644 98.0842 101.487 97.275 100.949 96.6871C99.7005 95.3197 98.8158 93.663 98.4266 91.8429C98.3558 91.5119 98.4963 90.9332 99.2148 90.2844C104.322 85.6731 107.495 79.4147 107.495 72.4957C107.495 58.0441 93.7818 46.6414 77.2998 46.6414C60.8177 46.6414 47.1045 58.0441 47.1045 72.4957C47.1045 86.9472 60.8177 98.35 77.2998 98.35C79.8802 98.35 82.3884 98.0725 84.7846 97.5494C88.0014 99.4216 91.8081 100.504 95.8815 100.504C96.5738 100.504 97.2592 100.473 97.9351 100.412Z" fill="#FDC5A6"></path>
<path d="M73.8759 85.3279L63.4688 76.1731C59.772 72.925 58.8478 67.3129 61.7342 63.3215C62.5027 62.2532 63.4863 61.3575 64.6217 60.6921C65.7572 60.0268 67.0193 59.6064 68.3269 59.4582C69.6346 59.31 70.9588 59.4371 72.2144 59.8314C73.4699 60.2257 74.629 60.8785 75.6171 61.7477L77.3718 63.288L78.8317 62.0223C82.5485 58.7943 88.2075 58.6269 91.7971 62.0223C92.7517 62.928 93.5063 64.0234 94.0124 65.2381C94.5185 66.4528 94.765 67.7599 94.736 69.0755C94.707 70.3911 94.4031 71.686 93.844 72.8772C93.2848 74.0684 92.4826 75.1295 91.489 75.9922L80.7738 85.348C79.8193 86.1861 78.5914 86.6466 77.3211 86.6429C76.0508 86.6392 74.8256 86.1715 73.8759 85.3279Z" fill="#FC6B4D"></path>
</svg>