<svg width="129" height="128" viewBox="0 0 129 128" fill="none" xmlns="http://www.w3.org/2000/svg">
<rect x="8.56641" y="57.2939" width="75" height="48" rx="4" transform="rotate(-13 8.56641 57.2939)" fill="#392FB4"></rect>
<path d="M32.5511 58.9409L29.7393 46.7612L57.5088 40.3501L60.3207 52.5298" stroke="#392FB4" stroke-width="5" stroke-linecap="round" stroke-linejoin="round"></path>
<path d="M21.1211 53.8823L22.4708 59.7285" stroke="#392FB4" stroke-width="5" stroke-linecap="round" stroke-linejoin="round"></path>
<path d="M69.8398 42.6348L71.1896 48.481" stroke="#392FB4" stroke-width="5" stroke-linecap="round" stroke-linejoin="round"></path>
<rect x="68.3809" y="28.354" width="49.737" height="68.2965" rx="5" transform="rotate(16 68.3809 28.354)" fill="#FDC5A6" stroke="#FDC5A6" stroke-width="6"></rect>
<path d="M73.3916 88.8804L90.9233 93.9075" stroke="#392FB4" stroke-width="5" stroke-linecap="round" stroke-linejoin="round"></path>
<path d="M63.6719 86.0874L64.4179 86.3013" stroke="#392FB4" stroke-width="5" stroke-linecap="round" stroke-linejoin="round"></path>
<path d="M75.8301 80.3765L93.3618 85.4036" stroke="#392FB4" stroke-width="5" stroke-linecap="round" stroke-linejoin="round"></path>
<path d="M66.2959 77.6367L67.0419 77.8506" stroke="#392FB4" stroke-width="5" stroke-linecap="round" stroke-linejoin="round"></path>
<path d="M88.166 71.4379C90.0855 72.0104 92.1057 70.9184 92.6782 68.9988C93.1191 67.5204 92.6629 65.6799 91.5529 64.6504C91.1819 64.2812 90.3798 62.9965 90.139 60.8111C90.0604 58.9634 88.8286 57.2857 86.9569 56.7275C85.0852 56.1693 83.1357 56.8982 82.0579 58.401C80.6593 60.0975 79.2845 60.7329 78.7719 60.8386C77.2794 61.0919 75.8895 62.3818 75.4485 63.8603C74.8761 65.7798 75.9681 67.8 77.8876 68.3725C78.656 68.6659 80.5972 69.1042 82.2148 68.5101C82.4369 68.4286 82.6453 68.3771 82.8401 68.3507C83.2687 68.2924 83.7079 68.4234 84.0345 68.7069C84.183 68.8357 84.3291 68.9929 84.4703 69.1828C85.4982 70.5659 87.3624 71.2625 88.166 71.4379Z" fill="#FC6B4D"></path>
<path d="M80.622 55.3217C80.5632 57.344 79.3426 58.9494 77.8956 58.9073C76.4487 58.8653 75.3233 57.1918 75.382 55.1695C75.4407 53.1472 76.6614 51.5419 78.1083 51.5839C79.5553 51.6259 80.6807 53.2994 80.622 55.3217Z" fill="#FC6B4D"></path>
<path d="M93.0259 59.0211C91.9673 60.7452 92.1092 62.7569 93.3428 63.5143C94.5765 64.2718 96.4347 63.4881 97.4933 61.764C98.5519 60.0399 98.41 58.0282 97.1764 57.2707C95.9427 56.5133 94.0845 57.297 93.0259 59.0211Z" fill="#FC6B4D"></path>
<path d="M89.7924 51.5348C88.5773 53.5137 88.7121 55.8055 90.0935 56.6537C91.4748 57.5018 93.5796 56.5851 94.7946 54.6062C96.0097 52.6272 95.8749 50.3354 94.4935 49.4873C93.1122 48.6392 91.0074 49.5559 89.7924 51.5348Z" fill="#FC6B4D"></path>
<path d="M87.4261 50.8291C87.3587 53.1503 85.9905 54.9938 84.3703 54.9468C82.7501 54.8997 81.4913 52.9799 81.5587 50.6587C81.6261 48.3375 82.9942 46.4939 84.6145 46.541C86.2347 46.588 87.4935 48.5079 87.4261 50.8291Z" fill="#FC6B4D"></path>
<path d="M101.704 28.3562L88.5398 24.5815C86.6857 24.0498 84.7517 25.1219 84.22 26.976L83.8968 28.1032C83.8095 28.4077 83.4919 28.5838 83.1874 28.4965C80.1425 27.6234 76.9664 29.3839 76.0933 32.4288L75.3822 34.9088C75.3189 35.1295 75.4465 35.3598 75.6672 35.4231L106.436 44.246C106.527 44.272 106.622 44.2195 106.648 44.1286L107.521 41.0836C108.342 38.2209 106.687 35.2348 103.824 34.414C103.71 34.3811 103.643 34.2617 103.676 34.1472L104.098 32.676C104.63 30.8219 103.558 28.8878 101.704 28.3562Z" fill="#392FB4" stroke="#392FB4" stroke-width="6" stroke-linecap="round" stroke-linejoin="round"></path>
</svg>