<svg width="512" height="512" viewBox="0 0 512 512" fill="none" xmlns="http://www.w3.org/2000/svg">
<path d="M386.97 162.785C384.21 166.335 380.08 168.195 375.9 168.195C372.9 168.195 369.88 167.235 367.32 165.255C361.22 160.515 360.11 151.715 364.85 145.605C366.7 143.225 366.46 140.065 365.93 137.835C364.72 132.725 360.94 127.865 356.52 125.755C348.96 122.135 339.9 122.835 332.12 124.765C327.5 125.905 323.33 127.475 320.21 128.825C314.38 131.345 308.69 134.385 302.66 137.595C298.45 139.835 294.18 142.115 289.75 144.265H289.74C284.9 146.625 279.9 148.825 274.61 150.645C251.78 158.525 229.15 156.035 214.08 143.995C196.17 129.695 190.18 102.075 199.84 78.335C206.82 61.175 221.03 45.945 242.07 33.065C248.67 29.035 257.29 31.105 261.32 37.705C265.36 44.295 263.28 52.915 256.69 56.955C247.48 62.585 240.11 68.575 234.64 74.865C230.69 79.395 227.73 84.075 225.77 88.885C221.36 99.705 222.76 112.065 228.81 119.395C229.63 120.405 230.55 121.315 231.55 122.115C240.42 129.205 254.9 127.825 265.48 124.175C273.51 121.405 281.27 117.265 289.49 112.885C295.75 109.545 302.22 106.105 309.09 103.135C331.43 93.465 352.01 92.555 368.61 100.495C380.62 106.245 390.03 118.075 393.18 131.395C395.91 142.955 393.71 154.105 386.97 162.785Z" fill="#E36045"/>
<path d="M255.999 491.825C191.569 491.825 130.989 467.535 85.4192 423.415C39.8092 379.265 14.6992 320.555 14.6992 258.105C14.6992 195.655 37.6992 142.165 79.4592 98.775C86.0992 91.875 86.3292 80.745 79.9892 73.425C79.2792 72.605 78.5892 71.815 77.9292 71.065C72.2792 64.605 68.8692 60.705 68.8692 56.295C68.8692 45.075 87.4992 36.355 125.819 29.635C160.629 23.525 206.859 20.165 255.999 20.165C305.139 20.165 351.369 23.525 386.179 29.635C424.499 36.355 443.129 45.075 443.129 56.295C443.129 60.745 439.709 64.405 434.049 70.475C433.409 71.165 432.739 71.885 432.039 72.635C425.239 79.975 425.329 91.325 432.239 98.485C474.199 141.925 497.299 198.615 497.299 258.115C497.299 320.565 472.179 379.275 426.579 423.425C381.009 467.535 320.429 491.835 255.999 491.835V491.825ZM255.999 28.165C207.309 28.165 161.569 31.485 127.199 37.515C87.3892 44.495 76.8692 52.855 76.8692 56.295C76.8992 57.725 80.8092 62.195 83.9492 65.795C84.6192 66.555 85.3092 67.355 86.0292 68.185C95.2092 78.775 94.8592 94.305 85.2192 104.325C44.8992 146.215 22.6892 200.835 22.6892 258.115C22.6892 318.385 46.9392 375.045 90.9792 417.675C135.049 460.335 193.649 483.835 255.999 483.835C318.349 483.835 376.949 460.335 421.019 417.675C465.059 375.045 489.309 318.385 489.309 258.115C489.309 197.845 466.999 145.975 426.489 104.045C416.629 93.845 416.489 77.665 426.169 67.205C426.879 66.445 427.559 65.715 428.209 65.015C431.289 61.725 435.109 57.625 435.139 56.305C435.139 52.865 424.619 44.515 384.809 37.525C350.439 31.495 304.699 28.175 256.009 28.175L255.999 28.165Z" fill="#392FB4"/>
<path d="M477.239 254.235C477.239 374.635 377.919 472.235 255.409 472.235C211.749 472.235 170.999 459.375 136.639 437.375C109.629 420.095 86.559 397.165 69.129 370.395C48.899 339.365 36.2489 303.175 33.7989 264.665C33.0589 261.365 48.459 286.795 75.439 302.535C92.479 312.475 112.049 317.695 131.719 319.185C154.909 320.945 209.249 297.025 211.489 282.805C259.449 269.645 236.559 216.445 288.869 157.395C351.119 87.125 429.809 116.165 455.339 159.655C455.339 159.685 455.349 159.705 455.369 159.725C469.379 188.325 477.239 220.375 477.239 254.235Z" fill="#FC6B4D"/>
<path d="M38.9698 293.655C27.9098 265.865 19.0498 205.465 83.3198 119.035C103.4 92.025 131.35 90.465 146.13 102.695C159.08 113.405 163.08 126.355 126.64 171.735C105.44 198.145 88.5698 209.875 94.1898 231.475C75.2898 243.055 50.0498 267.155 38.9698 293.665V293.655Z" fill="#E36045"/>
<path d="M201.96 274.652C203.59 277.062 206.85 277.692 209.08 276.022C217.33 269.812 234.51 253.842 235.06 233.532C235.56 214.812 241.9 207.502 243.44 199.802C244.13 196.332 240.96 193.142 237.48 193.822C233.46 194.602 227.55 195.362 219.34 196.952C178.76 204.812 176.98 227.992 173.14 234.532C172.2 236.132 170.7 228.252 171.78 229.862L201.95 274.652H201.96Z" fill="#FC6B4D"/>
<path d="M201.429 268.982C202.389 270.632 204.529 270.912 206.089 269.592C211.879 264.692 226.809 252.862 227.199 237.992C227.549 224.722 231.319 218.612 232.719 212.992C233.359 210.462 231.409 208.332 229.059 209.002C226.349 209.772 222.409 210.832 216.859 212.202C195.699 217.432 189.019 228.902 186.209 240.792C185.889 242.152 182.989 237.262 183.629 238.352L201.419 268.972L201.429 268.982Z" fill="#FDC5A6"/>
<path d="M59.2969 234.704C56.4129 235.095 53.6991 236.664 52.6927 234.056C45.6184 215.807 50.3296 189.035 61.309 171.946C71.251 156.472 78.4408 151.102 83.1763 144.833C85.3131 142.007 89.8031 142.26 91.6159 145.31C93.7035 148.835 93.2478 152.729 98.0266 164.511C111.828 198.544 109.489 208.503 107.153 215.71C106.584 217.476 97.5676 224.199 95.6439 224.453L59.2954 234.694L59.2969 234.704Z" fill="#FC6B4D"/>
<path d="M62.9707 233.703C61.227 234.273 59.6051 235.705 58.9486 233.863C54.3477 220.931 56.7609 200.49 63.1429 186.675C68.9242 174.155 73.2016 169.453 75.9657 164.316C77.2096 162.001 79.9437 161.754 81.0949 163.854C82.4276 166.28 82.2112 169.227 85.3091 177.564C94.2551 201.627 92.9986 209.275 91.7031 214.886C91.3874 216.26 86.0272 222.149 84.8614 222.53L62.9623 233.714L62.9707 233.703Z" fill="#FDC5A6"/>
<path d="M232.874 299.566C225.014 309.15 220.101 308.661 220.101 308.661C220.101 308.661 189.383 379.435 110.284 360.715C47.9931 345.435 35.5806 297.415 34.0936 280.195C33.7721 276.455 33.8425 274.225 33.8425 274.225C33.8425 274.225 35.3187 271.287 34.093 269.007C37.6594 248.257 36.3975 252.119 38.1425 249.825C38.3133 249.605 38.4841 249.315 38.6549 248.965C43.0755 239.615 49.0333 231.255 56.1867 224.095C58.0454 222.215 60.0045 220.415 62.034 218.715C73.0654 209.435 86.2871 202.725 100.624 199.205C106.039 197.885 111.625 197.015 117.292 196.645C126.917 196.005 136.833 196.785 146.769 199.135C185.942 208.405 214.013 239.505 220.091 275.635C221.016 281.065 225.765 282.923 225.644 288.513C228.841 294.342 236.429 293.73 234.67 296.41L232.874 299.566Z" fill="#E36045"/>
<path d="M233.731 281.587C228.735 292.15 221.725 294.693 221.725 294.693C221.725 294.693 200.529 359.898 124.769 352.686C65.0344 346.511 49.5346 302.006 45.9021 286.285C45.1202 282.867 44.8893 280.81 44.8893 280.81C43.1578 268.444 43.6985 265.662 44.1516 264.205C47.022 255.004 53.3319 239.177 59.0187 231.652C60.4885 229.673 62.0724 227.765 63.7334 225.931C72.7309 215.95 84.1015 208.071 96.937 202.997C101.776 201.083 106.843 199.579 112.047 198.506C120.886 196.685 130.178 196.142 139.692 197.045C177.211 200.615 207.308 225.766 217.687 258.362C219.255 263.262 220.361 268.322 220.992 273.506C221.68 279.17 236.363 277.324 233.742 281.595L233.731 281.587Z" fill="#E36045"/>
<path fill-rule="evenodd" clip-rule="evenodd" d="M218.942 308.325C218.942 308.325 226.702 306.695 233.522 296.405L233.532 296.415C234.276 295.294 232.124 294.347 229.426 293.16C227.984 292.526 226.386 291.823 224.991 290.988C227.345 289.02 230.28 285.768 232.731 280.587L232.742 280.595C233.287 279.445 231.159 278.835 228.491 278.07C225.639 277.253 222.171 276.259 220.691 274.24C220.513 272.765 220.296 271.296 220.042 269.835C213.912 234.315 185.912 203.685 146.912 194.485C137.022 192.155 127.152 191.365 117.572 191.975C111.932 192.335 106.372 193.165 100.992 194.455C86.722 197.875 73.582 204.435 62.632 213.535C60.612 215.205 58.662 216.965 56.822 218.815C49.722 225.835 40.7419 241.425 36.3619 250.605C35.6699 252.059 34.6902 254.882 34.692 268.035C34.692 268.035 34.632 270.215 34.952 273.895C36.462 290.825 46.232 339.515 108.252 354.675C187.002 373.255 218.942 308.325 218.942 308.325Z" fill="#FC6B4D"/>
<path d="M91.5245 276.922C91.8135 275.696 91.0848 274.475 89.8969 274.195C88.7089 273.915 87.5116 274.682 87.2226 275.907C86.9335 277.133 87.6622 278.353 88.8502 278.634C90.0381 278.914 91.2354 278.147 91.5245 276.922Z" fill="#392FB4"/>
<path d="M103.649 273.811C103.939 272.586 103.21 271.365 102.022 271.085C100.834 270.805 99.6366 271.571 99.3476 272.797C99.0585 274.022 99.7872 275.243 100.975 275.523C102.163 275.803 103.36 275.037 103.649 273.811Z" fill="#392FB4"/>
<path d="M99.7277 284.097C100.017 282.871 99.2881 281.65 98.1001 281.37C96.9122 281.09 95.7147 281.856 95.4257 283.082C95.1367 284.308 95.8655 285.528 97.0534 285.809C98.2414 286.089 99.4387 285.322 99.7277 284.097Z" fill="#392FB4"/>
<path d="M160.581 293.215C160.87 291.989 160.142 290.769 158.954 290.488C157.766 290.208 156.568 290.975 156.279 292.2C155.99 293.426 156.719 294.647 157.907 294.927C159.095 295.207 160.292 294.44 160.581 293.215Z" fill="#392FB4"/>
<path d="M151.128 285.02C151.417 283.794 150.688 282.574 149.5 282.294C148.312 282.013 147.115 282.78 146.826 284.005C146.537 285.231 147.266 286.452 148.454 286.732C149.642 287.012 150.839 286.246 151.128 285.02Z" fill="#392FB4"/>
<path d="M150.036 295.964C150.325 294.739 149.597 293.518 148.409 293.238C147.221 292.958 146.023 293.724 145.734 294.95C145.445 296.175 146.174 297.396 147.362 297.676C148.55 297.956 149.747 297.19 150.036 295.964Z" fill="#392FB4"/>
<path d="M91.3492 251.355C91.3492 251.355 103.729 266.045 91.2392 263.705C89.8192 263.445 88.4892 263.035 87.2692 262.505C75.8192 257.785 71.4492 243.715 71.4492 243.715C71.4492 243.715 82.5392 231.465 96.9392 234.395C99.5392 234.915 101.889 236.075 103.929 237.595C111.749 243.335 91.3592 251.355 91.3592 251.355H91.3492Z" fill="white"/>
<path d="M115.529 254.125C115.529 254.125 103.729 266.045 91.2288 263.705C89.8088 263.445 88.4788 263.035 87.2588 262.505C84.0188 258.825 82.5388 253.875 83.6988 248.985C85.6888 240.535 94.7388 235.435 103.919 237.595C111.739 243.335 115.539 254.125 115.539 254.125H115.529Z" fill="#392FB4"/>
<path d="M163.039 268.265C163.039 268.265 175.419 282.955 162.929 280.615C161.509 280.355 160.179 279.945 158.959 279.415C147.509 274.695 143.139 260.625 143.139 260.625C143.139 260.625 154.229 248.375 168.629 251.305C171.229 251.825 173.579 252.985 175.619 254.505C183.439 260.245 163.049 268.265 163.049 268.265H163.039Z" fill="white"/>
<path d="M187.23 271.035C187.23 271.035 175.43 282.955 162.93 280.615C161.51 280.355 160.18 279.945 158.96 279.415C155.72 275.735 154.24 270.785 155.4 265.895C157.39 257.445 166.44 252.345 175.62 254.505C183.44 260.245 187.24 271.035 187.24 271.035H187.23Z" fill="#392FB4"/>
<path d="M118.449 291.235L111.699 273.915C110.449 270.695 113.319 267.395 116.679 268.185L137.209 273.025C140.569 273.815 141.659 278.055 139.099 280.375L125.319 292.855C123.089 294.875 119.539 294.035 118.449 291.235Z" fill="#392FB4"/>
<path d="M374.08 372.135C354.64 381.995 346.09 390.735 346.09 390.735C346.09 390.735 334.39 420.585 335.18 420.325C335.41 420.245 336.73 420.515 338.45 420.905C342.44 421.825 348.7 423.455 349.259 423.285C353.52 421.825 384.9 427.175 384.9 427.175C384.9 427.175 429.98 330.095 429.05 326.615C426.15 315.765 330.23 209.775 301.25 211.005C269.35 212.395 220.33 243.105 274.18 317.165C297.98 349.875 333.84 374.805 374.09 372.145L374.08 372.135Z" fill="#E36045"/>
<path d="M386.579 369.885C379.439 372.335 359.799 381.395 344.759 391.625C325.919 404.405 342.489 418.665 343.269 418.405C343.499 418.325 344.819 418.595 346.539 418.985C350.529 419.905 356.789 421.535 357.349 421.365C361.609 419.905 373.849 439.785 392.989 425.255C474.439 363.415 438.069 328.175 437.139 324.695C434.239 313.845 338.319 207.855 309.339 209.085C277.439 210.475 228.419 241.185 282.269 315.245C306.069 347.955 346.339 372.565 386.579 369.895V369.885Z" fill="#FC6B4D"/>
<path d="M386.579 369.885C379.439 372.335 359.799 381.395 344.759 391.625C325.919 404.405 342.489 418.665 343.269 418.405C343.499 418.325 344.819 418.595 346.539 418.985C350.529 419.905 356.789 421.535 357.349 421.365C361.609 419.905 373.849 439.785 392.989 425.255C474.439 363.415 438.069 328.175 437.139 324.695C434.239 313.845 338.319 207.855 309.339 209.085C277.439 210.475 228.419 241.185 282.269 315.245C306.069 347.955 346.339 372.565 386.579 369.895V369.885Z" fill="#FC6B4D"/>
<path d="M328.07 450.085C328.95 451.535 329.45 446.605 330.43 447.945C331.88 447.625 333.78 453.515 335.22 453.165C337.98 452.425 340.71 451.675 343.38 450.825C344.2 450.585 342.91 442.455 343.7 442.205C344.47 441.925 347.33 449.545 348.12 449.295C352.38 447.835 371.62 436.255 392.99 425.265C385.79 416.675 379.1 409.665 370.24 402.905C362.73 397.185 353.93 392.805 344.76 391.635C325.92 404.415 311.54 423.605 328.07 450.095V450.085Z" fill="#FDC5A6"/>
<path d="M328.079 450.095C328.079 450.095 329.259 451.715 331.319 452.725C333.689 453.875 335.219 453.175 335.219 453.175C335.219 453.175 329.129 440.765 328.639 430.665C328.899 423.115 329.799 420.215 333.789 411.655C330.579 412.645 326.189 417.405 323.809 424.805C320.869 433.975 328.069 450.095 328.069 450.095H328.079Z" fill="#392FB4"/>
<path d="M340.92 451.575C342.51 451.105 346.55 449.815 348.11 449.285C344.28 441.335 343.97 436.435 344.05 431.935C343.83 428.545 345.17 421.125 349.16 412.565C345.28 415.325 339.43 422.175 338.54 427.615C336.96 437.335 338.59 443.835 340.92 451.565V451.575Z" fill="#392FB4"/>
<path d="M127.699 114.362C131.572 111.247 132.749 106.28 130.326 103.267C127.904 100.254 122.8 100.336 118.926 103.451C115.052 106.566 113.876 111.533 116.298 114.546C118.721 117.559 123.825 117.476 127.699 114.362Z" fill="#FDC5A6"/>
<path d="M143.098 119.701C146.926 116.531 148.03 111.547 145.564 108.57C143.099 105.592 137.996 105.749 134.168 108.919C130.34 112.089 129.235 117.073 131.701 120.051C134.167 123.028 139.269 122.872 143.098 119.701Z" fill="#FDC5A6"/>
<path d="M146.804 135.865C151.032 133.252 152.811 128.467 150.779 125.179C148.746 121.89 143.671 121.343 139.443 123.956C135.215 126.57 133.435 131.354 135.467 134.643C137.5 137.931 142.575 138.479 146.804 135.865Z" fill="#FDC5A6"/>
<path d="M123.31 142.735C112.06 138.685 109.21 129.555 109.03 126.535C108.88 124.085 109.89 121.455 111.97 120.215C115.18 118.295 119.3 120.255 122.96 119.535C124.23 119.285 125.46 118.705 126.75 118.725C129.84 118.775 132.14 121.185 132.56 124.315C132.98 127.445 131.48 131.985 132.98 134.775C135.9 140.175 130.8 145.425 123.32 142.735H123.31Z" fill="#FDC5A6"/>
<path d="M116.629 324.805C116.209 324.805 115.779 324.775 115.349 324.715C109.519 323.855 105.639 317.335 106.689 310.165C107.739 303.005 113.339 297.875 119.169 298.735C122.119 299.165 124.639 301.005 126.259 303.915C127.759 306.605 128.319 309.935 127.829 313.285C126.849 319.925 121.969 324.815 116.629 324.815V324.805ZM111.639 310.895C110.999 315.255 113.029 319.315 116.079 319.765C119.119 320.205 122.249 316.915 122.889 312.555C123.219 310.285 122.869 308.085 121.899 306.355C121.049 304.835 119.819 303.885 118.449 303.685C115.409 303.235 112.279 306.535 111.639 310.895Z" fill="#392FB4"/>
<path d="M134.829 407.775C135.959 415.475 132.919 431.305 137.419 436.795C137.159 436.995 136.909 437.195 136.639 437.375C109.629 420.095 86.5589 397.165 69.1289 370.395C84.3289 364.615 99.7789 366.875 114.169 374.535C125.749 380.695 132.759 393.715 134.829 407.775Z" fill="#FDC5A6"/>
<path d="M218.48 408.065C198.17 400.145 185.96 399.585 185.96 399.585C185.96 399.585 155.91 410.745 156.62 411.165C156.84 411.285 157.51 412.445 158.37 413.995C160.34 417.585 163.3 423.345 163.79 423.635C167.72 425.835 184.63 452.805 184.63 452.805C184.63 452.805 272.79 478.905 290.35 457.805C303.24 442.315 296.91 359.865 276.68 339.075C254.39 316.215 212.9 318.915 200.7 343.155C195.3 353.885 189.66 379.835 218.47 408.065H218.48Z" fill="#E36045"/>
<path d="M228.48 415.885C221.9 412.185 202.059 403.585 184.409 399.185C162.329 393.645 162.729 415.505 163.449 415.915C163.669 416.035 164.339 417.195 165.199 418.745C167.169 422.335 170.13 428.095 170.62 428.385C174.55 430.585 168.04 455.215 191.46 460.555C275.63 479.735 285.179 469.905 296.699 453.385C315.999 425.695 299.029 353.495 278.799 332.705C256.509 309.845 214.98 311.605 210.1 326.945C197.85 365.495 199.67 387.655 228.47 415.895L228.48 415.885Z" fill="#FC6B4D"/>
<path d="M129.7 425.685C129.21 427.305 133.21 424.395 132.87 426.015C134.08 426.875 130.95 432.225 132.17 433.065C134.56 434.635 136.94 436.165 139.36 437.585C140.09 438.035 145.29 431.665 146 432.075C146.72 432.465 142.95 439.675 143.66 440.095C148.99 443.265 163.82 453.085 191.48 460.545C193.09 449.455 193.86 436.795 192.99 425.685C192.25 416.275 189.65 406.795 184.42 399.175C162.34 393.635 138.45 395.695 129.71 425.675L129.7 425.685Z" fill="#FDC5A6"/>
<path d="M129.69 425.695C129.69 425.695 129.26 427.655 129.89 429.855C130.61 432.385 132.15 433.065 132.15 433.065C132.15 433.065 137.34 420.255 144.55 413.165C150.35 408.325 153.12 407.065 162.16 404.335C159.29 402.605 152.8 402.495 145.71 405.655C136.91 409.575 129.69 425.685 129.69 425.685V425.695Z" fill="#392FB4"/>
<path d="M137.139 436.265C138.549 437.135 142.199 439.285 143.639 440.095C147.009 431.945 150.469 428.445 153.869 425.505C156.259 423.085 162.669 419.145 171.719 416.415C167.069 415.365 158.069 415.565 153.419 418.525C145.119 423.815 141.359 429.365 137.149 436.255L137.139 436.265Z" fill="#392FB4"/>
</svg>
