<svg width="129" height="128" viewBox="0 0 129 128" fill="none" xmlns="http://www.w3.org/2000/svg">
<ellipse cx="64.2725" cy="108" rx="47.5" ry="11" fill="#D8DDE9"/>
<path d="M58.7696 58.7774L43.2296 45.1074C37.7096 40.2574 36.3296 31.8774 40.6396 25.9174C41.7871 24.3221 43.2558 22.9847 44.9512 21.9912C46.6466 20.9977 48.5313 20.37 50.4839 20.1487C52.4364 19.9273 54.4137 20.1172 56.2886 20.706C58.1634 21.2947 59.8942 22.2695 61.3696 23.5674L63.9896 25.8674L66.1696 23.9774C71.7196 19.1574 80.1696 18.9074 85.5296 23.9774C86.955 25.3298 88.0818 26.9655 88.8375 28.7793C89.5933 30.593 89.9613 32.5448 89.918 34.5092C89.8747 36.4737 89.421 38.4073 88.586 40.186C87.751 41.9647 86.5532 43.5491 85.0696 44.8374L69.0696 58.8074C67.6442 60.0589 65.8107 60.7465 63.9139 60.7409C62.0171 60.7354 60.1877 60.0371 58.7696 58.7774Z" fill="#FC6B4D"/>
<path d="M31.0693 39.5576H59.5693L61.0693 35.0576L68.0693 45.5576L71.0693 39.5576H98.0693" stroke="#392FB4" stroke-width="5" stroke-linecap="round" stroke-linejoin="round"/>
<path d="M97.6597 77.9375H30.1797V91.3675H97.6597V77.9375Z" fill="#392FB4"/>
<path d="M23.9393 69.6274H12.5793C10.917 69.6274 9.56934 70.9751 9.56934 72.6374V96.7874C9.56934 98.4498 10.917 99.7974 12.5793 99.7974H23.9393C25.6017 99.7974 26.9493 98.4498 26.9493 96.7874V72.6374C26.9493 70.9751 25.6017 69.6274 23.9393 69.6274Z" fill="#C34EAB"/>
<path d="M34.3598 61.7173H24.5598C22.8974 61.7173 21.5498 63.0649 21.5498 64.7273V104.707C21.5498 106.37 22.8974 107.717 24.5598 107.717H34.3598C36.0222 107.717 37.3698 106.37 37.3698 104.707V64.7273C37.3698 63.0649 36.0222 61.7173 34.3598 61.7173Z" fill="#C34EAB"/>
<path d="M104.239 99.7974H115.599C117.262 99.7974 118.609 98.4497 118.609 96.7874V72.6374C118.609 70.975 117.262 69.6274 115.599 69.6274H104.239C102.577 69.6274 101.229 70.975 101.229 72.6374V96.7874C101.229 98.4497 102.577 99.7974 104.239 99.7974Z" fill="#C34EAB"/>
<path d="M93.8199 107.708H103.62C105.282 107.708 106.63 106.36 106.63 104.698V64.7175C106.63 63.0551 105.282 61.7075 103.62 61.7075H93.8199C92.1575 61.7075 90.8099 63.0551 90.8099 64.7175V104.698C90.8099 106.36 92.1575 107.708 93.8199 107.708Z" fill="#C34EAB"/>
</svg>
