<svg xmlns="http://www.w3.org/2000/svg" width="653" height="435" fill="none">

  <style>
    /* ── Gentle float ── */
    @keyframes float {
      0%,100% { transform: translateY(0px); }
      50%      { transform: translateY(-6px); }
    }
    /* ── Breathing ── */
    @keyframes breathe {
      0%,100% { transform: scale(1); }
      50%      { transform: scale(1.04); }
    }
    /* ── Wiggle ── */
    @keyframes wiggle {
      0%,100% { transform: rotate(0deg); }
      20%     { transform: rotate(8deg); }
      60%     { transform: rotate(-6deg); }
    }
    /* ── Blink ── */
    @keyframes blink {
      0%,90%,100% { transform: scaleY(1); }
      95%          { transform: scaleY(0.08); }
    }
    /* ── Tail wag ── */
    @keyframes tailwag {
      0%,100% { transform: rotate(0deg); }
      30%     { transform: rotate(14deg); }
      70%     { transform: rotate(-10deg); }
    }
    /* ── Bounce ── */
    @keyframes bounce {
      0%,100% { transform: translateY(0); }
      40%     { transform: translateY(-8px); }
      60%     { transform: translateY(-4px); }
    }
    /* Apply to root group */
    .char-root {
      animation: float 3.2s ease-in-out infinite;
      transform-origin: center bottom;
    }
    .char-body {
      animation: breathe 2.8s ease-in-out infinite;
      transform-origin: center center;
    }
    .char-ear-l {
      animation: wiggle 2.6s ease-in-out infinite;
      transform-origin: bottom center;
    }
    .char-ear-r {
      animation: wiggle 2.6s ease-in-out infinite reverse;
      transform-origin: bottom center;
    }
    .char-eye-l {
      animation: blink 4s ease-in-out infinite;
      transform-origin: center center;
    }
    .char-eye-r {
      animation: blink 4s ease-in-out infinite;
      transform-origin: center center;
      animation-delay: 0.1s;
    }
    .char-tail {
      animation: tailwag 2s ease-in-out infinite;
      transform-origin: left center;
    }
  </style>

  <g class="char-root" id="cork_fizz_card">
<g clip-path="url(#a)"><g filter="url(#b)"><rect width="211.195" height="335.428" fill="#D45C27" rx="11.043" transform="matrix(-.98825 -.15287 -.421 .90706 573.852 36.16)"/></g><rect width="211.195" height="335.428" fill="#1D6AE5" rx="11.043" transform="matrix(-.98825 -.15287 -.421 .90706 572.286 33.233)"/><g fill="#fff" clip-path="url(#c)"><path d="m281.505 302.579 5.961.922 6.094-21.739-5.962-.922-6.093 21.739ZM269.476 278.591a17.906 17.906 0 0 1 5.765-.074c5.887.911 8.695 4.434 6.809 8.557-1.362 3.047-5.163 4.269-7.89 4.933-2.787.679-3.885 1.234-4.313 2.157-.635 1.421.902 2.359 2.619 2.625 2.38.368 3.812.228 6.116-.261l.942-.216-1.371 4.879c-1.67.368-4.486.489-7.171.098-6.256-.968-9.011-4.435-7.022-8.832 1.094-2.413 3.544-4.012 7.679-4.989 2.535-.646 4.114-1.101 4.574-2.092.394-.905-.234-1.99-2.587-2.354-1.917-.345-3.54-.138-4.817.123l-.644.141 1.311-4.695ZM255.45 290.513c.073-1.292.368-6.289.368-6.289.003.049.084-1.314.156-2.147l-1.263 1.759s-3.48 4.891-4.217 5.911l4.956.766Zm-1.017-14.803 4.612.713c1.422.22 2.324.77 2.301 2.238l-.152 20.776-6.256-.968.223-3.368-7.655-1.184c-.516.716-2.184 3.064-2.184 3.064l-5.52-.854 14.631-20.417ZM302.268 283.109l-.859 15.334 1.996-2.828c2.647-3.21 7.735-6.356 12.359-7.596l-13.937 17.679-6.304-.975.441-22.589 6.304.975Z"/><path d="m313.528 284.851 9.591 1.484-.1.442c-8.297.599-15.217 4.066-19.615 8.839l6.6-9.404c.97-1.298 2.203-1.518 3.524-1.361Z"/></g><path fill="#fff" d="m299.179 265.541 3.674.568 5.072-10.927-3.837-.593c-1.155-.179-2.245-.113-3.269.198a7.03 7.03 0 0 0-2.759 1.58c-.814.743-1.484 1.681-2.009 2.812-.528 1.138-.762 2.152-.702 3.042.062.886.413 1.616 1.054 2.187.641.569 1.567.946 2.776 1.133Zm2.777-.828-2.139-.331c-.985-.153-1.72-.453-2.205-.902-.485-.448-.737-1.019-.756-1.712-.019-.693.178-1.484.59-2.374.41-.882.919-1.617 1.529-2.205a5.204 5.204 0 0 1 2.09-1.255c.784-.248 1.641-.301 2.571-.157l2.302.356-3.982 8.58Zm-10.869-.424 5.072-10.927-7.185-1.111-.545 1.174 5.743.888-1.713 3.692-5.372-.831-.544 1.174 5.371.831-1.724 3.714-5.836-.903-.545 1.174 7.278 1.125Zm-9.783-1.513 5.071-10.927-4.162-.644c-.829-.128-1.574-.102-2.235.078a4.237 4.237 0 0 0-1.691.865 4.051 4.051 0 0 0-1.072 1.395c-.217.469-.306.871-.266 1.205.036.334.16.612.372.836.208.223.463.403.764.541l-.049.107c-.374-.035-.795.026-1.262.182a4.198 4.198 0 0 0-1.35.775c-.433.36-.784.828-1.051 1.404-.254.548-.347 1.062-.279 1.541.068.479.335.893.802 1.239.466.347 1.168.593 2.106.738l4.302.665Zm-.897-1.397-2.86-.442c-.942-.146-1.533-.416-1.773-.812-.242-.4-.252-.839-.029-1.32.172-.37.433-.695.783-.976a3.356 3.356 0 0 1 1.23-.622c.469-.134.963-.16 1.482-.08l2.93.453-1.763 3.799Zm2.298-4.951-2.674-.414c-.434-.067-.789-.206-1.065-.416a1.354 1.354 0 0 1-.53-.791c-.078-.317-.027-.668.151-1.052.223-.48.594-.859 1.114-1.137.521-.282 1.177-.361 1.967-.239l2.721.421-1.684 3.628Zm-8.418-6.449-5.072 10.927 1.442.223 5.072-10.927-1.442-.223Zm-2.784.827.545-1.173-8.929-1.382-.545 1.174 3.744.579-4.527 9.754 1.441.223 4.527-9.754 3.744.579Z"/><g clip-path="url(#d)"><path fill="#fff" fill-rule="evenodd" d="M389.552 304.476c-2.381 5.132-2.277 10.128-.183 14.063l14.373 2.223-4.363-27.221c-4.253 2.757-7.787 6.54-9.827 10.935Zm12.152-12.301c5.214-2.767 11.215-4.046 16.784-3.184 11.207 1.733 16.422 11.477 11.647 21.763-2.381 5.132-6.799 9.429-12.02 12.231l-16.411-30.81Z" clip-rule="evenodd"/></g><g clip-path="url(#e)"><path fill="#fff" d="M383.09 72.284c.389-.038.916-.362 1.157-.712.158-.228.175-.4.11-1.11-.261-2.865.22-5.391 1.586-8.336 1.321-2.845 2.92-4.971 5.571-7.405.569-.523 1.064-1.013 1.1-1.09.131-.282.063-.731-.141-.935-.28-.28-.94-.337-1.369-.12-.165.083-.685.497-1.156.92a27.858 27.858 0 0 0-4.806 5.61c-.813 1.26-1.993 3.705-2.373 4.915-.701 2.233-.977 4.279-.858 6.344.073 1.248.234 1.782.553 1.831a.88.88 0 0 1 .217.069c.055.027.239.036.409.02Zm5.053-1.345c.598-.06 1.259-.599 1.313-1.071.014-.114-.005-.653-.04-1.198-.149-2.304.437-4.66 1.709-6.864 1.045-1.811 1.943-2.916 3.637-4.475 1.136-1.046 1.246-1.218 1.106-1.732-.133-.488-.939-.688-1.551-.385-.424.21-2.218 1.882-3.063 2.856-2.795 3.222-4.309 6.911-4.31 10.502-.001 1.839.312 2.456 1.199 2.367Zm5.196-1.353c.391-.085.822-.36 1.048-.67.138-.188.158-.417.104-1.202-.196-2.882.978-5.447 3.584-7.83 1.144-1.046 1.263-1.27.952-1.801-.153-.262-.244-.318-.604-.374-.605-.094-1.047.137-2.06 1.071-1.558 1.438-2.528 2.744-3.333 4.485-.828 1.79-1.08 3.067-.959 4.856.069 1.024.205 1.312.684 1.455a1.4 1.4 0 0 0 .584.01Zm4.847-1.26c.306-.058.754-.337.973-.606.245-.3.281-.564.164-1.213-.151-.836-.079-1.261.381-2.252.46-.991.766-1.38 1.62-2.06.29-.231.604-.513.698-.626.394-.475.224-1.158-.336-1.357-.476-.169-.929-.012-1.719.595-2.29 1.758-3.512 4.39-3.043 6.556.166.764.594 1.091 1.262.964Z"/></g><rect width="211.195" height="335.428" fill="url(#f)" rx="11.043" transform="matrix(-.98825 -.15287 -.421 .90706 572.306 33.236)"/><g clip-path="url(#g)"><rect width="335.428" height="211.195" fill="#fff" rx="11.043" transform="matrix(-.421 .90706 -.98825 -.15287 572.257 33.295)"/><path fill="#F26724" d="m420.047 285.886-17.461-2.701-13.366 28.797 17.461 2.701 13.366-28.797Z"/><path fill="#E31E27" d="M397.021 297.756c2.708-5.834 8.113-10.581 14.308-13.219-2.257-2.979-5.861-5.107-10.526-5.828-11.036-1.708-23.764 5.113-28.46 15.23-4.695 10.117.447 19.702 11.456 21.405 4.665.722 9.628-.081 14.164-2.009-3.094-4.075-3.656-9.731-.942-15.579Z"/><path fill="#F9A01F" d="M436.948 303.933c-4.695 10.116-17.45 16.933-28.459 15.23-4.665-.721-8.269-2.849-10.526-5.828 6.209-2.636 11.594-7.372 14.308-13.219 2.714-5.848 2.138-11.506-.942-15.579 4.535-1.928 9.499-2.731 14.164-2.009 11.036 1.707 16.151 11.288 11.455 21.405Z"/><path fill="#231F20" d="m429.783 314.996.273-.589.259.04.058-.125-.655-.101-.058.125.259.04-.273.589.137.021Zm1.268.196.332-.714-.205-.031-.459.452-.005-.524-.204-.032-.332.714.137.021.25-.538.003.497.15.023.433-.43-.25.539.137.021.013.002Z"/><path fill="#392FB4" d="M262.465 286.23c-.18.388-.599.565-1.076.491-.682-.106-1.366-.238-2.048-.344-.682-.105-1.39-.188-2.072-.293-.464-.072-.681-.361-.506-.736.197-.426.515-.511.898-1.338l3.069-6.61c.343-.739.301-1.121-.245-1.206-.259-.04-.499.004-.808.103l-3.481 7.5c-.384.827-.183.992-.38 1.418-.18.388-.599.565-1.076.491-.682-.106-1.366-.238-2.048-.344-.682-.105-1.39-.188-2.072-.294-.464-.071-.681-.36-.506-.735.197-.426.515-.511.898-1.338l3.289-7.086c.587-1.265.125-1.404.34-1.867.18-.388.492-.461 1.178-.489l3.365-.069c.337-.002.735-.008.967.028.45.07.556.314.271.928l-.407.876c1.474-1.127 2.916-1.588 4.362-1.365 2.033.315 2.635 1.884 1.554 4.213l-3.08 6.636c-.39.839-.169.994-.367 1.419l-.019.011ZM263.789 286.434c.198-.426.515-.511.899-1.337l3.289-7.087c.587-1.265.125-1.403.34-1.866.18-.389.491-.461 1.177-.489l3.475-.053c.337-.002.734-.007.966.028.451.07.556.315.272.928l-4.33 9.328c-.383.826-.182.992-.38 1.417-.18.388-.598.565-1.076.491-.682-.105-1.366-.238-2.048-.343-.682-.106-1.389-.188-2.072-.294-.463-.072-.667-.358-.492-.734l-.02.011ZM286.357 283.832c-1.83 3.944-5.726 6.227-9.559 5.634-.546-.085-.821-.154-1.273-.345-.909-.342-1.635-.763-2.603-.912-.805-.125-1.358.152-1.808.082-.395-.061-.571-.343-.397-.719.198-.425.573-.448.893-1.136l6.369-13.723c.599-1.29.137-1.428.346-1.879.169-.363.46-.519 1.172-.476 2.228.143 4.112.18 4.33.213.464.072.545.339.272.928l-3.301 7.112c1.209-.967 2.53-1.421 3.731-1.235 2.633.407 3.616 2.573 1.809 6.466l.019-.01Zm-6.466 1.174c1.447-3.118 1.852-5.377.966-5.514a1.028 1.028 0 0 0-.514.068l-3.104 6.686c-.563 1.215-.55 2.035-.031 2.116.682.105 1.428-.652 2.683-3.356ZM300.313 285.991c-1.83 3.944-5.726 6.226-9.559 5.634-.546-.085-.821-.154-1.273-.345-.909-.342-1.635-.763-2.603-.913-.805-.124-1.358.153-1.808.083-.395-.061-.571-.343-.397-.719.198-.426.573-.448.893-1.137l6.369-13.722c.599-1.29.137-1.428.346-1.879.169-.363.46-.519 1.172-.477 2.228.144 4.112.18 4.33.214.464.072.545.339.272.928l-3.301 7.111c1.209-.967 2.53-1.42 3.745-1.232 2.632.407 3.616 2.572 1.809 6.466l.005-.012Zm-6.452 1.176c1.447-3.118 1.852-5.377.965-5.514a1.03 1.03 0 0 0-.514.068l-3.103 6.686c-.564 1.215-.55 2.035-.032 2.116.682.105 1.429-.652 2.684-3.356ZM298.737 291.84c.198-.426.515-.511.899-1.337l6.259-13.485c.598-1.29.136-1.428.345-1.879.169-.363.461-.519 1.172-.476 2.24.118 4.113.18 4.331.213.464.072.544.34.271.928l-7.194 15.501c-.384.826-.183.991-.381 1.417-.18.388-.598.565-1.076.491-.682-.105-1.366-.238-2.048-.344-.682-.105-1.389-.188-2.071-.293-.464-.072-.667-.358-.487-.747l-.02.011ZM319.278 290.992c-1.238 2.666-4.29 4.234-7.823 3.688-3.847-.595-5.276-3.313-3.509-7.119 1.644-3.543 5.604-5.87 9.369-5.287 2.797.432 4.232 2.412 3.036 5.462l-6.874.855c-.385 1.9.016 3.398 1.408 3.613 1.487.23 2.158-.713 2.548-1.552.296-.638.891-.882 1.41-.801.573.088.718.5.421 1.138l.014.003Zm-4.941-4.791c-.209.451-.379.881-.516 1.303l1.489-.186c.939-2.149 1.521-3.938 1.057-4.01-.409-.063-1.243 1.23-2.016 2.896l-.014-.003ZM320.135 295.539c-.75-.116-1.203.23-1.667.159-.341-.053-.579-.265-.265-.753a45.45 45.45 0 0 0 1.827-3.085c.19-.347.556-.599 1.033-.525.451.07.513.281.526.725.054 1.995.475 2.946 1.758 3.144.736.114 1.408-.198 1.704-.837.354-.763.077-1.142-1.219-2.255l-.748-.626c-1.675-1.399-1.922-2.632-1.265-4.047 1.028-2.216 3.993-3.971 7.976-3.355 2.592.401 3.912 1.652 3.185 3.217-.499 1.076-1.478 1.609-2.733 1.415-2.974-.46-.219-3.214-1.992-3.488-.682-.106-1.213.188-1.492.789-.308.663.005 1.249 1.809 2.749l.748.625c1.669 1.413 1.849 2.474 1.076 4.139-.959 2.066-3.618 3.574-7.465 2.979-1.923-.298-1.759-.809-2.809-.972l.013.002Z"/><path fill="#D45C27" d="m270.13 273.498.25-2.618c.093-.925.981-1.861 2.083-2.093 1.275-.259 2.257.429 2.146 1.486l-.041.436.424-.001c1.091-.019 1.87.665 1.744 1.598-.149 1.077-1.349 1.992-2.554 2.007l-3.133.039c-.572.005-.963-.351-.919-.854Z"/><path fill="#392FB4" d="M410.219 26.923c3.103-.888 5.352-3.654 5.029-6.173-.252-1.945-2.011-3.572-4.227-3.808-.75-.116-2.686-.858-4.325-3.03-1.222-1.934-3.994-2.765-7.025-1.906-3.023.875-5.399 3.191-6.045 5.654-.996 2.933-2.591 4.699-3.267 5.212-2.003 1.448-3.228 3.929-2.969 5.861.322 2.519 3.103 3.835 6.206 2.946 1.273-.286 4.336-1.342 6.305-3.252.27-.267.544-.48.806-.667.578-.394 1.29-.605 1.941-.558.298.019.592.078.916.168 2.302.678 5.411-.035 6.667-.472l-.012.025ZM389.721 15.486c1.129 2.228.338 4.91-1.779 6.005-2.103 1.098-4.727.168-5.857-2.06s-.338-4.91 1.779-6.005c2.116-1.095 4.727-.168 5.857 2.06ZM409.778 9.732c-.488 2.69.912 4.744 3.146 4.594 2.234-.152 4.429-2.456 4.917-5.145.488-2.689-.913-4.744-3.147-4.593-2.233.151-4.429 2.455-4.916 5.144ZM400.648 4.2c-.573 3.091 1.005 5.456 3.5 5.278 2.489-.165 4.976-2.813 5.529-5.895.572-3.092-1.006-5.456-3.501-5.279-2.489.166-4.975 2.814-5.528 5.895ZM396.819 5.298c1.302 2.55.432 5.622-1.932 6.84s-5.316.144-6.612-2.418c-1.302-2.55-.431-5.623 1.932-6.84 2.364-1.218 5.316-.144 6.612 2.418ZM352.485 82.608c3.12-.484 5.784-3.01 5.933-5.631.119-2.021-1.244-3.937-3.3-4.483-.69-.214-2.386-1.254-3.545-3.702-.801-2.15-3.28-3.392-6.319-2.923-3.04.47-5.719 2.524-6.805 4.96-1.493 2.868-3.351 4.446-4.08 4.884-2.169 1.207-3.799 3.585-3.932 5.605-.169 2.63 2.232 4.357 5.351 3.874 1.266-.113 4.365-.774 6.599-2.469.313-.233.603-.416.895-.573.622-.333 1.343-.436 1.939-.303.275.069.552.166.839.304 2.057 1.016 5.136.714 6.423.43l.002.027ZM335.148 68.05c.653 2.436-.606 5.086-2.817 5.912-2.211.825-4.532-.473-5.172-2.907-.639-2.434.607-5.086 2.817-5.912 2.211-.825 4.533.473 5.172 2.907ZM355.29 64.912c-.973 2.695-.02 4.99 2.129 5.147 2.155.146 4.672-1.907 5.645-4.602.973-2.694.02-4.989-2.129-5.147-2.155-.145-4.672 1.908-5.645 4.602ZM347.655 57.988c-1.112 3.089-.072 5.732 2.34 5.89 2.406.172 5.257-2.192 6.369-5.28 1.112-3.09.073-5.733-2.339-5.892-2.406-.17-5.258 2.193-6.37 5.282ZM343.809 58.587c.748 2.8-.653 5.817-3.132 6.749-2.479.931-5.08-.585-5.827-3.384-.748-2.8.653-5.817 3.132-6.75 2.479-.93 5.08.585 5.827 3.385ZM409.805 107.579c3.089-.985 5.253-3.791 4.813-6.274-.339-1.918-2.174-3.477-4.41-3.635-.768-.078-2.741-.773-4.488-2.868-1.306-1.88-4.146-2.628-7.163-1.672-3.017.956-5.302 3.327-5.86 5.79-.881 2.937-2.413 4.726-3.074 5.268-1.952 1.497-3.081 3.992-2.743 5.91.441 2.484 3.296 3.704 6.379 2.731 1.277-.326 4.32-1.465 6.219-3.413.256-.269.522-.496.785-.683.569-.409 1.274-.635 1.923-.615.298.019.604.053.927.143 2.351.605 5.441-.192 6.7-.668l-.008-.014ZM388.659 96.873c1.227 2.176.537 4.86-1.529 6.003-2.079 1.142-4.75.312-5.983-1.851-1.227-2.176-.537-4.86 1.529-6.004 2.08-1.14 4.751-.311 5.983 1.852ZM408.639 90.556c-.381 2.679 1.123 4.67 3.372 4.454 2.236-.218 4.366-2.572 4.747-5.251.381-2.679-1.122-4.67-3.358-4.451-2.236.217-4.367 2.572-4.747 5.25l-.014-.002ZM399.198 85.352c-.432 3.074 1.236 5.371 3.746 5.129 2.51-.242 4.891-2.947 5.337-6.018.433-3.074-1.235-5.371-3.745-5.13-2.511.243-4.892 2.948-5.338 6.02ZM395.389 86.562c1.419 2.487.669 5.552-1.655 6.843-2.319 1.278-5.358.298-6.763-2.187-1.419-2.488-.669-5.552 1.655-6.843 2.319-1.279 5.358-.299 6.763 2.187ZM364.348 175.778c3.093-.93 5.293-3.717 4.924-6.23-.291-1.923-2.095-3.518-4.322-3.728-.762-.091-2.704-.821-4.406-2.949-1.268-1.901-4.071-2.697-7.098-1.783-3.026.914-5.354 3.252-5.946 5.723-.935 2.929-2.508 4.712-3.177 5.239-1.967 1.467-3.151 3.954-2.866 5.891.375 2.5 3.207 3.77 6.3 2.84 1.285-.312 4.319-1.399 6.271-3.338.271-.267.531-.482.793-.669.57-.409 1.283-.62 1.925-.588.299.019.599.066.922.156 2.334.643 5.433-.112 6.686-.576l-.006.012ZM343.526 164.693c1.175 2.195.438 4.885-1.663 6.01-2.101 1.124-4.749.245-5.923-1.95-1.175-2.194-.438-4.885 1.663-6.01 2.095-1.111 4.749-.245 5.923 1.95ZM363.538 158.65c-.441 2.683 1.018 4.707 3.25 4.528 2.238-.19 4.398-2.513 4.839-5.196.441-2.683-1.018-4.707-3.25-4.528-2.237.19-4.397 2.513-4.839 5.196ZM354.255 153.296c-.493 3.077 1.13 5.408 3.623 5.203 2.493-.205 4.931-2.874 5.443-5.962.512-3.088-1.131-5.408-3.623-5.203-2.493.205-4.931 2.874-5.443 5.962ZM350.437 154.435c1.354 2.531.55 5.587-1.798 6.835-2.334 1.249-5.337.221-6.697-2.298-1.355-2.531-.551-5.587 1.797-6.834 2.335-1.249 5.337-.221 6.698 2.297ZM441.548 178.983c2.725-1.806 3.718-4.86 2.209-6.838-1.165-1.522-3.707-2.251-6.072-1.69-.81.169-3.126.214-5.82-1.008-2.144-1.177-5.347-.921-8.008.841-2.66 1.763-3.968 4.486-3.483 6.748.368 2.768-.427 4.765-.87 5.435-1.343 1.886-1.422 4.356-.257 5.878 1.515 1.966 4.957 2.109 7.681.303 1.164-.679 3.765-2.598 4.871-4.856.146-.313.314-.582.499-.822a3.192 3.192 0 0 1 1.703-1.119c.304-.087.637-.143.999-.167 2.666-.232 5.463-1.88 6.537-2.68l.011-.025ZM415.384 176.573c2.191 1.452 2.64 3.951 1.022 5.579-1.619 1.629-4.71 1.768-6.901.315-2.192-1.453-2.64-3.951-1.022-5.58 1.619-1.628 4.71-1.767 6.901-.314ZM433.019 164.915c.764 2.386 3.167 3.603 5.346 2.719 2.185-.897 3.343-3.549 2.572-5.95-.764-2.386-3.162-3.616-5.347-2.719-2.185.897-3.343 3.549-2.571 5.95ZM421.166 163.485c.872 2.752 3.58 4.163 6.034 3.161 2.453-1.003 3.731-4.039 2.84-6.781-.872-2.751-3.58-4.163-6.034-3.161-2.454 1.003-3.731 4.04-2.84 6.781ZM417.799 165.701c2.517 1.665 3.072 4.501 1.251 6.313-1.826 1.825-5.33 1.94-7.834.278-2.517-1.664-3.072-4.501-1.251-6.313 1.826-1.824 5.33-1.94 7.834-.278ZM412.227 240.552c2.806-1.699 3.975-4.752 2.602-6.803-1.048-1.585-3.513-2.449-5.873-1.996-.812.143-3.089.073-5.672-1.293-2.037-1.281-5.217-1.17-7.96.486-2.742 1.656-4.2 4.356-3.853 6.664.188 2.807-.722 4.8-1.199 5.451-1.441 1.844-1.68 4.343-.632 5.928 1.367 2.063 4.754 2.359 7.56.659 1.187-.635 3.876-2.46 5.113-4.684.173-.309.355-.576.553-.814a3.247 3.247 0 0 1 1.749-1.058 5.14 5.14 0 0 1 .995-.128c2.635-.102 5.506-1.657 6.617-2.412ZM386.578 236.908c2.065 1.567 2.362 4.109.652 5.683-1.71 1.574-4.765 1.571-6.83.004-2.065-1.568-2.356-4.122-.652-5.684 1.71-1.573 4.765-1.571 6.83-.003ZM404.701 225.929c.601 2.454 2.891 3.788 5.104 2.99 2.213-.798 3.513-3.442 2.913-5.897-.601-2.455-2.891-3.789-5.104-2.99-2.213.798-3.513 3.442-2.913 5.897ZM393.097 223.933c.695 2.818 3.265 4.37 5.74 3.478 2.476-.892 3.923-3.916 3.242-6.732-.695-2.818-3.265-4.37-5.74-3.478-2.476.892-3.923 3.916-3.242 6.732ZM389.637 226.028c2.366 1.802 2.75 4.692.837 6.45-1.912 1.757-5.374 1.718-7.739-.084-2.366-1.801-2.749-4.692-.837-6.45 1.912-1.757 5.374-1.718 7.739.084ZM481.145 246.892c2.679-1.866 3.55-4.939 1.932-6.84-1.235-1.466-3.839-2.124-6.179-1.493-.822.195-3.14.307-5.907-.819-2.212-1.094-5.429-.746-8.044 1.077s-3.82 4.576-3.23 6.801c.487 2.732-.227 4.742-.65 5.401-1.281 1.909-1.247 4.356-.012 5.822 1.598 1.912 5.079 1.94 7.751.059 1.148-.708 3.69-2.69 4.701-4.963.146-.313.301-.584.477-.839.379-.532.987-.961 1.667-1.164a7.453 7.453 0 0 1 1.002-.208c2.674-.311 5.432-2.031 6.476-2.863l.016.029ZM454.672 245.307c2.273 1.372 2.827 3.833 1.265 5.497-1.575 1.661-4.68 1.892-6.939.523-2.273-1.371-2.827-3.832-1.265-5.496 1.575-1.662 4.68-1.893 6.939-.524ZM471.963 233.22c.869 2.348 3.34 3.482 5.507 2.529 2.168-.953 3.217-3.622 2.348-5.971-.869-2.348-3.34-3.482-5.508-2.529-2.168.953-3.216 3.622-2.347 5.971ZM459.953 232.167c1.002 2.691 3.778 4.02 6.206 2.946 2.423-1.061 3.591-4.115 2.589-6.806-1.003-2.691-3.778-4.02-6.206-2.946-2.423 1.061-3.592 4.114-2.589 6.806ZM456.658 234.476c2.604 1.57 3.284 4.359 1.527 6.221-1.756 1.863-5.285 2.095-7.884.512-2.604-1.57-3.284-4.359-1.528-6.221 1.757-1.863 5.286-2.095 7.885-.512Z"/><path fill="#D9D9D9" d="m464.901 98.32 14.424-31.076c.857-1.847-.079-3.596-2.091-3.907l-20.271-3.135c-2.012-.311-4.337.933-5.194 2.78l-14.424 31.076c-.857 1.846.079 3.595 2.091 3.906l20.271 3.136c2.011.311 4.337-.934 5.194-2.78Z"/><rect width="4.466" height="20.94" fill="#363636" fill-opacity=".2" rx="1.38" transform="matrix(-.421 .90706 -.98825 -.15287 469.621 80.225)"/><rect width="6.306" height="12.538" fill="#363636" fill-opacity=".2" rx="1.38" transform="matrix(.98825 .15287 -.421 .90706 470.26 65.3)"/><rect width="6.306" height="12.538" fill="#363636" fill-opacity=".2" rx="1.38" transform="matrix(.98825 .15287 -.421 .90706 460.646 86.014)"/><rect width="6.306" height="12.538" fill="#363636" fill-opacity=".2" rx="1.38" transform="matrix(.98825 .15287 -.421 .90706 462.664 64.125)"/><rect width="6.306" height="12.538" fill="#363636" fill-opacity=".2" rx="1.38" transform="matrix(.98825 .15287 -.421 .90706 453.049 84.84)"/><rect width="6.306" height="12.538" fill="#363636" fill-opacity=".2" rx="1.38" transform="matrix(.98825 .15287 -.421 .90706 455.067 62.95)"/><rect width="6.306" height="12.538" fill="#363636" fill-opacity=".2" rx="1.38" transform="matrix(.98825 .15287 -.421 .90706 445.453 83.664)"/></g><rect width="42.791" height="30.368" x=".196" y=".366" fill="url(#h)" stroke="#686C73" stroke-width=".69" rx="5.176" transform="matrix(-.421 .90706 .98825 .15287 450.735 59.383)"/><path fill="#686C73" fill-rule="evenodd" d="m448.141 80.309-8.611 4.608-.277-.517 8.41-4.501-3.386-6.325.688-.368 3.466 6.476 3.269.506 9.008-19.407.682.106-6.393 13.773 9.55 1.477 6.392-13.773.682.105-6.393 13.773h.001l-.291.626-2.325 5.008 3.27.506 8.611-4.608.277.517-8.411 4.5 3.386 6.326-.688.368-3.466-6.477-3.27-.506-2.324 5.009h.001l-.291.625h-.001l-6.392 13.773-.682-.105 6.393-13.773-9.549-1.477-6.393 13.773-.681-.105 6.537-14.086a.491.491 0 0 1 .415-.265l.071.005 9.89 1.53 4.94-10.644-9.549-1.477-2.47 5.321a.486.486 0 0 1-.486.261l-3.61-.558Z" clip-rule="evenodd"/></g><g filter="url(#i)"><path fill="#DB66C3" d="M469.5 410.736c19.053 0 34.5-15.193 34.5-33.933 0-18.741-15.447-33.933-34.5-33.933-19.054 0-34.5 15.192-34.5 33.933 0 18.74 15.446 33.933 34.5 33.933Z"/></g><mask id="j" width="70" height="69" x="434" y="342" maskUnits="userSpaceOnUse" style="mask-type:luminance"><path fill="#fff" d="M469.5 410.736c19.053 0 34.5-15.193 34.5-33.933 0-18.741-15.447-33.933-34.5-33.933-19.054 0-34.5 15.192-34.5 33.933 0 18.74 15.446 33.933 34.5 33.933Z"/></mask><g mask="url(#j)"><path fill="#6256EA" d="m456.34 420.076 15.298-16.469-18.169 9.792 5.342-8.936-10.09 7.48-1.444-1.561 17.708-19.066-21.839 14.78a1.09 1.09 0 0 1-1.5-.273 1.05 1.05 0 0 1 .278-1.475l28.485-19.279 10.307-17.237-.907.132-12.599 8.367-32.768 34.041 10.86-19.492-16.477 10.942 24.014-24.468 3.295-5.914-10.558 1.551-20.528 13.524 10.528-12.056-14.51 2.133 33.33-23.685 11.175-12.797a1.091 1.091 0 0 1 1.52-.114 1.05 1.05 0 0 1 .116 1.496l-5.319 6.09 16.547-11.758-11.415 20.487 26.789-17.648-28.786 29.331 8.437-1.24 27.457-28.523-13.05 21.826 23.667-15.718-18.095 19.482 15.539-2.281-36.132 24.454-1.376 1.482-5.314 8.887 39.292-29.128 1.445 1.562-24.91 26.816 24.169-13.024 1.143 1.793-50.957 35.694h.002Zm6.963-18.944-4.012 6.709 16.843-9.077 21.312-22.943-34.143 25.31v.001Zm14.183-.677-5.863 6.311 19.506-13.663-13.643 7.352Zm-13.039-5.417-7.729 8.321 4.945-3.665 2.784-4.656Zm-15.246-6.747-4.846 8.697 14.619-15.188-9.774 6.491h.001Zm-.302-3.871-4.261 4.342 2.924-1.942 1.337-2.401v.001Zm5.687-5.795-3.122 5.603 14.339-9.522 5.25-5.454-8.491 1.247-7.976 8.126Zm36.548-12.321-11.85 12.759 20.79-14.072-8.942 1.313h.002Zm-7.678 1.128-6.707 11.216 11.002-11.847-4.296.631h.001Zm-44.624 6.552-1.846 2.114 3.6-2.372-1.754.258Zm9.542-14.182-18.863 13.405 8.209-1.205 10.655-12.2h-.001Zm10.433 11.248-.285.512.539-.549-.254.037Zm-2.942-16.571-14.885 17.044 3.794-.556 18.361-12.097 8.815-15.822-16.085 11.43v.001Zm5.023 8.423-11.129 7.332 7.671-1.127 3.457-6.205h.001Zm13.625 5.842-.479.497.824-.548-.346.051h.001Zm-9.741-8.4-4.664 8.371 1.411-.207 16.72-17.037-13.467 8.873Zm24.672-7.111-12.527 13.014 2.088-.307 4.711-3.129 5.728-9.578Zm-4.116 11.068-.466.78 5.196-.763 7.653-8.241-12.383 8.224Z"/></g><path fill="#6256EA" d="M469.501 408.541c-.397 0-.777-.215-.965-.588a1.052 1.052 0 0 1 .482-1.422c4.628-2.273 8.427-3.612 11.612-4.093 3.725-.562 6.666.082 8.746 1.914 1.182 1.042 2.771 1.49 4.36 1.228a5.406 5.406 0 0 0 3.85-2.673c.392-.694.764-1.496 1.105-2.38a1.083 1.083 0 0 1 1.391-.615c.556.208.837.82.625 1.368a20.082 20.082 0 0 1-1.237 2.657c-1.127 1.995-3.086 3.355-5.379 3.734-2.238.37-4.482-.264-6.156-1.739-3.099-2.732-8.972-1.915-17.955 2.497a1.09 1.09 0 0 1-.481.112h.002Z"/><path fill="#FF8268" d="M141.911 180.218c13.67 0 24.751-10.899 24.751-24.344 0-13.445-11.081-24.345-24.751-24.345-13.67 0-24.752 10.9-24.752 24.345 0 13.445 11.082 24.344 24.752 24.344Z"/><path fill="#FF8268" d="M141.911 180.218c13.67 0 24.751-10.899 24.751-24.344 0-13.445-11.081-24.345-24.751-24.345-13.67 0-24.752 10.9-24.752 24.345 0 13.445 11.082 24.344 24.752 24.344Z"/><path fill="#6256EA" d="M141.578 131.533c.451 6.504-1.967 12.862-6.652 17.471-4.686 4.609-11.15 6.986-17.763 6.543a24.031 24.031 0 0 0 .229 3.654c7.509.371 14.818-2.387 20.146-7.628 5.328-5.24 8.132-12.429 7.756-19.815a25.38 25.38 0 0 0-3.716-.225ZM142.243 180.215c-.451-6.504 1.967-12.862 6.652-17.471 4.686-4.609 11.151-6.986 17.763-6.543a24.03 24.03 0 0 0-.228-3.654c-7.51-.371-14.818 2.387-20.146 7.628-5.329 5.24-8.133 12.429-7.756 19.815 1.232.166 2.473.241 3.715.225Z"/><g filter="url(#k)"><path fill="#FF8268" d="M574.257 110.603c6.482-1.766 10.369-8.388 8.682-14.791-1.688-6.404-8.31-10.164-14.792-8.398-6.482 1.765-10.368 8.387-8.681 14.791 1.687 6.403 8.31 10.163 14.791 8.398Z"/><path fill="#FF8268" d="M581.682 99.18c6.407-1.746 10.248-8.29 8.58-14.62-1.667-6.328-8.212-10.044-14.619-8.3-6.406 1.745-10.247 8.29-8.58 14.619 1.668 6.329 8.213 10.045 14.619 8.3Z"/><path fill="#FF8268" d="M593.296 100.971c5.141-1.4 8.224-6.653 6.885-11.732-1.338-5.08-6.591-8.062-11.732-6.662-5.141 1.4-8.224 6.653-6.886 11.732 1.338 5.08 6.591 8.062 11.733 6.662Z"/><path fill="#FF8268" d="M594.95 90.92c5.275-1.436 8.438-6.826 7.065-12.038-1.373-5.211-6.763-8.271-12.038-6.835-5.276 1.437-8.439 6.827-7.066 12.038 1.373 5.212 6.763 8.272 12.039 6.836Z"/><path fill="#FF8268" d="M606.799 97.033c5.727-1.56 9.162-7.412 7.671-13.07-1.491-5.658-7.343-8.981-13.07-7.421-5.728 1.56-9.162 7.411-7.671 13.07 1.491 5.658 7.342 8.98 13.07 7.42Z"/><path fill="#6256EA" d="m627.987 111.685-67.398 18.356c-1.711.466-3.404-.723-3.522-2.47l-1.556-23.232c-.164-2.462 1.459-4.718 3.869-5.374l54.373-14.809c2.41-.656 4.925.473 5.993 2.688l10.076 20.912c.758 1.573-.125 3.463-1.836 3.929h.001Z"/><path fill="#FDC5A6" d="M597.751 114.859c1.759-.479 2.813-2.275 2.355-4.012-.352-1.338-1.571-2.524-2.916-2.78-.461-.104-1.687-.702-2.9-2.253a4.013 4.013 0 0 0-4.388-1.597 4.095 4.095 0 0 0-3.014 3.612c-.288 1.961-1.056 3.102-1.405 3.427-1.039.905-1.511 2.551-1.158 3.889.457 1.737 2.254 2.757 4.012 2.278.734-.143 2.446-.734 3.422-1.959.134-.168.271-.306.41-.419a1.397 1.397 0 0 1 1.094-.298c.176.027.363.077.562.155 1.447.564 3.221.207 3.926-.043ZM584.327 106.166c.904 1.57.712 3.377-.431 4.035-1.142.658-2.801-.082-3.706-1.652-.905-1.571-.712-3.377.431-4.035 1.142-.658 2.801.082 3.706 1.652ZM595.688 103.072c-.011 1.819 1.044 3.286 2.357 3.275 1.313-.011 2.387-1.494 2.398-3.314.011-1.82-1.044-3.287-2.357-3.276-1.313.01-2.386 1.495-2.398 3.315ZM589.662 98.904c-.012 2.089 1.169 3.772 2.639 3.761 1.47-.012 2.672-1.715 2.685-3.804.013-2.089-1.168-3.772-2.638-3.76-1.47.012-2.673 1.715-2.686 3.803ZM587.495 99.495c1.038 1.802.843 3.86-.436 4.597-1.279.737-3.158-.127-4.196-1.929-1.038-1.803-.843-3.861.436-4.598 1.279-.737 3.158.127 4.196 1.93Z"/></g><g filter="url(#l)"><path fill="#6256EA" d="M177.136 212.755c-6.31 1.351-9.765 7.548-9.567 12.795.199 5.246 10.86 6.644 15.934 8.215 10.395 3.22 9.566 10.35 14.369 9.115 6.421-1.652 5.999-15.447 1.292-21.808a21.64 21.64 0 0 0-22.028-8.317Z"/><path fill="#DB66C3" d="M49.783 399.031a5.696 5.696 0 0 0 3.297.508c.165-.021.328-.057.486-.106a3.033 3.033 0 0 0 1.823-1.296c2.044-3.093-.703-10.076-.703-10.076l9.441-11.295s27.802-4.904 45.197-19.478l.005-.001.462-.393-18.153-16.548a53.903 53.903 0 0 1-16.047 13.86c-5.954 3.464-11.515 5.516-15.007 7.155l-.01.003c-.926.41-1.81.904-2.645 1.477a1.695 1.695 0 0 0-.13.102c-7.686 5.775-10.68 19.248-13.114 25.584-1.116 2.897 1.195 8.691 5.098 10.504Z"/><path fill="#C55CAF" d="M60.577 361.366c2.57 1.338 23.261 1.617 32.3-5.842a54.304 54.304 0 0 0-17.285-1.318 105.799 105.799 0 0 1-15.015 7.16Z" opacity=".812"/><path fill="#DB66C3" d="M177.217 337.684s.108.188.304.545c.66 1.166 2.324 4.127 4.492 7.949 1.287 2.257 2.753 4.822 4.287 7.489 5.308 9.217 11.497 19.748 14.325 23.685 4.221 5.886 14.056 11.004 19.979 13.558 1.896.819 5.92.606 9.361-.375a19.215 19.215 0 0 0 1.499-.489 10.578 10.578 0 0 0 3.14-1.707 3.7 3.7 0 0 0 1.15-1.532c.153-.416.18-.869.077-1.3-1.033-4.55-6.893-6.312-11.279-6.322-5.289-.005-13.557-10.797-13.557-10.797L197.84 339.49l-4.213-9.261-2.915 1.322-12.802 5.816-.693.317Z"/><path fill="#C55CAF" d="M177.521 338.228c1.046 1.857 4.642 8.251 8.779 15.439 5.2-3.356 8.47-9.553 10.75-15.303l-3.423-8.136-15.717 7.138c-.141.28-.269.569-.389.862Z" opacity=".812"/><path fill="#DB66C3" d="M14.35 403.553c.326.137.63.25.923.347l.006-.001c1.098.346 1.97.413 2.417.087.122-.089.243-.178.353-.271a5.913 5.913 0 0 0 1.947-2.512l.004-.007c1.814-4.756-5.044-9.984-5.044-9.984l8.774-15.056s24.547-13.078 36.843-14.792l.011-.003a21.936 21.936 0 0 1 1.625-.158c14.551-.794 24.255-7.001 24.255-7.001a.14.14 0 0 0 .064.028c.855.408 10.836 1.522 22.796 3.058l.005-.001c15.941 2.049 43.026 1.927 45.506 1.639.112-.023.175-.03.175-.03s17.325 22.917 30.409 34.646c6.309 5.656 12.322 9.557 17.302 10.046 2.221.215 6.82-.752 10.057-2.415.475-.242.936-.51 1.381-.803a6.04 6.04 0 0 0 1.77-1.729c.349-.525.48-1.166.363-1.785a4.897 4.897 0 0 0-.23-.805l-.001-.006c-1.893-5.267-10.385-3.19-10.385-3.19s-10.291-5.807-12.142-8.053c-3.495-4.261-15.706-29.559-16.23-31.056l.003-.018c-.059-.198-.098-.307-.098-.307s1.82-2.533 4.804-7.243a305.928 305.928 0 0 0 8.698-14.627c.155-.271.309-.542.463-.819 2.116-3.82 6.019-6.215 7.67-12.84.144-.578 5.919-.369 6.151-1.14 2.424-8.121 9.133-25.701 10.061-27.094 1.891-2.839 4.388-3.27 7.455-3.287 1.037-.009 2.136.028 3.299.034 4.244.033 9.334-.335 15.186-4.864 10.001-7.744 8.841-23.311 1.787-24.437-4.242-.675-8.648-2.408-14.576-5.353a26.22 26.22 0 0 1-.895-.464 23.179 23.179 0 0 1-9.796-9.871c-6.751-12.838-25.789-10.136-32.044-5.093-9.487 7.657-5.171 25.266-6.554 34.247-.692 4.502-3.903 9.445-8.212 14.013a65.894 65.894 0 0 1-6.947 6.33 71.101 71.101 0 0 1-4.189 3.078 66.869 66.869 0 0 1-3.619 2.301 75.162 75.162 0 0 1-12.795 5.85 91.091 91.091 0 0 1-3.924 1.296 88.624 88.624 0 0 1-19.626 3.709 69.519 69.519 0 0 1-6.855.153 51.775 51.775 0 0 1-15.685-2.709 95.157 95.157 0 0 0-2.745-.918 73.652 73.652 0 0 0-4.446-1.27c-5.005-1.266-8.917-1.642-12.079-1.494l-.006.001c-5.596.262-8.842 2.16-11.586 3.663-11.971 6.562-16.422 23.655-19.688 29.608-9.756 17.803-27.337 24.08-31.178 28.395-3.823 4.292-9.976 22.476-10.926 31.665-.308 2.988 5.804 7.628 9.938 9.312Z"/><path fill="#6256EA" d="M162.417 264.397c-5.754-2.921-7.508-9.796-5.973-14.817 1.535-5.021 12.199-3.643 17.506-3.863 10.873-.452 11.897-7.557 16.223-5.133 5.784 3.24 1.845 16.468-4.333 21.412a21.638 21.638 0 0 1-23.423 2.401ZM147.068 309.364a9.737 9.737 0 0 0 6.129 1.595c5.133-.388 9.504-5.278 9.312-10.422a10.004 10.004 0 0 0-2.938-6.546 67.92 67.92 0 0 1-3.619 2.302 75.235 75.235 0 0 1-12.795 5.849 9.306 9.306 0 0 0 3.911 7.222ZM119.392 316.332c1.993.81 4.231-.227 6.383-.208 2.624.015 4.945 1.57 7.287 2.741 2.348 1.175 5.289 1.966 7.495.544 3.046-1.962 2.553-6.583 1.11-9.911-.852-1.961-1.925-4.005-2.435-6.06a88.627 88.627 0 0 1-19.625 3.709 8.104 8.104 0 0 0-1.429 1.426c-1.854 2.4-1.6 6.62 1.214 7.759ZM99.64 315.187c3.474 1.972 8.04 1.781 10.854-.997a8.574 8.574 0 0 0 2.257-6.89 51.773 51.773 0 0 1-15.685-2.709 95.16 95.16 0 0 0-2.745-.918 8.97 8.97 0 0 0-.242 3.195 11.192 11.192 0 0 0 5.56 8.319Z"/><path fill="#FBF2EB" d="M221.362 286.251c7.873 1.776 13.782-.181 19.634-4.709 10.001-7.745 8.841-23.312 1.787-24.437-4.242-.676-8.648-2.409-14.576-5.353a26.249 26.249 0 0 1-.895-.465c-3.291 5.433-10.9 7.572-10.833 17.167.042 5.877 2.278 12.53 4.883 17.797Z"/><path fill="#6256EA" d="M79.512 306.107c1.1 1.35 1.414 3.276 2.725 4.431 1.497 1.321 3.955 1.125 5.514-.123 1.559-1.248 2.297-3.308 2.36-5.306a12.242 12.242 0 0 0-.235-2.706c-5.005-1.266-8.917-1.642-12.08-1.494l-.005.001a2.236 2.236 0 0 0-.819 1.528c-.094 1.531 1.566 2.48 2.54 3.669ZM163.759 290.913a3.445 3.445 0 0 0 2.126 2.306c1.842.614 3.782-.537 5.227-1.832 1.198-1.069 2.352-2.526 2.086-4.105a3.61 3.61 0 0 0-.702-1.449 3.605 3.605 0 0 0-1.26-1.002 4.543 4.543 0 0 0-.529-.248 66.013 66.013 0 0 1-6.948 6.33Z"/><path fill="#FBF2EB" d="M174.909 340.748a29.116 29.116 0 0 0 2.397 12.979 7.079 7.079 0 0 0-.095-.307s13.502-3.394 21.527-17.818c.484-.898.914-1.825 1.288-2.774.232-.572.931-1.349 3.122-1.995a7.307 7.307 0 0 0 3.77-2.4.65.65 0 0 0 .196-.657.65.65 0 0 0-.507-.462 8.033 8.033 0 0 1-2.256-.624c-1.538-.739-1.567-1.769-1.567-1.769a18.83 18.83 0 0 0 2.162-.53c2.653-.85 3.931-2.143 4.496-2.929a.624.624 0 0 0 .093-.531.631.631 0 0 0-.351-.409 8.724 8.724 0 0 1-4.194-4.018c-1.845-.305-4.933-2.016-8.468 1.406-3.553 3.44-3.823 7.05-7.439 12.861-4.033 6.481-7.301 9.648-14.174 9.977ZM86.532 354.233a65.908 65.908 0 0 0 21.262 7.122c16.496 2.454 43.933-1.161 47.475-2.118-2.026-2.327-3.549-4.8-5.264-10.988-20.46 4.743-38.356 5.237-58.06-1.625-.702-.259.132 2.629-5.413 7.609Z"/><path fill="#6256EA" d="M245.789 257.657c-1.272-3.46-12.052-1.787-13.826 1.435-1.685 3.063 7.457 8.181 9.484 8.002 1.8-.159 5.424-6.495 4.342-9.437Z"/><path fill="#6256EA" d="M237.329 276.794a4.388 4.388 0 0 1-2.078-.589 5.028 5.028 0 0 1-2.55-3.885.573.573 0 0 1 .539-.602.573.573 0 0 1 .602.54 3.86 3.86 0 0 0 1.973 2.953 3.038 3.038 0 0 0 2.965.099c2.331-1.224 2.2-2.616 1.912-5.664-.066-.704-.142-1.502-.189-2.377a.57.57 0 1 1 1.141-.062c.047.852.121 1.638.186 2.332.296 3.133.492 5.202-2.519 6.784a4.07 4.07 0 0 1-1.982.471Z"/><path fill="#6256EA" d="M244.541 275.369c-1.618-.034-3.3-1.297-3.748-3.914a.563.563 0 0 1 .094-.43.557.557 0 0 1 .372-.236.582.582 0 0 1 .429.099.584.584 0 0 1 .232.374c.377 2.203 1.806 3.144 3.027 2.935.76-.13 1.563-.775 1.325-2.164a.572.572 0 0 1 1.127-.193c.354 2.068-.923 3.256-2.259 3.484a3.162 3.162 0 0 1-.599.045Z"/><path fill="#FBF2EB" d="M216.872 248.854c.118 2.156-2.094 4.085.616 4.358l.012-.001c.398.04.798.048 1.197.026 3.261-.178 5.798-2.323 5.664-4.792-.135-2.468-2.891-4.324-6.152-4.146a7.895 7.895 0 0 0-1.196.157h-.004c-2.663.566-.255 2.243-.137 4.398Z"/><path fill="#6256EA" d="M212.543 249.091c.117 2.155 2.236 3.848 4.946 4.121l.012-.001a4.405 4.405 0 0 0 3.702-4.597 4.41 4.41 0 0 0-4.189-4.158h-.004c-2.663.566-4.585 2.48-4.467 4.635Z"/><path fill="#FBF2EB" d="M202.525 255.688c.118 2.155-2.093 4.084.616 4.357l.012-.001c.398.04.798.048 1.197.026 3.261-.178 5.798-2.323 5.664-4.791-.135-2.469-2.891-4.325-6.152-4.147a7.895 7.895 0 0 0-1.196.157h-.004c-2.663.567-.255 2.243-.137 4.399Z"/><path fill="#6256EA" d="M198.195 255.924c.117 2.156 2.237 3.848 4.946 4.121h.012a4.41 4.41 0 0 0 2.407-7.481 4.404 4.404 0 0 0-2.894-1.275h-.004c-2.663.567-4.585 2.48-4.467 4.635Z"/><path fill="#DB66C3" d="M72.67 306.751c-21.967-6.029-36.415-21.597-47.706-44.5-.393-.799-1.803-.566-1.685.278 2.987 21.349 11.742 33.939 34.225 49.623 1.991 1.389 4.997.34 7.27 1.14 2.272.799 6.028-4.021 7.897-6.541Z"/><path fill="#C55CAF" d="M198.418 275.315c4.096 6.022 10.384 10.976 16.638 14.344 1.892-2.84 4.389-3.271 7.455-3.288.005-.007.005-.007.01-.008-9.146-.824-14.874-2.455-24.103-11.048Z" opacity=".812"/><path fill="#6256EA" d="M113.689 324.55c2.517-.119 4.477-1.917 4.378-4.017-.099-2.1-2.22-3.706-4.737-3.588-2.517.119-4.477 1.918-4.378 4.018.099 2.099 2.22 3.706 4.737 3.587ZM64.705 356.021c2.517-.118 4.477-1.917 4.378-4.017-.1-2.1-2.22-3.706-4.737-3.587-2.517.118-4.477 1.917-4.378 4.017.099 2.1 2.22 3.706 4.737 3.587ZM56.743 348.195c-1.448-.685-3.224-.278-4.55.622a13.931 13.931 0 0 0-3.235 3.519c-.723.995-1.485 2.161-1.215 3.361.357 1.586 2.307 2.246 3.928 2.131a7.105 7.105 0 0 0 5.596-3.28c1.143-1.937 1.604-5.345-.524-6.353ZM228.713 381.535a11.198 11.198 0 0 1 5.891 6.804 3.7 3.7 0 0 0 1.15-1.532 6.497 6.497 0 0 0-2.554-3.485 11.955 11.955 0 0 0-4.487-1.787ZM224.347 384.492a11.092 11.092 0 0 1 5.618 6.043c.518-.148 1.022-.31 1.499-.489a6.454 6.454 0 0 0-2.625-3.774 11.972 11.972 0 0 0-4.492-1.78ZM209.277 393.674a11.11 11.11 0 0 1 6.652 4.967c.35-.525.48-1.166.363-1.785a4.893 4.893 0 0 0-.229-.805l-.002-.006a7.203 7.203 0 0 0-2.044-1.43 12.017 12.017 0 0 0-4.74-.941ZM206.225 396.35a11.11 11.11 0 0 1 6.553 4.823c.476-.242.937-.51 1.382-.803a6.528 6.528 0 0 0-3.195-3.079 12.032 12.032 0 0 0-4.74-.941ZM53.567 399.433a3.031 3.031 0 0 0 1.823-1.297 6.342 6.342 0 0 0-.047-1.28 10.84 10.84 0 0 0-1.6-4.043c.709 2.161.647 4.5-.176 6.62ZM49.784 399.031c.445.216.917.372 1.403.465a5.85 5.85 0 0 0 .644-3.687 10.942 10.942 0 0 0-1.601-4.043 9.909 9.909 0 0 1-.446 7.265ZM18.05 403.715a5.913 5.913 0 0 0 1.946-2.512l.005-.007a6.621 6.621 0 0 0-.343-1.926 10.987 10.987 0 0 0-2.356-3.713 10.42 10.42 0 0 1 .747 8.158ZM14.35 403.553c.326.137.63.25.924.347l.005-.001a.982.982 0 0 0 .484-.345 5.963 5.963 0 0 0 .221-4.551 10.795 10.795 0 0 0-2.356-3.713 10.448 10.448 0 0 1 .722 8.263Z"/></g><g filter="url(#m)"><path fill="#E5755E" d="M601.351 404.681c2.328 1.018 4.831 1.499 7.364 1.499 7.98 0 16.25-4.756 20.304-12.466 4.453-8.481 4.021-19.872-1.136-29.74-1.393-2.674-3.047-5.141-4.644-7.518-1.354-2.026-2.631-3.929-3.745-5.932a30.966 30.966 0 0 1-1.643-3.385 21.23 21.23 0 0 1-1.047-3.314c-.471-2.084-.511-4.021-.112-5.789.237-1.064.737-2.125 1.416-3.063 1.393-1.934 3.547-3.32 5.694-3.007 1.996.293 3.85-1.103 4.14-3.109a3.67 3.67 0 0 0-3.093-4.163c-7.578-1.103-13.838 5.23-15.294 11.728-1.199 5.358-.007 11.319 3.56 17.702 1.258 2.262 2.681 4.387 4.061 6.439 1.558 2.325 3.023 4.518 4.238 6.837 2.042 3.906 3.159 8.068 3.34 12.054.102 2.153-.072 4.258-.527 6.237v.007a19.043 19.043 0 0 1-1.676 4.591c-.125.23-.254.464-.389.688-3.754 6.327-11.935 9.577-17.91 6.972a3.65 3.65 0 0 0-4.808 1.907 3.685 3.685 0 0 0 1.9 4.835l.007-.01Z"/><path fill="#E5755E" d="M617.273 348.565s.201-.656.58-1.43a21.334 21.334 0 0 1-1.048-3.313c-.47-2.085-.51-4.021-.112-5.79.238-1.064.738-2.124 1.417-3.063-1.542 1.387-2.536 3.399-2.767 5.467-.471 4.259 1.93 8.132 1.93 8.132v-.003ZM622.302 393.338s3.317-2.154 4.048-7.298c.326-2.295-.185-4.765-1.591-6.593.102 2.154-.072 4.258-.527 6.238v.006a19.027 19.027 0 0 1-1.676 4.591 17.14 17.14 0 0 1-.389.688c.422 1.232.135 2.368.135 2.368Z"/><path fill="#FF8268" d="M524.112 319.23c-7.522.24-8.075 10.954-8.075 10.954s.576 2.259.724 2.157c.043-.03.336-.056.722-.089.892-.062 2.308-.122 2.414-.191.8-.563 6.372-.402 8.306-1.169.049-.02.161-2.355.161-2.355s22.28 10.994 25.303 8.385c2.303-1.986-2.47-14.553-2.47-14.553s-21.206-3.333-27.085-3.142v.003Z"/><path fill="#FDC5A6" d="M528.202 330.892c-.306 6.501-.626 8.863-3.277 9.327-.355.066-1.189-1.759-1.633-1.759-.228 0-.014 1.845-.231 1.831-1.149-.075-2.15-.339-3.01-.754-.336-.165-.873-1.996-1.166-2.2-.293-.204-.346 1.219-.599.975-2.082-2.002-2.76-5.197-2.253-8.128 1.12-1.68 8.332-1.298 12.166.711l.003-.003Z"/><path fill="#6256EA" d="M520.053 339.537a6.747 6.747 0 0 1-1.765-1.228c-.201-2.171.728-3.913 1.13-4.427-.359 2.391-.191 4.104.632 5.655h.003ZM524.928 340.219a6.595 6.595 0 0 1-1.195.092c-.228 0-.455-.009-.672-.023-1.502-3.112-.063-5.75.504-6.395-.32 2.68.059 4.554 1.363 6.323v.003Z"/><path fill="#FF8268" d="M539.707 404.463c.197.014 2.545 1.505 2.743 1.525 1.077.092 1.515 3.705 7.295 3.6 7.094-.142 15.446-.01 16.675-.056 3.504-.129 7.614-22.919 2.226-31.367-4.268-6.688-6.854-10.838-17.689-9.162-5.579.863-10.822 16.359 5.177 31.37-1.805-.158-8.974-.464-13.305 0-5.421.58-3.32 4.067-3.122 4.087v.003Z"/><path fill="#FDC5A6" d="M533.096 408.277c.04.293.663-.441.735-.158.349.059.145 1.127.491 1.182.675.093 1.343.182 2.015.251.204.023.774-1.347.972-1.327.197.013.02 1.426.217 1.445 1.077.093 6.435.023 12.219-.082-.662-1.89-1.357-3.787-2.572-5.516-1.031-1.466-2.48-2.816-4.344-3.696-5.421.58-10.546 2.5-9.733 7.905v-.004Z"/><path fill="#6256EA" d="M533.096 408.281s.085.342.428.655c.392.359.8.366.8.366s-.023-2.405.929-4.028c.846-1.163 1.344-1.551 3.106-2.592-.797-.086-2.25.326-3.538 1.307-1.597 1.216-1.722 4.288-1.722 4.288l-.003.004ZM535.728 409.486c.395.046 1.403.148 1.798.185 0-1.535.448-2.329.936-3.027.309-.55 1.373-1.611 3.132-2.651-1.13.138-3.116.77-3.877 1.557-1.36 1.403-1.686 2.546-1.989 3.936Z"/><path fill="#E5755E" d="m565.815 408.87 5.56.679s-8.906-22.583-20.423-29.822c.991 11.998 14.86 29.14 14.86 29.14l.003.003Z"/><path fill="#FF8268" d="M601.945 409.4c-1.024 1.354-17.741 0-17.741 0s.998-27.203-20.739-39.392c-9.169-5.134-12.054-6.412-14.834-11.198-6.135-10.558-8.098-41.105-8.098-41.105s1.867-7.92 3.705-11.484c.491-1.847 29.101-9.594 29.101-9.594s.24.867.685 2.329c.085.277.257 1.703.629 3.949.128.754-3.238 3.82-3.06 4.749.178.925 3.896-.287 4.133.787 1.426 6.448 4.008 15.331 8.721 23.94 13.487 24.638 37.815 50.195 17.502 77.023l-.004-.004Z"/><path fill="#E5755E" d="M575.724 308.438c-8.497 2.717-20.334 4.37-30.412-.261 8.23 1.584 21.012-.836 29.338-5.276.257 1.509.599 3.386 1.074 5.537Z"/><path fill="#FDC5A6" d="M544.768 369.395c7.097 16.375 25.244 38.339 25.244 38.339s11.033 2.47 23.218 2.167c-3.451-23.06-14.813-24.674-31.254-64.445-5.019-12.14-6.999-16.412-9.021-24.53-1.913-7.703-8.191-9.962-12.195-3.903-.521.788-6.982 27.023 4.008 52.369v.003Z"/><path fill="#FF8268" d="M528.421 283.573c.024-.494 1.835-.409 2.275-2.119 3.07-11.964 14.341-20.547 27.345-19.943 13 .603 23.425 10.199 25.372 22.397.278 1.744 4.278 1.455 3.932 2.307-1.366 3.344-3.439 4.238-3.439 4.238s-5.528 20.494-28.357 19.433c-21.923-1.204-24.891-21.006-24.891-21.006s-2.367-2.429-2.233-5.31l-.004.003Z"/><path fill="#FF8268" d="M528.775 279.586c.017-.414 3.473-.317 3.888-1.745 2.895-9.991 12.382-15.381 25.377-14.689 12.992.693 21.566 7.244 23.686 17.503.302 1.467 6.269 1.282 5.935 1.991-1.316 2.785-3.373 3.505-3.373 3.505s-5.228 17.11-28.043 15.894c-21.913-1.325-25.161-17.976-25.161-17.976s-2.398-2.071-2.306-4.486l-.003.003Z"/><path fill="#FBF2EB" d="M541.617 279.854s-3.406-3.647-.134-3.205c.372.048.722.137 1.048.258 3.032 1.073 4.354 4.665 4.354 4.665s-2.716 3.324-6.49 2.757a4.57 4.57 0 0 1-1.858-.737c-2.105-1.387 3.08-3.735 3.08-3.735v-.003Z"/><path fill="#6256EA" d="M535.306 279.457s2.905-3.248 6.178-2.808c.372.048.722.137 1.047.258.89.909 1.34 2.175 1.105 3.46-.406 2.221-2.686 3.663-5.095 3.223-2.105-1.387-3.235-4.133-3.235-4.133Z"/><path fill="#FBF2EB" d="M558.647 282.017s-3.406-3.648-.134-3.206a4.87 4.87 0 0 1 1.048.258c3.032 1.073 4.354 4.665 4.354 4.665s-2.716 3.324-6.49 2.757a4.568 4.568 0 0 1-1.858-.736c-2.105-1.387 3.08-3.736 3.08-3.736v-.002Z"/><path fill="#6256EA" d="M552.336 281.62s2.905-3.248 6.178-2.809c.372.049.722.138 1.047.258.89.91 1.34 2.176 1.105 3.461-.406 2.22-2.686 3.663-5.095 3.223-2.105-1.388-3.235-4.133-3.235-4.133ZM536.778 289.055a.66.66 0 0 0 .621-.695.66.66 0 0 0-.677-.641.659.659 0 0 0-.62.695.66.66 0 0 0 .676.641ZM539.959 287.21a.659.659 0 0 0 .62-.695.66.66 0 0 0-.677-.641.659.659 0 0 0-.62.695.66.66 0 0 0 .677.641ZM539.669 290.437a.658.658 0 0 0 .62-.695.659.659 0 0 0-.676-.641.659.659 0 0 0-.62.695.659.659 0 0 0 .676.641Z"/><path fill="#FF8268" d="M561.347 403.759c.234.016 3.04 1.838 3.274 1.861 1.284.112 1.808 4.518 8.707 4.387 8.464-.175 18.437-.014 19.902-.066 4.183-.155 9.09-27.942 2.658-38.237-5.095-8.154-7.822-10.73-20.758-8.688-6.659 1.054-9.492 20.446 5.826 35.763-2.154-.191-10.714-.566-15.881 0-6.468.705-3.962 4.96-3.728 4.983v-.003Z"/><path fill="#FDC5A6" d="M553.464 408.413c.046.359.79-.537.876-.191.415.072.171 1.373.586 1.439.807.112 1.604.22 2.404.303.244.029.926-1.644 1.159-1.621.234.017.023 1.739.257 1.762 1.285.112 7.684.03 14.58-.102-.79-2.305-1.62-4.617-3.069-6.725-1.229-1.785-2.961-3.435-5.184-4.505-6.468.705-12.584 3.046-11.613 9.636l.004.004Z"/><path fill="#6256EA" d="M553.459 408.416s.102.418.511.8c.467.438.951.445.951.445s-.026-2.931 1.107-4.908c1.008-1.419 1.604-1.89 3.705-3.158-.952-.105-2.684.399-4.222 1.594-1.907 1.482-2.055 5.227-2.055 5.227h.003ZM556.598 409.881c.471.056 1.676.181 2.144.224 0-1.874.534-2.839 1.113-3.692.369-.668 1.637-1.963 3.738-3.231-1.35.172-3.718.939-4.624 1.897-1.62 1.713-2.009 3.106-2.374 4.799l.003.003Z"/><path fill="#E5755E" d="M595.889 409.96h3.88s4.216-13.704-.751-32.522c1.337 23.373-3.129 32.522-3.129 32.522Z"/><path fill="#6256EA" d="M557.706 291.081a.658.658 0 0 0 .62-.695.66.66 0 0 0-.676-.641.658.658 0 0 0-.62.695.659.659 0 0 0 .676.641ZM554.381 289.51a.66.66 0 0 0 .621-.696.66.66 0 0 0-.677-.64.659.659 0 0 0-.62.695.66.66 0 0 0 .676.641ZM554.94 292.698a.66.66 0 0 0 .62-.696.658.658 0 0 0-.676-.64.66.66 0 0 0-.621.695.66.66 0 0 0 .677.641Z"/><path fill="#FF8268" d="M572.934 283.266c.303.8 1.195 1.199 1.946.87 2.78-1.226 8.895-4.476 11-10.065a159.232 159.232 0 0 1 3.939-9.449c.431-.948-.264-2.071-1.308-2.111a154.677 154.677 0 0 1-5.401-.319c-9.347-.685-13.993 3.102-15.528 4.719a1.45 1.45 0 0 0-.287 1.515l5.635 14.84h.004ZM547.907 263.713c.411-.54.457-1.396.095-1.867-1.334-1.749-4.594-5.388-8.385-4.973a72.214 72.214 0 0 1-6.491.398c-.659.01-1.179.981-.978 1.825.234.971.556 2.394.978 4.403 1.614 7.674 4.881 9.946 6.175 10.562.316.151.692.02.965-.339l7.634-10.006.007-.003Z"/><path fill="#FDC5A6" d="M579.234 277.351a.961.961 0 0 0 1.548.267c1.206-1.206 3.113-3.412 3.735-5.81.557-2.154 1.245-3.642 1.802-4.604.415-.711-.073-1.607-.896-1.66a24.54 24.54 0 0 0-3.722.053c-3.899.342-6.936 2.124-8.424 3.178a.969.969 0 0 0-.056 1.541c.961.794 2.49 2.144 3.823 3.686a15.46 15.46 0 0 1 2.194 3.342l-.004.007Z"/><path fill="#FF8268" d="M547.722 289.695c-.07 1.076-.145 2.163-.445 3.204-.478 1.653-1.136 3.978-3.903 3.478-1.554-.28-2.411-1.91-2.256-2.981"/><path fill="#6256EA" d="M543.455 298.228c-.254 0-.527-.026-.82-.079-1.756-.316-2.836-2.111-2.632-3.504a.464.464 0 1 1 .919.135c-.122.82.567 2.216 1.881 2.457 2.167.392 2.789-1.117 3.369-3.129.299-1.038.369-2.147.434-3.126a.465.465 0 0 1 .929.063c-.066 1.028-.141 2.19-.461 3.303-.431 1.499-1.12 3.883-3.613 3.883l-.006-.003Z"/><path fill="#FF8268" d="M547.864 289.721c-.194 1.064-.511 2.305-.464 3.55.085 2.302 1.291 4.305 4.064 4.305 1.897 0 3.448-1.456 3.537-2.533"/><path fill="#6256EA" d="M550.805 299.354c-2.684 0-4.419-1.821-4.528-4.749-.04-1.063.168-2.111.352-3.036.043-.211.083-.415.119-.613a.463.463 0 1 1 .912.168c-.036.204-.079.412-.122.626-.174.876-.372 1.867-.336 2.822.043 1.16.481 3.857 3.6 3.857 1.653 0 3.004-1.278 3.076-2.108a.465.465 0 0 1 .926.076c-.116 1.367-1.888 2.957-3.999 2.957Z"/><path fill="#6256EA" d="m546.225 292.731-2.622-5.388a.797.797 0 0 1 .837-1.136l6.735 1.031a.795.795 0 0 1 .457 1.334l-4.113 4.36a.8.8 0 0 1-1.298-.197l.004-.004Z"/><path fill="#E5755E" d="M548.029 339.508s25.804 7.657 26.374-3.686c.165-3.326-.636-6.616-1.436-9.85 1.126 5.714 4.884 11.777 1.808 17.043-3.379 5.787-11.221 3.741-14.257 2.77-5.978-1.917-12.489-6.277-12.489-6.277Z"/><path fill="#FF8268" d="M537.344 326.416c-8.141.267-8.741 12.008-8.741 12.008s.623 2.477.784 2.365c.046-.033.362-.063.781-.096.968-.069 2.499-.132 2.611-.211.866-.615 6.897-.441 8.991-1.281.056-.023.175-2.582.175-2.582s18.614 12.364 28.781 7.806c7.199-3.228 3.883-14.198 3.883-14.198s-30.905-4.025-37.268-3.817l.003.006Z"/><path fill="#FDC5A6" d="M541.775 339.205c-.329 7.13-.678 9.719-3.544 10.226-.382.072-1.287-1.93-1.768-1.93-.247 0-.017 2.022-.25 2.009-1.242-.083-2.329-.372-3.258-.827-.365-.178-.942-2.19-1.261-2.414-.32-.224-.376 1.334-.649 1.067-2.253-2.193-2.987-5.698-2.437-8.912 1.212-1.841 9.017-1.419 13.167.781Z"/><path fill="#6256EA" d="M532.952 348.683a7.412 7.412 0 0 1-1.911-1.347c-.214-2.378.788-4.291 1.226-4.854-.386 2.621-.208 4.502.685 6.198v.003ZM538.228 349.43a6.94 6.94 0 0 1-1.294.103c-.247 0-.491-.01-.725-.023-1.627-3.416-.066-6.304.547-7.012-.346 2.938.063 4.996 1.475 6.932h-.003Z"/></g><defs><clipPath id="a"><path fill="#fff" d="M214.516.53h363.035V347H214.516z"/></clipPath><clipPath id="c"><path fill="#fff" d="m323.395 285.966-73.664-11.395-10.157 21.885 73.663 11.395z"/></clipPath><clipPath id="d"><path fill="#fff" d="m439.132 291.765-40.924-6.33-15.11 32.553 40.925 6.33z"/></clipPath><clipPath id="e"><path fill="#fff" d="m405.397 54.387-17.15-2.653-9.297 20.033 17.149 2.653z"/></clipPath><clipPath id="g"><rect width="335.428" height="211.195" fill="#fff" rx="11.043" transform="matrix(-.421 .90706 -.98825 -.15287 572.257 33.295)"/></clipPath><filter id="b" width="353.578" height="344.49" x="224.859" y="2.659" color-interpolation-filters="sRGB" filterUnits="userSpaceOnUse"><feFlood flood-opacity="0" result="BackgroundImageFix"/><feColorMatrix in="SourceAlpha" result="hardAlpha" values="0 0 0 0 0 0 0 0 0 0 0 0 0 0 0 0 0 0 127 0"/><feOffset dx="2.761" dy="2.761"/><feGaussianBlur stdDeviation="2.761"/><feComposite in2="hardAlpha" operator="out"/><feColorMatrix values="0 0 0 0 0 0 0 0 0 0 0 0 0 0 0 0 0 0 0.25 0"/><feBlend in2="BackgroundImageFix" result="effect1_dropShadow_2999_16366"/><feBlend in="SourceGraphic" in2="effect1_dropShadow_2999_16366" result="shape"/></filter><filter id="i" width="85" height="83.865" x="426" y="333.87" color-interpolation-filters="sRGB" filterUnits="userSpaceOnUse"><feFlood flood-opacity="0" result="BackgroundImageFix"/><feColorMatrix in="SourceAlpha" result="hardAlpha" values="0 0 0 0 0 0 0 0 0 0 0 0 0 0 0 0 0 0 127 0"/><feOffset dx="-1" dy="-1"/><feGaussianBlur stdDeviation="4"/><feComposite in2="hardAlpha" operator="out"/><feColorMatrix values="0 0 0 0 0 0 0 0 0 0 0 0 0 0 0 0 0 0 0.12 0"/><feBlend in2="BackgroundImageFix" result="effect1_dropShadow_2999_16366"/><feBlend in="SourceGraphic" in2="effect1_dropShadow_2999_16366" result="shape"/></filter><filter id="k" width="80.41" height="64.264" x="552.593" y="68.786" color-interpolation-filters="sRGB" filterUnits="userSpaceOnUse"><feFlood flood-opacity="0" result="BackgroundImageFix"/><feColorMatrix in="SourceAlpha" result="hardAlpha" values="0 0 0 0 0 0 0 0 0 0 0 0 0 0 0 0 0 0 127 0"/><feOffset/><feGaussianBlur stdDeviation="1.454"/><feComposite in2="hardAlpha" operator="out"/><feColorMatrix values="0 0 0 0 0 0 0 0 0 0 0 0 0 0 0 0 0 0 0.17 0"/><feBlend in2="BackgroundImageFix" result="effect1_dropShadow_2999_16366"/><feBlend in="SourceGraphic" in2="effect1_dropShadow_2999_16366" result="shape"/></filter><filter id="l" width="262.969" height="262.969" x="-2.479" y="181.732" color-interpolation-filters="sRGB" filterUnits="userSpaceOnUse"><feFlood flood-opacity="0" result="BackgroundImageFix"/><feColorMatrix in="SourceAlpha" result="hardAlpha" values="0 0 0 0 0 0 0 0 0 0 0 0 0 0 0 0 0 0 127 0"/><feOffset dx="2.211" dy="4.422"/><feGaussianBlur stdDeviation="2.845"/><feComposite in2="hardAlpha" operator="out"/><feColorMatrix values="0 0 0 0 0 0 0 0 0 0 0 0 0 0 0 0 0 0 0.12 0"/><feBlend in2="BackgroundImageFix" result="effect1_dropShadow_2999_16366"/><feBlend in="SourceGraphic" in2="effect1_dropShadow_2999_16366" result="shape"/></filter><filter id="m" width="192.378" height="192.378" x="479.998" y="241.733" color-interpolation-filters="sRGB" filterUnits="userSpaceOnUse"><feFlood flood-opacity="0" result="BackgroundImageFix"/><feColorMatrix in="SourceAlpha" result="hardAlpha" values="0 0 0 0 0 0 0 0 0 0 0 0 0 0 0 0 0 0 127 0"/><feOffset dx="2.211" dy="4.422"/><feGaussianBlur stdDeviation="8.845"/><feComposite in2="hardAlpha" operator="out"/><feColorMatrix values="0 0 0 0 0 0 0 0 0 0 0 0 0 0 0 0 0 0 0.1 0"/><feBlend in2="BackgroundImageFix" result="effect1_dropShadow_2999_16366"/><feBlend in="SourceGraphic" in2="effect1_dropShadow_2999_16366" result="shape"/></filter><linearGradient id="f" x1="0" x2="211.195" y1="335.428" y2="0" gradientUnits="userSpaceOnUse"><stop stop-color="#fff" stop-opacity=".33"/><stop offset=".39" stop-color="#fff" stop-opacity=".2"/><stop offset="1" stop-color="#fff" stop-opacity="0"/></linearGradient><linearGradient id="h" x1="0" x2="44.172" y1=".345" y2="30.713" gradientUnits="userSpaceOnUse"><stop stop-color="#F3F4F8"/><stop offset="1" stop-color="#F8F8FF"/></linearGradient></defs>
  </g>
</svg>