<svg xmlns="http://www.w3.org/2000/svg" width="75" height="66" viewBox="0 0 75 66" fill="none">

  <style>
    /* ── Gentle float ── */
    @keyframes float {
      0%,100% { transform: translateY(0px); }
      50%      { transform: translateY(-6px); }
    }
    /* ── Breathing ── */
    @keyframes breathe {
      0%,100% { transform: scale(1); }
      50%      { transform: scale(1.04); }
    }
    /* ── Wiggle ── */
    @keyframes wiggle {
      0%,100% { transform: rotate(0deg); }
      20%     { transform: rotate(8deg); }
      60%     { transform: rotate(-6deg); }
    }
    /* ── Blink ── */
    @keyframes blink {
      0%,90%,100% { transform: scaleY(1); }
      95%          { transform: scaleY(0.08); }
    }
    /* ── Tail wag ── */
    @keyframes tailwag {
      0%,100% { transform: rotate(0deg); }
      30%     { transform: rotate(14deg); }
      70%     { transform: rotate(-10deg); }
    }
    /* ── Bounce ── */
    @keyframes bounce {
      0%,100% { transform: translateY(0); }
      40%     { transform: translateY(-8px); }
      60%     { transform: translateY(-4px); }
    }
    /* Apply to root group */
    .char-root {
      animation: float 3.2s ease-in-out infinite;
      transform-origin: center bottom;
    }
    .char-body {
      animation: breathe 2.8s ease-in-out infinite;
      transform-origin: center center;
    }
    .char-ear-l {
      animation: wiggle 2.6s ease-in-out infinite;
      transform-origin: bottom center;
    }
    .char-ear-r {
      animation: wiggle 2.6s ease-in-out infinite reverse;
      transform-origin: bottom center;
    }
    .char-eye-l {
      animation: blink 4s ease-in-out infinite;
      transform-origin: center center;
    }
    .char-eye-r {
      animation: blink 4s ease-in-out infinite;
      transform-origin: center center;
      animation-delay: 0.1s;
    }
    .char-tail {
      animation: tailwag 2s ease-in-out infinite;
      transform-origin: left center;
    }
  </style>

  <g class="char-root" id="fizz_head">

  <path d="M15.411 33.0934C14.841 33.94 13.6951 34.1594 12.9142 33.5723C10.0211 31.3946 3.80451 25.959 2.881 18.8988C2.24253 14.019 1.41593 9.55824 0.877219 6.85898C0.634941 5.64189 1.74657 4.52457 2.96651 4.76114C4.37457 5.03478 6.42966 5.40246 9.32274 5.86137C20.3592 7.60577 24.7231 13.2694 26.0684 15.561C26.3991 16.1226 26.3677 16.8352 25.9886 17.3995L15.411 33.0963V33.0934Z" fill="#FF8268"/>
  <path d="M15.5965 31.1066C15.2602 31.6852 14.5105 31.785 13.9633 31.3204C11.9339 29.6016 7.53294 25.3689 6.56668 20.244C5.8997 16.7039 5.12442 13.4517 4.63131 11.4821C4.40898 10.5956 5.09306 9.84884 5.91396 10.0854C6.86312 10.3562 8.24553 10.7267 10.1895 11.2084C17.6032 13.0412 20.787 17.3424 21.7931 19.0611C22.0411 19.4829 22.0554 19.9932 21.8302 20.3779L15.5965 31.1094V31.1066Z" fill="#FDC5A6"/>
  <path d="M60.8741 32.8483C61.6442 33.5154 62.8082 33.4279 63.4095 32.6576C65.6316 29.7974 70.2079 22.9242 69.2514 15.8702C68.5891 10.9946 68.2187 6.47129 68.0326 3.72453C67.9489 2.48648 66.5827 1.7002 65.4663 2.24697C64.1792 2.87861 62.2935 3.77145 59.619 4.97137C49.4252 9.54434 46.6927 16.1534 45.9968 18.7153C45.826 19.3439 46.0427 20.0244 46.5552 20.4681L60.8712 32.8481L60.8741 32.8483Z" fill="#FF8268"/>
  <path d="M60.1768 30.9802C60.6528 31.4492 61.4 31.3501 61.8079 30.7571C63.3175 28.5686 66.4567 23.3295 66.0464 18.133C65.7645 14.5392 65.6601 11.1987 65.6187 9.16891C65.6005 8.25438 64.7474 7.7144 64.0153 8.15537C63.1714 8.66357 61.9334 9.38544 60.1836 10.3591C53.5067 14.0709 51.5609 19.0535 51.0396 20.9757C50.9114 21.4478 51.03 21.9449 51.3484 22.2568L60.1739 30.9799L60.1768 30.9802Z" fill="#FDC5A6"/>
  <path d="M0.0592044 38.4157C0.0335514 37.8504 4.04967 37.6528 4.40596 35.6525C6.9114 21.6557 19.9174 10.6772 36.0503 10.0214C52.186 9.3656 66.1042 19.252 69.8238 32.9964C70.354 34.961 75.268 34.2174 74.9316 35.2272C73.6062 39.1922 71.1407 40.427 71.1407 40.427C71.1407 40.427 66.5175 64.4282 38.1852 65.5779C10.9589 66.4724 5.15559 44.145 5.15559 44.145C5.15559 44.145 0.201721 41.7194 0.0592044 38.4129V38.4157Z" fill="#FF8268"/>
  <path d="M1.44641 33.0151C1.42181 32.5459 5.27185 32.3819 5.6134 30.7216C12.8052 19.5451 20.4834 12.5564 35.9491 12.012C51.4176 11.4677 58.8943 20.5878 68.326 28.5169C68.8343 30.1477 73.545 29.5304 73.2226 30.3686C71.952 33.6597 69.5884 34.6846 69.5884 34.6846C69.5884 34.6846 65.1564 54.6066 37.9957 55.5609C11.8953 56.3034 6.33204 37.7707 6.33204 37.7707C6.33204 37.7707 1.58303 35.7573 1.44641 33.0128V33.0151Z" fill="#FF8268"/>
  <path d="M48.6716 44.2562C48.6947 43.816 48.3681 43.441 47.9421 43.4186C47.5161 43.3962 47.152 43.7349 47.1288 44.1751C47.1057 44.6152 47.4323 44.9902 47.8583 45.0126C48.2843 45.035 48.6484 44.6963 48.6716 44.2562Z" fill="#6256EA"/>
  <path d="M44.8994 42.0216C44.9225 41.5814 44.5959 41.2064 44.1699 41.184C43.7439 41.1616 43.3798 41.5003 43.3566 41.9404C43.3335 42.3806 43.66 42.7556 44.0861 42.778C44.5121 42.8004 44.8762 42.4617 44.8994 42.0216Z" fill="#6256EA"/>
  <path d="M45.207 45.8637C45.2301 45.4236 44.9035 45.0486 44.4775 45.0262C44.0515 45.0038 43.6874 45.3424 43.6642 45.7826C43.6411 46.2228 43.9677 46.5977 44.3937 46.6202C44.8197 46.6426 45.1838 46.3039 45.207 45.8637Z" fill="#6256EA"/>
  <path d="M26.5776 44.9874C27.0036 44.965 27.3302 44.59 27.3071 44.1498C27.2839 43.7097 26.9198 43.371 26.4938 43.3934C26.0678 43.4158 25.7412 43.7908 25.7643 44.231C25.7875 44.6711 26.1516 45.0098 26.5776 44.9874Z" fill="#6256EA"/>
  <path d="M30.3505 42.7485C30.7766 42.7261 31.1032 42.3511 31.08 41.9109C31.0569 41.4708 30.6927 41.1321 30.2667 41.1545C29.8407 41.1769 29.5141 41.5519 29.5373 41.992C29.5604 42.4322 29.9245 42.7709 30.3505 42.7485Z" fill="#6256EA"/>
  <path d="M30.0456 46.5957C30.4716 46.5732 30.7982 46.1983 30.7751 45.7581C30.7519 45.3179 30.3878 44.9793 29.9618 45.0017C29.5358 45.0241 29.2092 45.399 29.2323 45.8392C29.2555 46.2794 29.6196 46.6181 30.0456 46.5957Z" fill="#6256EA"/>
  <path d="M31.4239 32.2787C31.4239 32.2787 28.7015 37.7934 24.4457 38.2248C23.9646 38.2745 23.4972 38.2621 23.0517 38.1969C18.9189 37.6445 16.2239 32.9274 16.2239 32.9274C16.2239 32.9274 18.7003 27.2823 23.623 26.8727C24.5113 26.7951 25.3778 26.9813 26.1759 27.3258C29.2263 28.6292 31.4211 32.2787 31.4211 32.2787H31.4239Z" fill="#FBF2EB"/>
  <mask id="mask0_2815_13949" style="mask-type:alpha" maskUnits="userSpaceOnUse" x="15" y="26" width="17" height="13">
    <path d="M31.7718 32.2475C31.7718 32.2475 28.9329 37.7305 24.4949 38.1594C23.9933 38.2087 23.5059 38.1964 23.0413 38.1316C18.7316 37.5824 15.9211 32.8924 15.9211 32.8924C15.9211 32.8924 18.5035 27.2799 23.637 26.8726C24.5633 26.7955 25.4669 26.9806 26.2992 27.3231C29.4802 28.619 31.769 32.2475 31.769 32.2475H31.7718Z" fill="#FBF2EB"/>
  </mask>
  <g mask="url(#mask0_2815_13949)">
    <path d="M23.8483 34.8904C26.7999 34.8904 29.1926 32.3555 29.1926 29.2285C29.1926 26.1016 26.7999 23.5667 23.8483 23.5667C20.8967 23.5667 18.5039 26.1016 18.5039 29.2285C18.5039 32.3555 20.8967 34.8904 23.8483 34.8904Z" fill="#6256EA"/>
  </g>
  <path d="M58.3262 32.2787C58.3262 32.2787 55.6038 37.7934 51.3481 38.2248C50.867 38.2745 50.3996 38.2621 49.9541 38.1969C45.8213 37.6445 43.1262 32.9274 43.1262 32.9274C43.1262 32.9274 45.6026 27.2823 50.5253 26.8727C51.4137 26.7951 52.2801 26.9813 53.0782 27.3258C56.1286 28.6292 58.3235 32.2787 58.3235 32.2787H58.3262Z" fill="#FBF2EB"/>
  <mask id="mask1_2815_13949" style="mask-type:alpha" maskUnits="userSpaceOnUse" x="42" y="26" width="17" height="13">
    <path d="M58.6742 32.2475C58.6742 32.2475 55.8352 37.7305 51.3973 38.1594C50.8956 38.2087 50.4082 38.1964 49.9436 38.1316C45.6339 37.5824 42.8235 32.8924 42.8235 32.8924C42.8235 32.8924 45.4059 27.2799 50.5393 26.8726C51.4657 26.7955 52.3692 26.9806 53.2015 27.3231C56.3825 28.619 58.6713 32.2475 58.6713 32.2475H58.6742Z" fill="#FBF2EB"/>
  </mask>
  <g mask="url(#mask1_2815_13949)">
    <path d="M50.7506 34.8904C53.7022 34.8904 56.095 32.3555 56.095 29.2285C56.095 26.1016 53.7022 23.5667 50.7506 23.5667C47.799 23.5667 45.4062 26.1016 45.4062 29.2285C45.4062 32.3555 47.799 34.8904 50.7506 34.8904Z" fill="#6256EA"/>
  </g>
  <path d="M36.7437 58.0803C38.6325 58.0803 40.1637 56.0387 40.1637 53.5203C40.1637 51.0019 38.6325 48.9603 36.7437 48.9603C34.8549 48.9603 33.3237 51.0019 33.3237 53.5203C33.3237 56.0387 34.8549 58.0803 36.7437 58.0803Z" fill="#6256EA"/>
  <path d="M36.4485 45.987L32.3251 40.5201C31.9907 40.0783 32.2497 39.3657 32.7466 39.3657H40.9959C41.4904 39.3657 41.7495 40.0783 41.4174 40.5201L37.294 45.987C37.0679 46.2863 36.6793 46.2863 36.4532 45.987H36.4485Z" fill="#6256EA"/>

  </g>
</svg>