<svg xmlns="http://www.w3.org/2000/svg" viewBox="0 0 214.848 240.928"><g clip-path="url(#pessy-mask-clip)"><path d="M11.8826 0.101688L12.0892 0.0939362C19.3159 -0.118314 27.2282 0.0891794 34.4962 0.133929L70.1119 0.193927L108.921 0.183429C117.756 0.209429 127.246 0.0274282 135.998 0.538928C139.448 0.740678 147.088 2.34518 150.461 3.17818C164.121 6.47343 176.683 13.2814 186.901 22.9272C205.723 40.6399 213.993 61.1484 214.803 86.8074C215.503 109.009 208.096 132.621 192.371 148.569C186.658 153.824 179.556 162.934 171.653 164.326C167.318 164.204 163.026 153.514 162.396 150.046C162.286 148.271 165.603 145.811 166.798 144.891C184.343 131.381 194.678 112.523 195.101 90.1144C195.633 71.1989 188.423 52.8852 175.136 39.4112C169.043 33.1554 158.048 25.9717 149.678 23.2562C138.481 19.6232 128.223 19.8317 116.658 19.8712L97.1804 19.9189L39.5581 19.9119C36.3306 19.8867 32.4451 20.1522 29.3126 20.0337C19.4289 19.6604 19.9614 24.0957 19.9886 32.3012L19.9444 154.071L19.9459 188.229C19.9379 196.381 19.3009 206.164 20.7399 214.041C21.9614 220.729 30.8409 223.971 36.9424 221.449C46.2629 217.519 44.9236 206.946 44.8254 197.696C44.6046 176.944 60.7044 161.226 80.4254 157.371C85.5081 156.376 94.6234 156.574 99.6301 157.461C100.969 157.699 100.658 160.934 100.816 161.931C100.278 165.041 104.758 172.956 103.398 175.101C101.471 176.344 90.2986 175.824 87.1954 176.009C75.8424 176.689 66.2094 183.471 64.8956 195.361C64.1791 201.849 65.1986 208.461 64.1264 214.901C63.1911 220.524 60.6926 226.066 56.8961 230.329C51.3921 236.509 43.9576 240.349 35.6996 240.824C26.2839 241.364 18.0029 239.931 10.7711 233.414C3.56614 226.921 0.771647 218.699 0.330897 209.176C0.119647 204.614 0.274392 200.006 0.284892 195.439L0.262889 173.299L0.215144 98.6262L0.118403 38.9669C0.136403 33.4217 0.121148 27.8762 0.072398 22.3312C0.040898 18.7044 -0.0823572 14.6782 0.0888928 11.0789C0.221893 8.28294 0.476153 5.63918 2.3834 3.52918C5.66515 -0.101572 7.35389 0.236938 11.8826 0.101688Z" fill="black"/><path d="M80.6649 29.5104C85.5774 29.3357 90.5307 29.3992 95.4474 29.3857C102.24 29.3674 109.718 28.7894 116.311 30.5137C131.458 34.4757 130.041 48.7714 138.021 51.6534C140.573 52.5752 143.666 53.1857 146.366 53.4432C150.436 53.8314 161.276 53.0532 164.243 55.5347C165.571 56.6464 165.926 58.5792 166.086 60.2149C166.741 66.9667 165.333 73.1684 162.461 79.2659C160.963 82.4469 158.903 85.2239 156.531 87.8079C141.288 104.41 117.678 95.6109 104.541 106.885C99.2274 111.444 95.4469 119.556 94.1817 126.376C93.4902 130.104 93.8317 135.881 91.3724 138.886C86.4699 141.344 81.7134 142.216 76.4866 143.186C66.5484 145.031 58.6527 148.071 50.6679 154.329C46.0749 157.729 43.9441 163.069 40.0666 166.989C39.1009 167.966 36.2054 168.439 35.9569 166.971C35.1316 161.896 35.3679 156.321 35.6271 151.189C36.4364 135.366 40.5522 119.844 51.4069 107.875C60.8352 97.4797 72.4166 89.4264 77.0754 75.5524C80.6579 64.8834 78.8829 52.7652 79.1306 41.6297C79.2021 38.4204 78.2412 33.4569 78.9374 30.4959C79.4159 29.7897 79.8372 29.7672 80.6649 29.5104Z" fill="black"/><path d="M131.773 134.566C138.826 134.309 140.791 140.514 144.906 144.904C146.801 146.926 149.096 148.784 150.978 150.839C154.043 154.184 155.326 157.091 155.018 161.631C154.883 164.701 153.236 168.364 150.826 170.261C144.251 175.431 140.008 172.509 133.576 172.089L133.181 172.064C125.998 172.209 121.768 175.736 115.543 170.686C104.318 161.579 111.396 151.521 119.671 144.241C124.311 140.161 124.341 135.374 131.773 134.566Z" fill="black"/></g><defs><clipPath id="pessy-mask-clip"><rect fill="white" height="240.928" width="214.848"/></clipPath></defs></svg>
