<svg width="64" height="64" viewBox="118 118 264 264" fill="none" xmlns="http://www.w3.org/2000/svg">
<path d="M157.824 134.863L158.031 134.855C165.258 134.643 173.17 134.851 180.438 134.895L216.054 134.955L254.862 134.945C263.697 134.971 273.188 134.789 281.94 135.3C285.39 135.502 293.03 137.107 296.402 137.94C310.062 141.235 322.625 148.043 332.842 157.689C351.665 175.401 359.935 195.91 360.745 221.569C361.445 243.77 354.038 267.382 338.312 283.33C332.6 288.585 325.497 297.695 317.595 299.087C313.26 298.965 308.967 288.275 308.337 284.807C308.227 283.033 311.545 280.572 312.74 279.652C330.285 266.143 340.62 247.284 341.043 224.876C341.575 205.96 334.365 187.647 321.078 174.173C314.985 167.917 303.99 160.733 295.62 158.018C284.423 154.385 274.165 154.593 262.6 154.633L243.122 154.68L185.5 154.673C182.272 154.648 178.387 154.914 175.254 154.795C165.371 154.422 165.903 158.857 165.93 167.063L165.886 288.832L165.888 322.99C165.88 331.142 165.243 340.925 166.682 348.802C167.903 355.49 176.783 358.732 182.884 356.21C192.205 352.28 190.865 341.707 190.767 332.457C190.546 311.705 206.646 295.988 226.367 292.133C231.45 291.138 240.565 291.335 245.572 292.223C246.911 292.46 246.6 295.695 246.757 296.693C246.22 299.803 250.7 307.717 249.34 309.862C247.413 311.105 236.24 310.585 233.137 310.77C221.784 311.45 212.151 318.232 210.837 330.122C210.121 336.61 211.14 343.223 210.068 349.663C209.133 355.285 206.634 360.827 202.838 365.09C197.334 371.27 189.899 375.11 181.641 375.585C172.226 376.125 163.945 374.692 156.713 368.175C149.508 361.682 146.713 353.46 146.273 343.938C146.061 339.375 146.216 334.768 146.227 330.2L146.205 308.06L146.157 233.387L146.06 173.728C146.078 168.183 146.063 162.638 146.014 157.093C145.983 153.466 145.859 149.44 146.031 145.84C146.164 143.044 146.418 140.4 148.325 138.29C151.607 134.66 153.296 134.998 157.824 134.863Z" fill="#074738"/>
<path d="M226.607 164.272C231.519 164.097 236.473 164.161 241.389 164.147C248.182 164.129 255.66 163.551 262.253 165.275C277.4 169.237 275.982 183.533 283.962 186.415C286.515 187.337 289.607 187.947 292.307 188.205C296.377 188.593 307.217 187.815 310.185 190.296C311.512 191.408 311.867 193.341 312.027 194.976C312.682 201.728 311.275 207.93 308.402 214.027C306.905 217.208 304.845 219.985 302.473 222.569C287.23 239.171 263.62 230.372 250.482 241.646C245.169 246.206 241.389 254.318 240.124 261.138C239.432 264.865 239.774 270.642 237.314 273.647C232.412 276.105 227.655 276.978 222.428 277.948C212.49 279.793 204.595 282.832 196.61 289.09C192.017 292.49 189.886 297.83 186.008 301.75C185.043 302.727 182.147 303.2 181.899 301.733C181.073 296.658 181.31 291.083 181.569 285.95C182.378 270.128 186.494 254.605 197.349 242.636C206.777 232.241 218.358 224.188 223.017 210.314C226.6 199.645 224.825 187.527 225.072 176.391C225.144 173.182 224.183 168.218 224.879 165.257C225.358 164.551 225.779 164.528 226.607 164.272Z" fill="#074738"/>
<path d="M185.719 234.805C184.55 234.567 183.809 234.512 182.805 233.867C180.79 230.903 181.272 222.226 181.367 218.352C181.665 206.222 179.42 192.823 185.695 181.869C191.287 172.107 201.028 164.644 212.543 164.54C216.497 164.505 215.844 171.535 215.499 174.004C216.112 175.489 215.854 195.265 215.291 197.827C214.641 202.263 213.018 208.596 210.942 212.612C206.114 221.951 195.768 231.464 185.719 234.805Z" fill="#074738"/>
<path d="M215.499 174.005C216.112 175.489 215.854 195.265 215.292 197.827C214.826 196.276 215.254 174.44 215.499 174.005Z" fill="#074738"/>
<path d="M277.715 269.328C284.767 269.07 286.732 275.275 290.847 279.665C292.742 281.688 295.038 283.545 296.92 285.6C299.985 288.945 301.267 291.852 300.96 296.392C300.825 299.462 299.177 303.125 296.767 305.023C290.192 310.193 285.95 307.27 279.517 306.85L279.122 306.825C271.94 306.97 267.71 310.498 261.485 305.448C250.26 296.34 257.337 286.283 265.612 279.003C270.252 274.923 270.282 270.135 277.715 269.328Z" fill="#074738"/>
<path d="M264.823 247.823C266.748 247.692 268.665 247.482 270.492 248.357C276.1 251.04 276.48 259.233 273.983 264.2C273.208 265.743 272.315 266.355 270.72 266.8C268.637 266.815 267.827 266.82 265.892 265.98C259.78 263.325 256.3 254.045 261.892 249.192C262.892 248.325 263.6 248.179 264.823 247.823Z" fill="#074738"/>
<path d="M287.41 247.801C297.59 246.52 301.175 255.847 294.695 263.123C293.833 264.087 292.425 264.955 291.323 265.658C291.105 265.768 290.885 265.873 290.663 265.975C279.658 271.01 278.328 251.198 287.41 247.801Z" fill="#074738"/>
<path d="M252.465 261.073C253.618 261.03 254.433 261.185 255.565 261.343C260.123 264.455 261.213 270.378 258.658 275.455C257.848 277.062 256.548 277.663 254.833 278.063C253.44 277.998 252.38 277.788 251.168 277.053C249.118 275.798 247.672 273.758 247.169 271.41C246.102 266.635 247.062 262.083 252.465 261.073Z" fill="#074738"/>
<path d="M303.525 261.043C312.082 261.16 312.272 274.595 303.602 277.703C295.282 279.385 296.58 268.768 298.172 263.848C300.042 262.138 301.057 261.5 303.525 261.043Z" fill="#074738"/>
</svg>
