<svg viewBox="0 0 400 240" fill="none" xmlns="http://www.w3.org/2000/svg">
  <rect width="400" height="240" rx="16" fill="#F0FAF9"/>
  <circle cx="200" cy="100" r="80" fill="#E0F2F1"/>
  <circle cx="160" cy="80" r="30" fill="#E0F2F1" stroke="#1A9B7D" stroke-width="1.5" opacity="0.4"/>
  <circle cx="260" cy="140" r="20" fill="#E0F2F1" stroke="#1A9B7D" stroke-width="1.5" opacity="0.3"/>
  <!-- Heart -->
  <path d="M200 130 C200 130, 178 108, 178 95 C178 85, 186 78, 196 82 C200 84, 200 84, 200 84 C200 84, 204 84, 204 82 C214 78, 222 85, 222 95 C222 108, 200 130, 200 130Z" fill="#1A9B7D" opacity="0.8"/>
  <!-- Medical cross -->
  <rect x="190" y="92" width="20" height="6" rx="3" fill="white"/>
  <rect x="197" y="85" width="6" height="20" rx="3" fill="white"/>
  <!-- Small decorative dots -->
  <circle cx="140" cy="160" r="4" fill="#1A9B7D" opacity="0.2"/>
  <circle cx="270" cy="70" r="3" fill="#5048CA" opacity="0.15"/>
  <circle cx="300" cy="160" r="5" fill="#1A9B7D" opacity="0.1"/>
</svg>
