<svg width="653" height="435" viewBox="0 0 653 435" fill="none" xmlns="http://www.w3.org/2000/svg">
<g clip-path="url(#clip0_2999_16366)">
<g filter="url(#filter0_d_2999_16366)">
<rect width="211.195" height="335.428" rx="11.0429" transform="matrix(-0.988247 -0.152869 -0.421004 0.907059 573.852 36.1597)" fill="#D45C27"/>
</g>
<rect width="211.195" height="335.428" rx="11.0429" transform="matrix(-0.988247 -0.152869 -0.421004 0.907059 572.286 33.2335)" fill="#1D6AE5"/>
<g clip-path="url(#clip1_2999_16366)">
<path d="M281.505 302.579L287.466 303.501L293.56 281.762L287.598 280.84L281.505 302.579Z" fill="white"/>
<path d="M269.476 278.591C270.85 278.345 272.935 278.161 275.241 278.517C281.128 279.428 283.936 282.951 282.05 287.074C280.688 290.121 276.887 291.343 274.16 292.007C271.373 292.686 270.275 293.241 269.847 294.164C269.212 295.585 270.749 296.523 272.466 296.789C274.846 297.157 276.278 297.017 278.582 296.528L279.524 296.312L278.153 301.191C276.483 301.559 273.667 301.68 270.982 301.289C264.726 300.321 261.971 296.854 263.96 292.457C265.054 290.044 267.504 288.445 271.639 287.468C274.174 286.822 275.753 286.367 276.213 285.376C276.607 284.471 275.979 283.386 273.626 283.022C271.709 282.677 270.086 282.884 268.809 283.145L268.165 283.286L269.476 278.591Z" fill="white"/>
<path d="M255.45 290.513C255.523 289.221 255.818 284.224 255.818 284.224C255.821 284.273 255.902 282.91 255.974 282.077L254.711 283.836C254.711 283.836 251.231 288.727 250.494 289.747C251.426 289.891 254.272 290.331 255.45 290.513ZM254.433 275.71L259.045 276.423C260.467 276.643 261.369 277.193 261.346 278.661L261.194 299.437L254.938 298.469C254.938 298.469 255.121 295.698 255.161 295.101C254.474 294.995 248.389 294.054 247.506 293.917C246.99 294.633 245.322 296.981 245.322 296.981L239.802 296.127L254.433 275.71Z" fill="white"/>
<path d="M302.268 283.109L301.409 298.443L303.405 295.615C306.052 292.405 311.14 289.259 315.764 288.019L301.827 305.698L295.523 304.723L295.964 282.134L302.268 283.109Z" fill="white"/>
<path d="M313.528 284.851L323.119 286.335L323.019 286.777C314.722 287.376 307.802 290.843 303.404 295.616L310.004 286.212C310.974 284.914 312.207 284.694 313.528 284.851Z" fill="white"/>
</g>
<path d="M299.179 265.541L302.853 266.109L307.925 255.182L304.088 254.589C302.933 254.41 301.843 254.476 300.819 254.787C299.796 255.093 298.876 255.62 298.06 256.367C297.246 257.11 296.576 258.048 296.051 259.179C295.523 260.317 295.289 261.331 295.349 262.221C295.411 263.107 295.762 263.837 296.403 264.408C297.044 264.977 297.97 265.354 299.179 265.541ZM301.956 264.713L299.817 264.382C298.832 264.229 298.097 263.929 297.612 263.48C297.127 263.032 296.875 262.461 296.856 261.768C296.837 261.075 297.034 260.284 297.446 259.394C297.856 258.512 298.365 257.777 298.975 257.189C299.586 256.597 300.282 256.179 301.065 255.934C301.849 255.686 302.706 255.633 303.636 255.777L305.938 256.133L301.956 264.713ZM291.087 264.289L296.159 253.362L288.974 252.251L288.429 253.425L294.172 254.313L292.459 258.005L287.087 257.174L286.543 258.348L291.914 259.179L290.19 262.893L284.354 261.99L283.809 263.164L291.087 264.289ZM281.304 262.776L286.375 251.849L282.213 251.205C281.384 251.077 280.639 251.103 279.978 251.283C279.319 251.459 278.755 251.747 278.287 252.148C277.82 252.544 277.463 253.009 277.215 253.543C276.998 254.012 276.909 254.414 276.949 254.748C276.985 255.082 277.109 255.36 277.321 255.584C277.529 255.807 277.784 255.987 278.085 256.125L278.036 256.232C277.662 256.197 277.241 256.258 276.774 256.414C276.307 256.57 275.857 256.829 275.424 257.189C274.991 257.549 274.64 258.017 274.373 258.593C274.119 259.141 274.026 259.655 274.094 260.134C274.162 260.613 274.429 261.027 274.896 261.373C275.362 261.72 276.064 261.966 277.002 262.111L281.304 262.776ZM280.407 261.379L277.547 260.937C276.605 260.791 276.014 260.521 275.774 260.125C275.532 259.725 275.522 259.286 275.745 258.805C275.917 258.435 276.178 258.11 276.528 257.829C276.881 257.544 277.291 257.336 277.758 257.207C278.227 257.073 278.721 257.047 279.24 257.127L282.17 257.58L280.407 261.379ZM282.705 256.428L280.031 256.014C279.597 255.947 279.242 255.808 278.966 255.598C278.686 255.387 278.509 255.123 278.436 254.807C278.358 254.49 278.409 254.139 278.587 253.755C278.81 253.275 279.181 252.896 279.701 252.618C280.222 252.336 280.878 252.257 281.668 252.379L284.389 252.8L282.705 256.428ZM274.287 249.979L269.215 260.906L270.657 261.129L275.729 250.202L274.287 249.979ZM271.503 250.806L272.048 249.633L263.119 248.251L262.574 249.425L266.318 250.004L261.791 259.758L263.232 259.981L267.759 250.227L271.503 250.806Z" fill="white"/>
<g clip-path="url(#clip2_2999_16366)">
<path fill-rule="evenodd" clip-rule="evenodd" d="M389.552 304.476C387.171 309.608 387.275 314.604 389.369 318.539L403.742 320.762L399.379 293.541C395.126 296.298 391.592 300.081 389.552 304.476ZM401.704 292.175C406.918 289.408 412.919 288.129 418.488 288.991C429.695 290.724 434.91 300.468 430.135 310.754C427.754 315.886 423.336 320.183 418.115 322.985L401.704 292.175Z" fill="white"/>
</g>
<g clip-path="url(#clip3_2999_16366)">
<path d="M383.09 72.2843C383.479 72.2459 384.006 71.9217 384.247 71.5717C384.405 71.3438 384.422 71.1715 384.357 70.4623C384.096 67.5965 384.577 65.0708 385.943 62.1262C387.264 59.2806 388.863 57.1548 391.514 54.7206C392.083 54.1981 392.578 53.7076 392.614 53.6312C392.745 53.3488 392.677 52.8996 392.473 52.6959C392.193 52.4165 391.533 52.3586 391.104 52.5754C390.939 52.6588 390.419 53.0728 389.948 53.4952C388.083 55.1683 386.455 57.0686 385.142 59.1054C384.329 60.366 383.149 62.8108 382.769 64.021C382.068 66.2538 381.792 68.2999 381.911 70.3648C381.984 71.6129 382.145 72.1467 382.464 72.1961C382.528 72.206 382.626 72.2368 382.681 72.2645C382.736 72.2921 382.92 72.301 383.09 72.2843ZM388.143 70.9392C388.741 70.8794 389.402 70.3401 389.456 69.8678C389.47 69.7535 389.451 69.2146 389.416 68.6703C389.267 66.3658 389.853 64.0108 391.125 61.8062C392.17 59.9949 393.068 58.8895 394.762 57.3309C395.898 56.2852 396.008 56.113 395.868 55.5995C395.735 55.1112 394.929 54.9108 394.317 55.2135C393.893 55.4232 392.099 57.0959 391.254 58.0696C388.459 61.2921 386.945 64.9814 386.944 68.5718C386.943 70.4109 387.256 71.0279 388.143 70.9392ZM393.339 69.586C393.73 69.5009 394.161 69.2259 394.387 68.9164C394.525 68.728 394.545 68.4989 394.491 67.7143C394.295 64.8321 395.469 62.2669 398.075 59.8845C399.219 58.8382 399.338 58.6131 399.027 58.0826C398.874 57.8208 398.783 57.7646 398.423 57.7089C397.818 57.6154 397.376 57.8457 396.363 58.7803C394.805 60.2179 393.835 61.5239 393.03 63.265C392.202 65.0546 391.95 66.332 392.071 68.1207C392.14 69.1448 392.276 69.4333 392.755 69.5761C392.901 69.6197 393.164 69.624 393.339 69.586ZM398.186 68.3267C398.492 68.268 398.94 67.989 399.159 67.7201C399.404 67.4196 399.44 67.1565 399.323 66.5066C399.172 65.6706 399.244 65.2457 399.704 64.2547C400.164 63.2638 400.47 62.8749 401.324 62.1944C401.614 61.9636 401.928 61.6821 402.022 61.5687C402.416 61.094 402.246 60.4114 401.686 60.2122C401.21 60.0432 400.757 60.2 399.967 60.807C397.677 62.5645 396.455 65.1965 396.924 67.3629C397.09 68.1272 397.518 68.4544 398.186 68.3267Z" fill="white"/>
</g>
<rect width="211.195" height="335.428" rx="11.0429" transform="matrix(-0.988247 -0.152869 -0.421004 0.907059 572.306 33.2365)" fill="url(#paint0_linear_2999_16366)"/>
<g clip-path="url(#clip4_2999_16366)">
<rect width="335.428" height="211.195" rx="11.0429" transform="matrix(-0.421004 0.907059 -0.988247 -0.152869 572.257 33.2954)" fill="white"/>
<path d="M420.047 285.886L402.586 283.185L389.22 311.982L406.681 314.683L420.047 285.886Z" fill="#F26724"/>
<path d="M397.021 297.756C399.729 291.922 405.134 287.175 411.329 284.537C409.072 281.558 405.468 279.43 400.803 278.709C389.767 277.001 377.039 283.822 372.343 293.939C367.648 304.056 372.79 313.641 383.799 315.344C388.464 316.066 393.427 315.263 397.963 313.335C394.869 309.26 394.307 303.604 397.021 297.756Z" fill="#E31E27"/>
<path d="M436.948 303.933C432.253 314.049 419.498 320.866 408.489 319.163C403.824 318.442 400.22 316.314 397.963 313.335C404.172 310.699 409.557 305.963 412.271 300.116C414.985 294.268 414.409 288.61 411.329 284.537C415.864 282.609 420.828 281.806 425.493 282.528C436.529 284.235 441.644 293.816 436.948 303.933Z" fill="#F9A01F"/>
<path d="M429.783 314.996L430.056 314.407L430.315 314.447L430.373 314.322L429.718 314.221L429.66 314.346L429.919 314.386L429.646 314.975L429.783 314.996ZM431.051 315.192L431.383 314.478L431.178 314.447L430.719 314.899L430.714 314.375L430.51 314.343L430.178 315.057L430.315 315.078L430.565 314.54L430.568 315.037L430.718 315.06L431.151 314.63L430.901 315.169L431.038 315.19L431.051 315.192Z" fill="#231F20"/>
<path d="M262.465 286.23C262.285 286.618 261.866 286.795 261.389 286.721C260.707 286.615 260.023 286.483 259.341 286.377C258.659 286.272 257.951 286.189 257.269 286.084C256.805 286.012 256.588 285.723 256.763 285.348C256.96 284.922 257.278 284.837 257.661 284.01L260.73 277.4C261.073 276.661 261.031 276.279 260.485 276.194C260.226 276.154 259.986 276.198 259.677 276.297L256.196 283.797C255.812 284.624 256.013 284.789 255.816 285.215C255.636 285.603 255.217 285.78 254.74 285.706C254.058 285.6 253.374 285.468 252.692 285.362C252.01 285.257 251.302 285.174 250.62 285.068C250.156 284.997 249.939 284.708 250.114 284.333C250.311 283.907 250.629 283.822 251.012 282.995L254.301 275.909C254.888 274.644 254.426 274.505 254.641 274.042C254.821 273.654 255.133 273.581 255.819 273.553L259.184 273.484C259.521 273.482 259.919 273.476 260.151 273.512C260.601 273.582 260.707 273.826 260.422 274.44L260.015 275.316C261.489 274.189 262.931 273.728 264.377 273.951C266.41 274.266 267.012 275.835 265.931 278.164L262.851 284.8C262.461 285.639 262.682 285.794 262.484 286.219L262.465 286.23Z" fill="#392FB4"/>
<path d="M263.789 286.434C263.987 286.008 264.304 285.923 264.688 285.097L267.977 278.01C268.564 276.745 268.102 276.607 268.317 276.144C268.497 275.755 268.808 275.683 269.494 275.655L272.969 275.602C273.306 275.6 273.703 275.595 273.935 275.63C274.386 275.7 274.491 275.945 274.207 276.558L269.877 285.886C269.494 286.712 269.695 286.878 269.497 287.303C269.317 287.691 268.899 287.868 268.421 287.794C267.739 287.689 267.055 287.556 266.373 287.451C265.691 287.345 264.984 287.263 264.301 287.157C263.838 287.085 263.634 286.799 263.809 286.423L263.789 286.434Z" fill="#392FB4"/>
<path d="M286.357 283.832C284.527 287.776 280.631 290.059 276.798 289.466C276.252 289.381 275.977 289.312 275.525 289.121C274.616 288.779 273.89 288.358 272.922 288.209C272.117 288.084 271.564 288.361 271.114 288.291C270.719 288.23 270.543 287.948 270.717 287.572C270.915 287.147 271.29 287.124 271.61 286.436L277.979 272.713C278.578 271.423 278.116 271.285 278.325 270.834C278.494 270.471 278.785 270.315 279.497 270.358C281.725 270.501 283.609 270.538 283.827 270.571C284.291 270.643 284.372 270.91 284.099 271.499L280.798 278.611C282.007 277.644 283.328 277.19 284.529 277.376C287.162 277.783 288.145 279.949 286.338 283.842L286.357 283.832ZM279.891 285.006C281.338 281.888 281.743 279.629 280.857 279.492C280.693 279.467 280.52 279.494 280.343 279.56L277.239 286.246C276.676 287.461 276.689 288.281 277.208 288.362C277.89 288.467 278.636 287.71 279.891 285.006Z" fill="#392FB4"/>
<path d="M300.313 285.991C298.483 289.935 294.587 292.217 290.754 291.625C290.208 291.54 289.933 291.471 289.481 291.28C288.572 290.938 287.846 290.517 286.878 290.367C286.073 290.243 285.52 290.52 285.07 290.45C284.675 290.389 284.499 290.107 284.673 289.731C284.871 289.305 285.246 289.283 285.566 288.594L291.935 274.872C292.534 273.582 292.072 273.444 292.281 272.993C292.45 272.63 292.741 272.474 293.453 272.516C295.681 272.66 297.565 272.696 297.783 272.73C298.247 272.802 298.328 273.069 298.055 273.658L294.754 280.769C295.963 279.802 297.284 279.349 298.499 279.537C301.131 279.944 302.115 282.109 300.308 286.003L300.313 285.991ZM293.861 287.167C295.308 284.049 295.713 281.79 294.826 281.653C294.663 281.628 294.489 281.655 294.312 281.721L291.209 288.407C290.645 289.622 290.659 290.442 291.177 290.523C291.859 290.628 292.606 289.871 293.861 287.167Z" fill="#392FB4"/>
<path d="M298.737 291.84C298.935 291.414 299.252 291.329 299.636 290.503L305.895 277.018C306.493 275.728 306.031 275.59 306.24 275.139C306.409 274.776 306.701 274.62 307.412 274.663C309.652 274.781 311.525 274.843 311.743 274.876C312.207 274.948 312.287 275.216 312.014 275.804L304.82 291.305C304.436 292.131 304.637 292.296 304.439 292.722C304.259 293.11 303.841 293.287 303.363 293.213C302.681 293.108 301.997 292.975 301.315 292.869C300.633 292.764 299.926 292.681 299.244 292.576C298.78 292.504 298.577 292.218 298.757 291.829L298.737 291.84Z" fill="#392FB4"/>
<path d="M319.278 290.992C318.04 293.658 314.988 295.226 311.455 294.68C307.608 294.085 306.179 291.367 307.946 287.561C309.59 284.018 313.55 281.691 317.315 282.274C320.112 282.706 321.547 284.686 320.351 287.736L313.477 288.591C313.092 290.491 313.493 291.989 314.885 292.204C316.372 292.434 317.043 291.491 317.433 290.652C317.729 290.014 318.324 289.77 318.843 289.851C319.416 289.939 319.561 290.351 319.264 290.989L319.278 290.992ZM314.337 286.201C314.128 286.652 313.958 287.082 313.821 287.504L315.31 287.318C316.249 285.169 316.831 283.38 316.367 283.308C315.958 283.245 315.124 284.538 314.351 286.204L314.337 286.201Z" fill="#392FB4"/>
<path d="M320.135 295.539C319.385 295.423 318.932 295.769 318.468 295.698C318.127 295.645 317.889 295.433 318.203 294.945C318.809 294.019 319.437 292.949 320.03 291.86C320.22 291.513 320.586 291.261 321.063 291.335C321.514 291.405 321.576 291.616 321.589 292.06C321.643 294.055 322.064 295.006 323.347 295.204C324.083 295.318 324.755 295.006 325.051 294.367C325.405 293.604 325.128 293.225 323.832 292.112L323.084 291.486C321.409 290.087 321.162 288.854 321.819 287.439C322.847 285.223 325.812 283.468 329.795 284.084C332.387 284.485 333.707 285.736 332.98 287.301C332.481 288.377 331.502 288.91 330.247 288.716C327.273 288.256 330.028 285.502 328.255 285.228C327.573 285.122 327.042 285.416 326.763 286.017C326.455 286.68 326.768 287.266 328.572 288.766L329.32 289.391C330.989 290.804 331.169 291.865 330.396 293.53C329.437 295.596 326.778 297.104 322.931 296.509C321.008 296.211 321.172 295.7 320.122 295.537L320.135 295.539Z" fill="#392FB4"/>
<path d="M270.13 273.498L270.38 270.88C270.473 269.955 271.361 269.019 272.463 268.787C273.738 268.528 274.72 269.216 274.609 270.273L274.568 270.709L274.992 270.708C276.083 270.689 276.862 271.373 276.736 272.306C276.587 273.383 275.387 274.298 274.182 274.313L271.049 274.352C270.477 274.357 270.086 274.001 270.13 273.498Z" fill="#D45C27"/>
<path d="M410.219 26.9234C413.322 26.0346 415.571 23.2691 415.248 20.75C414.996 18.8054 413.237 17.1778 411.021 16.9425C410.271 16.8264 408.335 16.0841 406.696 13.9117C405.474 11.978 402.702 11.1466 399.671 12.0063C396.648 12.8807 394.272 15.197 393.626 17.6602C392.63 20.5927 391.035 22.359 390.359 22.8716C388.356 24.3198 387.131 26.8009 387.39 28.733C387.712 31.252 390.493 32.568 393.596 31.6791C394.869 31.393 397.932 30.337 399.901 28.4272C400.171 28.1604 400.445 27.9478 400.707 27.7603C401.285 27.3665 401.997 27.1546 402.648 27.2016C402.946 27.2209 403.24 27.2798 403.564 27.3701C405.866 28.0483 408.975 27.3349 410.231 26.8984L410.219 26.9234Z" fill="#392FB4"/>
<path d="M389.721 15.4861C390.85 17.7141 390.059 20.3963 387.942 21.4914C385.839 22.5886 383.215 21.6593 382.085 19.4313C380.955 17.2033 381.747 14.5211 383.864 13.426C385.98 12.331 388.591 13.2582 389.721 15.4861Z" fill="#392FB4"/>
<path d="M409.778 9.73236C409.29 12.4213 410.69 14.4764 412.924 14.3255C415.158 14.1745 417.353 11.8704 417.841 9.1814C418.329 6.49241 416.928 4.43734 414.694 4.58831C412.461 4.73927 410.265 7.04337 409.778 9.73236Z" fill="#392FB4"/>
<path d="M400.648 4.19929C400.075 7.29119 401.653 9.65562 404.148 9.47792C406.637 9.31275 409.124 6.66454 409.677 3.58305C410.249 0.49115 408.671 -1.87327 406.176 -1.69558C403.687 -1.5304 401.201 1.1178 400.648 4.19929Z" fill="#392FB4"/>
<path d="M396.819 5.29793C398.121 7.84777 397.251 10.9204 394.887 12.1383C392.523 13.3562 389.571 12.2822 388.275 9.71988C386.973 7.17003 387.844 4.0974 390.207 2.87951C392.571 1.66162 395.523 2.73556 396.819 5.29793Z" fill="#392FB4"/>
<path d="M352.485 82.608C355.605 82.1243 358.269 79.5975 358.418 76.9769C358.537 74.9556 357.174 73.0405 355.118 72.4942C354.428 72.2801 352.732 71.2395 351.573 68.7922C350.772 66.642 348.293 65.3997 345.254 65.8689C342.214 66.3381 339.535 68.3929 338.449 70.8282C336.956 73.6973 335.098 75.2752 334.369 75.7126C332.2 76.9203 330.57 79.2984 330.437 81.3176C330.268 83.9486 332.669 85.6754 335.788 85.1917C337.054 85.0788 340.153 84.4176 342.387 82.7234C342.7 82.49 342.99 82.3067 343.282 82.1505C343.904 81.8174 344.625 81.7141 345.221 81.8466C345.496 81.916 345.773 82.0125 346.06 82.1508C348.117 83.1669 351.196 82.8648 352.483 82.5808L352.485 82.608Z" fill="#392FB4"/>
<path d="M335.148 68.0502C335.801 70.4862 334.542 73.1364 332.331 73.9619C330.12 74.7875 327.799 73.489 327.159 71.0551C326.52 68.6211 327.766 65.9689 329.976 65.1433C332.187 64.3178 334.509 65.6163 335.148 68.0502Z" fill="#392FB4"/>
<path d="M355.29 64.9123C354.317 67.6068 355.27 69.9013 357.419 70.0593C359.574 70.2047 362.091 68.1518 363.064 65.4573C364.037 62.7628 363.084 60.4683 360.935 60.3103C358.78 60.1649 356.263 62.2178 355.29 64.9123Z" fill="#392FB4"/>
<path d="M347.655 57.988C346.543 61.0769 347.583 63.7203 349.995 63.8787C352.401 64.0496 355.252 61.686 356.364 58.5971C357.476 55.5081 356.437 52.8647 354.025 52.7063C351.619 52.5354 348.767 54.899 347.655 57.988Z" fill="#392FB4"/>
<path d="M343.809 58.5869C344.557 61.3865 343.156 64.404 340.677 65.3356C338.198 66.2672 335.597 64.7511 334.85 61.9515C334.102 59.1519 335.503 56.1345 337.982 55.2028C340.461 54.2712 343.062 55.7873 343.809 58.5869Z" fill="#392FB4"/>
<path d="M409.805 107.579C412.894 106.594 415.058 103.788 414.618 101.305C414.279 99.3869 412.444 97.8282 410.208 97.6701C409.44 97.5916 407.467 96.8972 405.72 94.8019C404.414 92.9224 401.574 92.1744 398.557 93.1302C395.54 94.086 393.255 96.4568 392.697 98.9201C391.816 101.857 390.284 103.646 389.623 104.188C387.671 105.685 386.542 108.18 386.88 110.098C387.321 112.582 390.176 113.802 393.259 112.829C394.536 112.503 397.579 111.364 399.478 109.416C399.734 109.147 400 108.92 400.263 108.733C400.832 108.324 401.537 108.098 402.186 108.118C402.484 108.137 402.79 108.171 403.113 108.261C405.464 108.866 408.554 108.069 409.813 107.593L409.805 107.579Z" fill="#392FB4"/>
<path d="M388.659 96.8729C389.886 99.0488 389.196 101.733 387.13 102.876C385.051 104.018 382.38 103.188 381.147 101.025C379.92 98.8491 380.61 96.1646 382.676 95.0214C384.756 93.8803 387.427 94.7095 388.659 96.8729Z" fill="#392FB4"/>
<path d="M408.639 90.5562C408.258 93.2349 409.762 95.2254 412.011 95.0097C414.247 94.7919 416.377 92.4376 416.758 89.7589C417.139 87.0802 415.636 85.0897 413.4 85.3075C411.164 85.5253 409.033 87.8796 408.653 90.5583L408.639 90.5562Z" fill="#392FB4"/>
<path d="M399.198 85.3523C398.766 88.4256 400.434 90.7234 402.944 90.481C405.454 90.2386 407.835 87.5338 408.281 84.4626C408.714 81.3893 407.046 79.0915 404.536 79.3339C402.025 79.5763 399.644 82.2811 399.198 85.3523Z" fill="#392FB4"/>
<path d="M395.389 86.5617C396.808 89.0491 396.058 92.1136 393.734 93.4046C391.415 94.6831 388.376 93.703 386.971 91.2177C385.552 88.7304 386.302 85.6659 388.626 84.3749C390.945 83.0963 393.984 84.0764 395.389 86.5617Z" fill="#392FB4"/>
<path d="M364.348 175.778C367.441 174.848 369.641 172.061 369.272 169.548C368.981 167.625 367.177 166.03 364.95 165.82C364.188 165.729 362.246 164.999 360.544 162.871C359.276 160.97 356.473 160.174 353.446 161.088C350.42 162.002 348.092 164.34 347.5 166.811C346.565 169.74 344.992 171.523 344.323 172.05C342.356 173.517 341.172 176.004 341.457 177.941C341.832 180.441 344.664 181.711 347.757 180.781C349.042 180.469 352.076 179.382 354.028 177.443C354.299 177.176 354.559 176.961 354.821 176.774C355.391 176.365 356.104 176.154 356.746 176.186C357.045 176.205 357.345 176.252 357.668 176.342C360.002 176.985 363.101 176.23 364.354 175.766L364.348 175.778Z" fill="#392FB4"/>
<path d="M343.526 164.693C344.701 166.888 343.964 169.578 341.863 170.703C339.762 171.827 337.114 170.948 335.94 168.753C334.765 166.559 335.502 163.868 337.603 162.743C339.698 161.632 342.352 162.498 343.526 164.693Z" fill="#392FB4"/>
<path d="M363.538 158.65C363.097 161.333 364.556 163.357 366.788 163.178C369.026 162.988 371.186 160.665 371.627 157.982C372.068 155.299 370.609 153.275 368.377 153.454C366.14 153.644 363.98 155.967 363.538 158.65Z" fill="#392FB4"/>
<path d="M354.255 153.296C353.762 156.373 355.385 158.704 357.878 158.499C360.371 158.294 362.809 155.625 363.321 152.537C363.833 149.449 362.19 147.129 359.698 147.334C357.205 147.539 354.767 150.208 354.255 153.296Z" fill="#392FB4"/>
<path d="M350.437 154.435C351.791 156.966 350.987 160.022 348.639 161.27C346.305 162.519 343.302 161.491 341.942 158.972C340.587 156.441 341.391 153.385 343.739 152.138C346.074 150.889 349.076 151.917 350.437 154.435Z" fill="#392FB4"/>
<path d="M441.548 178.983C444.273 177.177 445.266 174.123 443.757 172.145C442.592 170.623 440.05 169.894 437.685 170.455C436.875 170.624 434.559 170.669 431.865 169.447C429.721 168.27 426.518 168.526 423.857 170.288C421.197 172.051 419.889 174.774 420.374 177.036C420.742 179.804 419.947 181.801 419.504 182.471C418.161 184.357 418.082 186.827 419.247 188.349C420.762 190.315 424.204 190.458 426.928 188.652C428.092 187.973 430.693 186.054 431.799 183.796C431.945 183.483 432.113 183.214 432.298 182.974C432.704 182.446 433.32 182.031 434.001 181.855C434.305 181.768 434.638 181.712 435 181.688C437.666 181.456 440.463 179.808 441.537 179.008L441.548 178.983Z" fill="#392FB4"/>
<path d="M415.384 176.573C417.575 178.025 418.024 180.524 416.406 182.152C414.787 183.781 411.696 183.92 409.505 182.467C407.313 181.014 406.865 178.516 408.483 176.887C410.102 175.259 413.193 175.12 415.384 176.573Z" fill="#392FB4"/>
<path d="M433.019 164.915C433.783 167.301 436.186 168.518 438.365 167.634C440.55 166.737 441.708 164.085 440.937 161.684C440.173 159.298 437.775 158.068 435.59 158.965C433.405 159.862 432.247 162.514 433.019 164.915Z" fill="#392FB4"/>
<path d="M421.166 163.485C422.038 166.237 424.746 167.648 427.2 166.646C429.653 165.643 430.931 162.607 430.04 159.865C429.168 157.114 426.46 155.702 424.006 156.704C421.552 157.707 420.275 160.744 421.166 163.485Z" fill="#392FB4"/>
<path d="M417.799 165.701C420.316 167.366 420.871 170.202 419.05 172.014C417.224 173.839 413.72 173.954 411.216 172.292C408.699 170.628 408.144 167.791 409.965 165.979C411.791 164.155 415.295 164.039 417.799 165.701Z" fill="#392FB4"/>
<path d="M412.227 240.552C415.033 238.853 416.202 235.8 414.829 233.749C413.781 232.164 411.316 231.3 408.956 231.753C408.144 231.896 405.867 231.826 403.284 230.46C401.247 229.179 398.067 229.29 395.324 230.946C392.582 232.602 391.124 235.302 391.471 237.61C391.659 240.417 390.749 242.41 390.272 243.061C388.831 244.905 388.592 247.404 389.64 248.989C391.007 251.052 394.394 251.348 397.2 249.648C398.387 249.013 401.076 247.188 402.313 244.964C402.486 244.655 402.668 244.388 402.866 244.15C403.299 243.627 403.945 243.244 404.615 243.092C404.926 243.02 405.253 242.976 405.61 242.964C408.245 242.862 411.116 241.307 412.227 240.552Z" fill="#392FB4"/>
<path d="M386.578 236.908C388.643 238.475 388.94 241.017 387.23 242.591C385.52 244.165 382.465 244.162 380.4 242.595C378.335 241.027 378.044 238.473 379.748 236.911C381.458 235.338 384.513 235.34 386.578 236.908Z" fill="#392FB4"/>
<path d="M404.701 225.929C405.302 228.383 407.592 229.717 409.805 228.919C412.018 228.121 413.318 225.477 412.718 223.022C412.117 220.567 409.827 219.233 407.614 220.032C405.401 220.83 404.101 223.474 404.701 225.929Z" fill="#392FB4"/>
<path d="M393.097 223.933C393.792 226.751 396.362 228.303 398.837 227.411C401.313 226.519 402.76 223.495 402.079 220.679C401.384 217.861 398.814 216.309 396.339 217.201C393.863 218.093 392.416 221.117 393.097 223.933Z" fill="#392FB4"/>
<path d="M389.637 226.028C392.003 227.83 392.387 230.72 390.474 232.478C388.562 234.235 385.1 234.196 382.735 232.394C380.369 230.593 379.986 227.702 381.898 225.944C383.81 224.187 387.272 224.226 389.637 226.028Z" fill="#392FB4"/>
<path d="M481.145 246.892C483.824 245.026 484.695 241.953 483.077 240.052C481.842 238.586 479.238 237.928 476.898 238.559C476.076 238.754 473.758 238.866 470.991 237.74C468.779 236.646 465.562 236.994 462.947 238.817C460.332 240.64 459.127 243.393 459.717 245.618C460.204 248.35 459.49 250.36 459.067 251.019C457.786 252.928 457.82 255.375 459.055 256.841C460.653 258.753 464.134 258.781 466.806 256.9C467.954 256.192 470.496 254.21 471.507 251.937C471.653 251.624 471.808 251.353 471.984 251.098C472.363 250.566 472.971 250.137 473.651 249.934C473.954 249.846 474.293 249.778 474.653 249.726C477.327 249.415 480.085 247.695 481.129 246.863L481.145 246.892Z" fill="#392FB4"/>
<path d="M454.672 245.307C456.945 246.679 457.499 249.14 455.937 250.804C454.362 252.465 451.257 252.696 448.998 251.327C446.725 249.956 446.171 247.495 447.733 245.831C449.308 244.169 452.413 243.938 454.672 245.307Z" fill="#392FB4"/>
<path d="M471.963 233.22C472.832 235.568 475.303 236.702 477.47 235.749C479.638 234.796 480.687 232.127 479.818 229.778C478.949 227.43 476.478 226.296 474.31 227.249C472.142 228.202 471.094 230.871 471.963 233.22Z" fill="#392FB4"/>
<path d="M459.953 232.167C460.955 234.858 463.731 236.187 466.159 235.113C468.582 234.052 469.75 230.998 468.748 228.307C467.745 225.616 464.97 224.287 462.542 225.361C460.119 226.422 458.95 229.475 459.953 232.167Z" fill="#392FB4"/>
<path d="M456.658 234.476C459.262 236.046 459.942 238.835 458.185 240.697C456.429 242.56 452.9 242.792 450.301 241.209C447.697 239.639 447.017 236.85 448.773 234.988C450.53 233.125 454.059 232.893 456.658 234.476Z" fill="#392FB4"/>
<path d="M464.901 98.3201L479.325 67.2438C480.182 65.3975 479.246 63.6485 477.234 63.3373L456.963 60.2017C454.951 59.8905 452.626 61.135 451.769 62.9813L437.345 94.0576C436.488 95.9039 437.424 97.6529 439.436 97.9641L459.707 101.1C461.718 101.411 464.044 100.166 464.901 98.3201Z" fill="#D9D9D9"/>
<rect width="4.46595" height="20.9401" rx="1.38036" transform="matrix(-0.421004 0.907059 -0.988247 -0.152869 469.621 80.2252)" fill="#363636" fill-opacity="0.2"/>
<rect width="6.30644" height="12.5378" rx="1.38036" transform="matrix(0.988247 0.152869 -0.421004 0.907059 470.26 65.3003)" fill="#363636" fill-opacity="0.2"/>
<rect width="6.30644" height="12.5378" rx="1.38036" transform="matrix(0.988247 0.152869 -0.421004 0.907059 460.646 86.0145)" fill="#363636" fill-opacity="0.2"/>
<rect width="6.30644" height="12.5378" rx="1.38036" transform="matrix(0.988247 0.152869 -0.421004 0.907059 462.664 64.1252)" fill="#363636" fill-opacity="0.2"/>
<rect width="6.30644" height="12.5378" rx="1.38036" transform="matrix(0.988247 0.152869 -0.421004 0.907059 453.049 84.8394)" fill="#363636" fill-opacity="0.2"/>
<rect width="6.30644" height="12.5378" rx="1.38036" transform="matrix(0.988247 0.152869 -0.421004 0.907059 455.067 62.9501)" fill="#363636" fill-opacity="0.2"/>
<rect width="6.30644" height="12.5378" rx="1.38036" transform="matrix(0.988247 0.152869 -0.421004 0.907059 445.453 83.6643)" fill="#363636" fill-opacity="0.2"/>
</g>
<rect x="0.19575" y="0.365771" width="42.7912" height="30.368" rx="5.17635" transform="matrix(-0.421004 0.907059 0.988247 0.152869 450.735 59.3835)" fill="url(#paint1_linear_2999_16366)" stroke="#686C73" stroke-width="0.690181"/>
<path fill-rule="evenodd" clip-rule="evenodd" d="M448.141 80.3087L439.53 84.917L439.253 84.3995L447.663 79.8987L444.277 73.5741L444.965 73.2059L448.431 79.6824L451.7 80.188L460.708 60.7811L461.39 60.8866L454.997 74.6597L464.547 76.1368L470.939 62.3638L471.621 62.4692L465.228 76.2422L465.229 76.2423L464.938 76.8677L464.938 76.8676L462.613 81.8762L465.883 82.3819L474.494 77.7736L474.771 78.2911L466.36 82.7909L469.746 89.1165L469.058 89.4847L465.592 83.0082L462.322 82.5024L459.998 87.5109L459.999 87.511L459.708 88.1364L459.707 88.1362L453.315 101.909L452.633 101.804L459.026 88.0308L449.477 86.5537L443.084 100.327L442.403 100.222L448.94 86.1356C449.011 85.9842 449.186 85.8763 449.355 85.8712L449.426 85.8756L459.316 87.4055L464.256 76.7622L454.707 75.2851L452.237 80.6063C452.157 80.7791 451.939 80.8962 451.751 80.8671L448.141 80.3087Z" fill="#686C73"/>
</g>
<g filter="url(#filter1_d_2999_16366)">
<path d="M469.5 410.736C488.553 410.736 504 395.543 504 376.803C504 358.062 488.553 342.87 469.5 342.87C450.446 342.87 435 358.062 435 376.803C435 395.543 450.446 410.736 469.5 410.736Z" fill="#DB66C3"/>
</g>
<mask id="mask0_2999_16366" style="mask-type:luminance" maskUnits="userSpaceOnUse" x="434" y="342" width="70" height="69">
<path d="M469.5 410.736C488.553 410.736 504 395.543 504 376.803C504 358.062 488.553 342.87 469.5 342.87C450.446 342.87 435 358.062 435 376.803C435 395.543 450.446 410.736 469.5 410.736Z" fill="white"/>
</mask>
<g mask="url(#mask0_2999_16366)">
<path d="M456.34 420.076L471.638 403.607L453.469 413.399L458.811 404.463L448.721 411.943L447.277 410.382L464.985 391.316L443.146 406.096C442.656 406.428 441.984 406.306 441.646 405.823C441.309 405.341 441.433 404.681 441.924 404.348L470.409 385.069L480.716 367.832L479.809 367.964L467.21 376.331L434.442 410.372L445.302 390.88L428.825 401.822L452.839 377.354L456.134 371.44L445.576 372.991L425.048 386.515L435.576 374.459L421.066 376.592L454.396 352.907L465.571 340.11C465.959 339.666 466.64 339.615 467.091 339.996C467.543 340.378 467.594 341.048 467.207 341.492L461.888 347.582L478.435 335.824L467.02 356.311L493.809 338.663L465.023 367.994L473.46 366.754L500.917 338.231L487.867 360.057L511.534 344.339L493.439 363.821L508.978 361.54L472.846 385.994L471.47 387.476L466.156 396.363L505.448 367.235L506.893 368.797L481.983 395.613L506.152 382.589L507.295 384.382L456.338 420.076H456.34ZM463.303 401.132L459.291 407.841L476.134 398.764L497.446 375.821L463.303 401.131V401.132ZM477.486 400.455L471.623 406.766L491.129 393.103L477.486 400.455ZM464.447 395.038L456.718 403.359L461.663 399.694L464.447 395.038ZM449.201 388.291L444.355 396.988L458.974 381.8L449.2 388.291H449.201ZM448.899 384.42L444.638 388.762L447.562 386.82L448.899 384.419V384.42ZM454.586 378.625L451.464 384.228L465.803 374.706L471.053 369.252L462.562 370.499L454.586 378.625ZM491.134 366.304L479.284 379.063L500.074 364.991L491.132 366.304H491.134ZM483.456 367.432L476.749 378.648L487.751 366.801L483.455 367.432H483.456ZM438.832 373.984L436.986 376.098L440.586 373.726L438.832 373.984ZM448.374 359.802L429.511 373.207L437.72 372.002L448.375 359.802H448.374ZM458.807 371.05L458.522 371.562L459.061 371.013L458.807 371.05ZM455.865 354.479L440.98 371.523L444.774 370.967L463.135 358.87L471.95 343.048L455.865 354.478V354.479ZM460.888 362.902L449.759 370.234L457.43 369.107L460.887 362.902H460.888ZM474.513 368.744L474.034 369.241L474.858 368.693L474.512 368.744H474.513ZM464.772 360.344L460.108 368.715L461.519 368.508L478.239 351.471L464.772 360.344ZM489.444 353.233L476.917 366.247L479.005 365.94L483.716 362.811L489.444 353.233ZM485.328 364.301L484.862 365.081L490.058 364.318L497.711 356.077L485.328 364.301Z" fill="#6256EA"/>
</g>
<path d="M469.501 408.541C469.104 408.541 468.724 408.326 468.536 407.953C468.27 407.43 468.486 406.792 469.018 406.531C473.646 404.258 477.445 402.919 480.63 402.438C484.355 401.876 487.296 402.52 489.376 404.352C490.558 405.394 492.147 405.842 493.736 405.58C495.377 405.308 496.78 404.334 497.586 402.907C497.978 402.213 498.35 401.411 498.691 400.527C498.902 399.979 499.525 399.704 500.082 399.912C500.638 400.12 500.919 400.732 500.707 401.28C500.33 402.259 499.913 403.154 499.47 403.937C498.343 405.932 496.384 407.292 494.091 407.671C491.853 408.041 489.609 407.407 487.935 405.932C484.836 403.2 478.963 404.017 469.98 408.429C469.825 408.505 469.661 408.541 469.499 408.541H469.501Z" fill="#6256EA"/>
<path d="M141.911 180.218C155.581 180.218 166.662 169.319 166.662 155.874C166.662 142.429 155.581 131.529 141.911 131.529C128.241 131.529 117.159 142.429 117.159 155.874C117.159 169.319 128.241 180.218 141.911 180.218Z" fill="#FF8268"/>
<path d="M141.911 180.218C155.581 180.218 166.662 169.319 166.662 155.874C166.662 142.429 155.581 131.529 141.911 131.529C128.241 131.529 117.159 142.429 117.159 155.874C117.159 169.319 128.241 180.218 141.911 180.218Z" fill="#FF8268"/>
<path d="M141.578 131.533C142.029 138.037 139.611 144.395 134.926 149.004C130.24 153.613 123.776 155.99 117.163 155.547C117.147 156.768 117.222 157.989 117.392 159.201C124.901 159.572 132.21 156.814 137.538 151.573C142.866 146.333 145.67 139.144 145.294 131.758C144.062 131.592 142.82 131.517 141.578 131.533Z" fill="#6256EA"/>
<path d="M142.243 180.215C141.792 173.711 144.21 167.353 148.895 162.744C153.581 158.135 160.046 155.758 166.658 156.201C166.675 154.98 166.599 153.759 166.43 152.547C158.92 152.176 151.612 154.934 146.284 160.175C140.955 165.415 138.151 172.604 138.528 179.99C139.76 180.156 141.001 180.231 142.243 180.215Z" fill="#6256EA"/>
<g filter="url(#filter2_d_2999_16366)">
<path d="M574.257 110.603C580.739 108.837 584.626 102.215 582.939 95.8118C581.251 89.4083 574.629 85.6483 568.147 87.4136C561.665 89.179 557.779 95.8011 559.466 102.205C561.153 108.608 567.776 112.368 574.257 110.603Z" fill="#FF8268"/>
<path d="M581.682 99.1793C588.089 97.4345 591.93 90.8895 590.262 84.5606C588.595 78.2317 582.05 74.5155 575.643 76.2603C569.237 78.0051 565.396 84.5501 567.063 90.879C568.731 97.2079 575.276 100.924 581.682 99.1793Z" fill="#FF8268"/>
<path d="M593.296 100.971C598.437 99.5704 601.52 94.3178 600.181 89.2386C598.843 84.1593 593.59 81.177 588.449 82.5772C583.308 83.9775 580.225 89.2301 581.563 94.3093C582.901 99.3885 588.154 102.371 593.296 100.971Z" fill="#FF8268"/>
<path d="M594.95 90.9205C600.225 89.4837 603.388 84.0941 602.015 78.8825C600.642 73.6708 595.252 70.6107 589.977 72.0475C584.701 73.4842 581.538 78.8738 582.911 84.0855C584.284 89.2971 589.674 92.3572 594.95 90.9205Z" fill="#FF8268"/>
<path d="M606.799 97.0327C612.526 95.4728 615.961 89.6212 614.47 83.9628C612.979 78.3045 607.127 74.982 601.4 76.5419C595.672 78.1019 592.238 83.9534 593.729 89.6118C595.22 95.2702 601.071 98.5926 606.799 97.0327Z" fill="#FF8268"/>
<path d="M627.987 111.685L560.589 130.041C558.878 130.507 557.185 129.318 557.067 127.571L555.511 104.339C555.347 101.877 556.97 99.6215 559.38 98.9651L613.753 84.1565C616.163 83.5 618.678 84.6286 619.746 86.8443L629.822 107.756C630.58 109.329 629.697 111.219 627.986 111.685L627.987 111.685Z" fill="#6256EA"/>
<path d="M597.751 114.859C599.51 114.38 600.564 112.584 600.106 110.847C599.754 109.509 598.535 108.323 597.19 108.067C596.729 107.963 595.503 107.365 594.29 105.814C593.361 104.442 591.617 103.75 589.902 104.217C588.188 104.684 587.018 106.169 586.888 107.829C586.6 109.79 585.832 110.931 585.483 111.256C584.444 112.161 583.972 113.807 584.325 115.145C584.782 116.882 586.579 117.902 588.337 117.423C589.071 117.28 590.783 116.689 591.759 115.464C591.893 115.296 592.03 115.158 592.169 115.045C592.474 114.796 592.876 114.686 593.263 114.747C593.439 114.774 593.626 114.824 593.825 114.902C595.272 115.466 597.046 115.109 597.751 114.859Z" fill="#FDC5A6"/>
<path d="M584.327 106.166C585.231 107.736 585.039 109.543 583.896 110.201C582.754 110.859 581.095 110.119 580.19 108.549C579.285 106.978 579.478 105.172 580.621 104.514C581.763 103.856 583.422 104.596 584.327 106.166Z" fill="#FDC5A6"/>
<path d="M595.688 103.072C595.677 104.891 596.732 106.358 598.045 106.347C599.358 106.336 600.432 104.853 600.443 103.033C600.454 101.213 599.399 99.7465 598.086 99.7572C596.773 99.7679 595.7 101.252 595.688 103.072Z" fill="#FDC5A6"/>
<path d="M589.662 98.9042C589.65 100.993 590.831 102.676 592.301 102.665C593.771 102.653 594.973 100.95 594.986 98.8609C594.999 96.7722 593.818 95.0887 592.348 95.1006C590.878 95.1126 589.675 96.8155 589.662 98.9042Z" fill="#FDC5A6"/>
<path d="M587.495 99.4945C588.533 101.297 588.338 103.355 587.059 104.092C585.78 104.829 583.901 103.965 582.863 102.163C581.825 100.36 582.02 98.3019 583.299 97.5651C584.578 96.8283 586.457 97.6921 587.495 99.4945Z" fill="#FDC5A6"/>
</g>
<g filter="url(#filter3_d_2999_16366)">
<path d="M177.136 212.755C170.826 214.106 167.371 220.303 167.569 225.55C167.768 230.796 178.429 232.194 183.503 233.765C193.898 236.985 193.069 244.115 197.872 242.88C204.293 241.228 203.871 227.433 199.164 221.072C196.687 217.707 193.289 215.132 189.38 213.656C185.471 212.18 181.218 211.867 177.136 212.755Z" fill="#6256EA"/>
<path d="M49.7832 399.031C50.8068 399.526 51.9551 399.702 53.0801 399.539C53.2448 399.518 53.4075 399.482 53.5661 399.433C54.317 399.249 54.9693 398.785 55.3893 398.137C57.4332 395.044 54.6861 388.061 54.6861 388.061L64.1271 376.766C64.1271 376.766 91.9294 371.862 109.324 357.288L109.329 357.287L109.791 356.894L91.6381 340.346C87.2595 345.983 81.8051 350.694 75.5914 354.206C69.6374 357.67 64.0764 359.722 60.5843 361.361L60.5731 361.364C59.6483 361.774 58.7632 362.268 57.9289 362.841C57.8831 362.873 57.8429 362.905 57.7982 362.943C50.1126 368.718 47.1186 382.191 44.6845 388.527C43.5692 391.424 45.8797 397.218 49.7832 399.031Z" fill="#DB66C3"/>
<path opacity="0.81176" d="M60.5767 361.366C63.1471 362.704 83.8384 362.983 92.8766 355.524C87.2229 354.162 81.3871 353.717 75.5923 354.206C70.783 356.983 65.7623 359.377 60.5767 361.366Z" fill="#C55CAF"/>
<path d="M177.217 337.684C177.217 337.684 177.325 337.872 177.521 338.229C178.181 339.395 179.845 342.356 182.013 346.178C183.3 348.435 184.766 351 186.3 353.667C191.608 362.884 197.797 373.415 200.625 377.352C204.846 383.238 214.681 388.356 220.604 390.91C222.5 391.729 226.524 391.516 229.965 390.535C230.483 390.387 230.987 390.226 231.464 390.046C232.6 389.659 233.662 389.082 234.604 388.339C235.115 387.938 235.512 387.41 235.754 386.807C235.907 386.391 235.934 385.938 235.831 385.507C234.798 380.957 228.938 379.195 224.552 379.185C219.263 379.18 210.995 368.388 210.995 368.388L197.84 339.49L193.627 330.229L190.712 331.551L177.91 337.367L177.217 337.684Z" fill="#DB66C3"/>
<path opacity="0.81176" d="M177.521 338.228C178.567 340.085 182.163 346.479 186.3 353.667C191.5 350.311 194.77 344.114 197.05 338.364L193.627 330.228L177.91 337.366C177.769 337.646 177.641 337.935 177.521 338.228Z" fill="#C55CAF"/>
<path d="M14.35 403.553C14.6758 403.69 14.9792 403.803 15.2734 403.9L15.279 403.899C16.3774 404.245 17.2489 404.312 17.6958 403.986C17.8176 403.897 17.9393 403.808 18.0487 403.715C18.915 403.071 19.5883 402.202 19.9958 401.203L20.0002 401.196C21.8135 396.44 14.9558 391.212 14.9558 391.212L23.7295 376.156C23.7295 376.156 48.2772 363.078 60.5732 361.364L60.5844 361.361C61.1525 361.286 61.696 361.232 62.2094 361.203C76.7604 360.409 86.4643 354.202 86.4643 354.202C86.4831 354.217 86.5051 354.226 86.5284 354.23C87.3827 354.638 97.3643 355.752 109.324 357.288L109.329 357.287C125.27 359.336 152.355 359.214 154.835 358.926C154.947 358.903 155.01 358.896 155.01 358.896C155.01 358.896 172.335 381.813 185.419 393.542C191.728 399.198 197.741 403.099 202.721 403.588C204.942 403.803 209.541 402.836 212.778 401.173C213.253 400.931 213.714 400.663 214.159 400.37C214.862 399.922 215.465 399.333 215.929 398.641C216.278 398.116 216.409 397.475 216.292 396.856C216.238 396.582 216.162 396.312 216.062 396.051L216.061 396.045C214.168 390.778 205.676 392.855 205.676 392.855C205.676 392.855 195.385 387.048 193.534 384.802C190.039 380.541 177.828 355.243 177.304 353.746L177.307 353.728C177.248 353.53 177.209 353.421 177.209 353.421C177.209 353.421 179.029 350.888 182.013 346.178C184.324 342.54 187.322 337.611 190.711 331.551C190.866 331.28 191.02 331.009 191.174 330.732C193.29 326.912 197.193 324.517 198.844 317.892C198.988 317.314 204.763 317.523 204.995 316.752C207.419 308.631 214.128 291.051 215.056 289.658C216.947 286.819 219.444 286.388 222.511 286.371C223.548 286.362 224.647 286.399 225.81 286.405C230.054 286.438 235.144 286.07 240.996 281.541C250.997 273.797 249.837 258.23 242.783 257.104C238.541 256.429 234.135 254.696 228.207 251.751C227.908 251.603 227.608 251.448 227.312 251.287C223.113 249.077 219.694 245.631 217.516 241.416C210.765 228.578 191.727 231.28 185.472 236.323C175.985 243.98 180.301 261.589 178.918 270.57C178.226 275.072 175.015 280.015 170.706 284.583C168.544 286.856 166.222 288.971 163.759 290.913C162.383 292.001 160.979 293.036 159.57 293.991C158.357 294.818 157.143 295.587 155.951 296.292C151.878 298.638 147.595 300.596 143.156 302.142C141.878 302.597 140.57 303.029 139.232 303.438C132.851 305.41 126.267 306.654 119.606 307.147C117.317 307.308 115.023 307.365 112.751 307.3C107.414 307.211 102.124 306.297 97.066 304.591C96.1225 304.26 95.2074 303.954 94.3209 303.673C92.7475 303.173 91.272 302.752 89.8753 302.403C84.8702 301.137 80.9584 300.761 77.7961 300.909L77.7905 300.91C72.1945 301.172 68.9481 303.07 66.2042 304.573C54.2327 311.135 49.7819 328.228 46.516 334.181C36.7597 351.984 19.1792 358.261 15.3376 362.576C11.5149 366.868 5.36196 385.052 4.41249 394.241C4.10376 397.229 10.2162 401.869 14.35 403.553Z" fill="#DB66C3"/>
<path d="M162.417 264.397C156.663 261.476 154.909 254.601 156.444 249.58C157.979 244.559 168.643 245.937 173.95 245.717C184.823 245.265 185.847 238.16 190.173 240.584C195.957 243.824 192.018 257.052 185.84 261.996C182.584 264.615 178.64 266.235 174.483 266.661C170.327 267.087 166.136 266.301 162.417 264.397Z" fill="#6256EA"/>
<path d="M147.068 309.364C148.876 310.564 151.034 311.125 153.197 310.959C158.33 310.571 162.701 305.681 162.509 300.537C162.373 298.067 161.326 295.735 159.571 293.991C158.357 294.818 157.144 295.587 155.952 296.293C151.879 298.638 147.596 300.596 143.157 302.142C143.213 303.565 143.594 304.956 144.272 306.208C144.951 307.46 145.907 308.54 147.068 309.364Z" fill="#6256EA"/>
<path d="M119.392 316.332C121.385 317.142 123.623 316.105 125.775 316.124C128.399 316.139 130.72 317.694 133.062 318.865C135.41 320.04 138.351 320.831 140.557 319.409C143.603 317.447 143.11 312.826 141.667 309.498C140.815 307.537 139.742 305.493 139.232 303.438C132.851 305.41 126.267 306.654 119.607 307.147C119.073 307.561 118.593 308.04 118.178 308.573C116.324 310.973 116.578 315.193 119.392 316.332Z" fill="#6256EA"/>
<path d="M99.6391 315.187C103.114 317.159 107.68 316.968 110.494 314.19C111.351 313.276 111.996 312.185 112.386 310.995C112.776 309.805 112.9 308.544 112.751 307.3C107.414 307.211 102.124 306.297 97.0662 304.591C96.1226 304.26 95.2076 303.954 94.321 303.673C94.0491 304.715 93.9669 305.797 94.0785 306.868C94.2962 308.591 94.912 310.24 95.8771 311.684C96.8423 313.128 98.1302 314.327 99.6391 315.187Z" fill="#6256EA"/>
<path d="M221.362 286.251C229.235 288.027 235.144 286.07 240.996 281.542C250.997 273.797 249.837 258.23 242.783 257.105C238.541 256.429 234.135 254.696 228.207 251.752C227.908 251.603 227.608 251.449 227.312 251.287C224.021 256.72 216.412 258.859 216.479 268.454C216.521 274.331 218.757 280.984 221.362 286.251Z" fill="#FBF2EB"/>
<path d="M79.5119 306.107C80.6121 307.457 80.9258 309.383 82.237 310.538C83.7339 311.859 86.1918 311.663 87.7507 310.415C89.3096 309.167 90.0479 307.107 90.1105 305.109C90.1328 304.201 90.0541 303.293 89.8757 302.403C84.8706 301.137 80.9588 300.761 77.7965 300.909L77.7909 300.91C77.5599 301.097 77.3685 301.329 77.228 301.591C77.0874 301.854 77.0005 302.142 76.9724 302.438C76.8782 303.969 78.5381 304.918 79.5119 306.107Z" fill="#6256EA"/>
<path d="M163.759 290.913C163.906 291.438 164.175 291.92 164.545 292.321C164.914 292.722 165.373 293.03 165.885 293.219C167.727 293.833 169.667 292.682 171.112 291.387C172.31 290.318 173.464 288.861 173.198 287.282C173.076 286.752 172.836 286.257 172.496 285.833C172.157 285.408 171.726 285.066 171.236 284.831C171.065 284.737 170.888 284.654 170.707 284.583C168.544 286.855 166.223 288.971 163.759 290.913Z" fill="#6256EA"/>
<path d="M174.909 340.748C174.704 345.201 175.524 349.641 177.306 353.727C177.248 353.527 177.211 353.42 177.211 353.42C177.211 353.42 190.713 350.026 198.738 335.602C199.222 334.704 199.652 333.777 200.026 332.828C200.258 332.256 200.957 331.479 203.148 330.833C204.625 330.446 205.943 329.607 206.918 328.433C207.009 328.353 207.076 328.249 207.111 328.133C207.146 328.016 207.147 327.893 207.114 327.776C207.082 327.659 207.017 327.553 206.927 327.472C206.837 327.39 206.726 327.336 206.607 327.314C205.828 327.217 205.068 327.007 204.351 326.69C202.813 325.951 202.784 324.921 202.784 324.921C203.515 324.787 204.237 324.61 204.946 324.391C207.599 323.541 208.877 322.248 209.442 321.462C209.496 321.386 209.532 321.299 209.548 321.207C209.564 321.115 209.56 321.021 209.535 320.931C209.511 320.841 209.466 320.758 209.406 320.687C209.345 320.617 209.269 320.56 209.184 320.522C207.368 319.701 205.888 318.283 204.99 316.504C203.145 316.199 200.057 314.488 196.522 317.91C192.969 321.35 192.699 324.96 189.083 330.771C185.05 337.252 181.782 340.419 174.909 340.748Z" fill="#FBF2EB"/>
<path d="M86.5318 354.233C93.1602 357.804 100.352 360.213 107.794 361.355C124.29 363.809 151.727 360.194 155.269 359.237C153.243 356.91 151.72 354.437 150.005 348.249C129.545 352.992 111.649 353.486 91.9445 346.624C91.243 346.365 92.0765 349.253 86.5318 354.233Z" fill="#FBF2EB"/>
<path d="M245.789 257.657C244.517 254.197 233.737 255.87 231.963 259.092C230.278 262.155 239.42 267.273 241.447 267.094C243.247 266.935 246.871 260.599 245.789 257.657Z" fill="#6256EA"/>
<path d="M237.329 276.794C236.598 276.774 235.883 276.571 235.251 276.205C234.545 275.81 233.945 275.251 233.501 274.574C233.057 273.898 232.782 273.125 232.701 272.32C232.697 272.245 232.707 272.17 232.732 272.099C232.757 272.029 232.796 271.963 232.846 271.907C232.896 271.852 232.957 271.806 233.024 271.774C233.092 271.741 233.165 271.722 233.24 271.718C233.315 271.714 233.39 271.725 233.461 271.75C233.532 271.775 233.597 271.813 233.653 271.863C233.709 271.913 233.754 271.974 233.787 272.042C233.819 272.109 233.838 272.183 233.842 272.258C233.91 272.872 234.125 273.461 234.468 273.975C234.812 274.489 235.274 274.913 235.815 275.211C236.259 275.48 236.765 275.63 237.284 275.648C237.803 275.665 238.318 275.549 238.78 275.31C241.111 274.086 240.98 272.694 240.692 269.646C240.626 268.942 240.55 268.144 240.503 267.269C240.494 267.118 240.547 266.969 240.648 266.856C240.749 266.743 240.891 266.675 241.042 266.667C241.194 266.659 241.342 266.711 241.455 266.812C241.568 266.913 241.636 267.055 241.644 267.207C241.691 268.059 241.765 268.845 241.83 269.539C242.126 272.672 242.322 274.741 239.311 276.323C238.701 276.645 238.019 276.808 237.329 276.794Z" fill="#6256EA"/>
<path d="M244.541 275.369C242.923 275.335 241.241 274.072 240.793 271.455C240.779 271.381 240.781 271.304 240.797 271.231C240.813 271.157 240.844 271.087 240.887 271.025C240.93 270.963 240.985 270.91 241.049 270.87C241.113 270.83 241.184 270.802 241.259 270.789C241.333 270.777 241.41 270.779 241.483 270.796C241.557 270.813 241.626 270.844 241.688 270.888C241.749 270.932 241.801 270.988 241.841 271.052C241.881 271.116 241.908 271.188 241.92 271.262C242.297 273.465 243.726 274.406 244.947 274.197C245.707 274.067 246.51 273.422 246.272 272.033C246.248 271.884 246.284 271.732 246.372 271.609C246.459 271.487 246.592 271.404 246.74 271.379C246.889 271.353 247.041 271.387 247.165 271.474C247.288 271.56 247.372 271.692 247.399 271.84C247.753 273.908 246.476 275.096 245.14 275.324C244.942 275.358 244.742 275.373 244.541 275.369Z" fill="#6256EA"/>
<path d="M216.872 248.854C216.99 251.01 214.778 252.939 217.488 253.212L217.5 253.211C217.898 253.251 218.298 253.259 218.697 253.237C221.958 253.059 224.495 250.914 224.361 248.445C224.226 245.977 221.47 244.121 218.209 244.299C217.807 244.321 217.407 244.373 217.013 244.456L217.009 244.456C214.346 245.022 216.754 246.699 216.872 248.854Z" fill="#FBF2EB"/>
<path d="M212.543 249.091C212.66 251.246 214.779 252.939 217.489 253.212L217.501 253.211C218.577 253.039 219.551 252.473 220.235 251.624C220.919 250.775 221.264 249.703 221.203 248.614C221.143 247.526 220.681 246.498 219.908 245.73C219.134 244.962 218.103 244.508 217.014 244.456L217.01 244.456C214.347 245.022 212.425 246.936 212.543 249.091Z" fill="#6256EA"/>
<path d="M202.525 255.688C202.643 257.843 200.432 259.772 203.141 260.045L203.153 260.044C203.551 260.084 203.951 260.092 204.35 260.07C207.611 259.892 210.148 257.747 210.014 255.279C209.879 252.81 207.123 250.954 203.862 251.132C203.46 251.154 203.06 251.206 202.666 251.289L202.662 251.289C199.999 251.856 202.407 253.532 202.525 255.688Z" fill="#FBF2EB"/>
<path d="M198.195 255.924C198.312 258.08 200.432 259.772 203.141 260.045L203.153 260.045C204.229 259.872 205.203 259.306 205.887 258.457C206.571 257.608 206.916 256.536 206.856 255.448C206.795 254.359 206.333 253.332 205.56 252.564C204.786 251.795 203.755 251.341 202.666 251.289L202.662 251.289C199.999 251.856 198.077 253.769 198.195 255.924Z" fill="#6256EA"/>
<path d="M72.6708 306.751C50.7027 300.722 36.255 285.154 24.9644 262.251C24.5705 261.452 23.1612 261.685 23.2793 262.529C26.266 283.878 35.021 296.468 57.5037 312.152C59.4952 313.541 62.5008 312.492 64.7735 313.292C67.0461 314.091 70.802 309.271 72.6708 306.751Z" fill="#DB66C3"/>
<path opacity="0.81176" d="M198.418 275.315C202.514 281.337 208.802 286.291 215.056 289.659C216.948 286.819 219.445 286.388 222.511 286.371C222.516 286.364 222.516 286.364 222.521 286.363C213.375 285.539 207.647 283.908 198.418 275.315Z" fill="#C55CAF"/>
<path d="M113.689 324.55C116.206 324.431 118.166 322.633 118.067 320.533C117.968 318.433 115.847 316.827 113.33 316.945C110.813 317.064 108.853 318.863 108.952 320.963C109.051 323.062 111.172 324.669 113.689 324.55Z" fill="#6256EA"/>
<path d="M64.7046 356.021C67.2216 355.903 69.1818 354.104 69.0828 352.004C68.9838 349.904 66.8631 348.298 64.3461 348.417C61.829 348.535 59.8688 350.334 59.9678 352.434C60.0668 354.534 62.1875 356.14 64.7046 356.021Z" fill="#6256EA"/>
<path d="M56.7428 348.195C55.2949 347.51 53.5193 347.917 52.1939 348.817C50.9207 349.795 49.826 350.985 48.9582 352.336C48.2351 353.331 47.4733 354.497 47.7433 355.697C48.1001 357.283 50.0501 357.943 51.6715 357.828C52.7976 357.765 53.8924 357.434 54.8655 356.864C55.8385 356.293 56.6617 355.499 57.267 354.548C58.4105 352.611 58.8711 349.203 56.7428 348.195Z" fill="#6256EA"/>
<path d="M228.713 381.535C230.112 382.2 231.357 383.148 232.371 384.319C233.385 385.49 234.146 386.859 234.604 388.339C235.115 387.938 235.512 387.41 235.754 386.807C235.325 385.388 234.424 384.158 233.2 383.322C231.841 382.427 230.314 381.819 228.713 381.535Z" fill="#6256EA"/>
<path d="M224.347 384.492C226.927 385.709 228.939 387.873 229.965 390.535C230.483 390.387 230.987 390.225 231.464 390.046C231.082 388.508 230.147 387.165 228.839 386.272C227.478 385.379 225.949 384.774 224.347 384.492Z" fill="#6256EA"/>
<path d="M209.277 393.674C212.053 394.408 214.437 396.188 215.929 398.641C216.279 398.116 216.409 397.475 216.292 396.856C216.239 396.582 216.162 396.312 216.063 396.051L216.061 396.045C215.468 395.453 214.776 394.969 214.017 394.615C212.517 393.984 210.904 393.663 209.277 393.674Z" fill="#6256EA"/>
<path d="M206.225 396.35C208.941 397.071 211.282 398.795 212.778 401.173C213.254 400.931 213.715 400.663 214.16 400.37C213.487 399.002 212.357 397.913 210.965 397.291C209.465 396.66 207.853 396.34 206.225 396.35Z" fill="#6256EA"/>
<path d="M53.5667 399.433C54.3176 399.249 54.9698 398.785 55.3899 398.136C55.4175 397.709 55.4018 397.28 55.343 396.856C55.088 395.414 54.5435 394.039 53.7423 392.813C54.4516 394.974 54.3896 397.313 53.5667 399.433Z" fill="#6256EA"/>
<path d="M49.784 399.031C50.229 399.247 50.7007 399.403 51.1868 399.496C51.7993 398.371 52.0255 397.075 51.8305 395.809C51.5728 394.368 51.0285 392.993 50.2298 391.766C51.0082 394.157 50.8488 396.754 49.784 399.031Z" fill="#6256EA"/>
<path d="M18.0491 403.715C18.9153 403.071 19.5887 402.202 19.9961 401.203L20.0005 401.196C19.9823 400.541 19.8667 399.892 19.6576 399.27C19.1307 397.886 18.3294 396.624 17.3018 395.557C17.9715 396.796 18.383 398.158 18.5115 399.56C18.6399 400.962 18.4826 402.376 18.0491 403.715Z" fill="#6256EA"/>
<path d="M14.3502 403.553C14.6761 403.69 14.9794 403.803 15.2737 403.9L15.2793 403.899C15.4722 403.837 15.6412 403.716 15.763 403.554C16.4362 402.126 16.5157 400.49 15.9841 399.003C15.462 397.617 14.66 396.353 13.6282 395.29C14.3064 396.545 14.7204 397.926 14.8446 399.347C14.9688 400.768 14.8006 402.199 14.3502 403.553Z" fill="#6256EA"/>
</g>
<g filter="url(#filter4_d_2999_16366)">
<path d="M601.351 404.681C603.679 405.699 606.182 406.18 608.715 406.18C616.695 406.18 624.965 401.424 629.019 393.714C633.472 385.233 633.04 373.842 627.883 363.974C626.49 361.3 624.836 358.833 623.239 356.456C621.885 354.43 620.608 352.527 619.494 350.524C618.849 349.365 618.296 348.235 617.851 347.139C617.39 345.996 617.041 344.889 616.804 343.825C616.333 341.741 616.293 339.804 616.692 338.036C616.929 336.972 617.429 335.911 618.108 334.973C619.501 333.039 621.655 331.653 623.802 331.966C625.798 332.259 627.652 330.863 627.942 328.857C628.235 326.851 626.845 324.984 624.849 324.694C617.271 323.591 611.011 329.924 609.555 336.422C608.356 341.78 609.548 347.741 613.115 354.124C614.373 356.386 615.796 358.511 617.176 360.563C618.734 362.888 620.199 365.081 621.414 367.4C623.456 371.306 624.573 375.468 624.754 379.454C624.856 381.607 624.682 383.712 624.227 385.691V385.698C623.855 387.321 623.298 388.863 622.551 390.289C622.426 390.519 622.297 390.753 622.162 390.977C618.408 397.304 610.227 400.554 604.252 397.949C602.402 397.142 600.248 397.995 599.444 399.856C598.641 401.724 599.494 403.881 601.344 404.691L601.351 404.681Z" fill="#E5755E"/>
<path d="M617.273 348.565C617.273 348.565 617.474 347.909 617.853 347.135C617.392 345.992 617.043 344.886 616.805 343.822C616.335 341.737 616.295 339.801 616.693 338.032C616.931 336.968 617.431 335.908 618.11 334.969C616.568 336.356 615.574 338.368 615.343 340.436C614.872 344.695 617.273 348.568 617.273 348.568V348.565Z" fill="#E5755E"/>
<path d="M622.302 393.338C622.302 393.338 625.619 391.184 626.35 386.04C626.676 383.745 626.165 381.275 624.759 379.447C624.861 381.601 624.687 383.705 624.232 385.685V385.691C623.86 387.315 623.303 388.856 622.556 390.282C622.431 390.513 622.302 390.746 622.167 390.97C622.589 392.202 622.302 393.338 622.302 393.338Z" fill="#E5755E"/>
<path d="M524.112 319.23C516.59 319.47 516.037 330.184 516.037 330.184C516.037 330.184 516.613 332.443 516.761 332.341C516.804 332.311 517.097 332.285 517.483 332.252C518.375 332.19 519.791 332.13 519.897 332.061C520.697 331.498 526.269 331.659 528.203 330.892C528.252 330.872 528.364 328.537 528.364 328.537C528.364 328.537 550.644 339.531 553.667 336.922C555.97 334.936 551.197 322.369 551.197 322.369C551.197 322.369 529.991 319.036 524.112 319.227V319.23Z" fill="#FF8268"/>
<path d="M528.202 330.892C527.896 337.393 527.576 339.755 524.925 340.219C524.57 340.285 523.736 338.46 523.292 338.46C523.064 338.46 523.278 340.305 523.061 340.291C521.912 340.216 520.911 339.952 520.051 339.537C519.715 339.372 519.178 337.541 518.885 337.337C518.592 337.133 518.539 338.556 518.286 338.312C516.204 336.31 515.526 333.115 516.033 330.184C517.153 328.504 524.365 328.886 528.199 330.895L528.202 330.892Z" fill="#FDC5A6"/>
<path d="M520.053 339.537C519.378 339.211 518.792 338.796 518.288 338.309C518.087 336.138 519.016 334.396 519.418 333.882C519.059 336.273 519.227 337.986 520.05 339.537H520.053Z" fill="#6256EA"/>
<path d="M524.928 340.219C524.572 340.285 524.177 340.311 523.733 340.311C523.505 340.311 523.278 340.302 523.061 340.288C521.559 337.176 522.998 334.538 523.565 333.893C523.245 336.573 523.624 338.447 524.928 340.216V340.219Z" fill="#6256EA"/>
<path d="M539.707 404.463C539.904 404.477 542.252 405.968 542.45 405.988C543.527 406.08 543.965 409.693 549.745 409.588C556.839 409.446 565.191 409.578 566.42 409.532C569.924 409.403 574.034 386.613 568.646 378.165C564.378 371.477 561.792 367.327 550.957 369.003C545.378 369.866 540.135 385.362 556.134 400.373C554.329 400.215 547.16 399.909 542.829 400.373C537.408 400.953 539.509 404.44 539.707 404.46V404.463Z" fill="#FF8268"/>
<path d="M533.096 408.277C533.136 408.57 533.759 407.836 533.831 408.119C534.18 408.178 533.976 409.246 534.322 409.301C534.997 409.394 535.665 409.483 536.337 409.552C536.541 409.575 537.111 408.205 537.309 408.225C537.506 408.238 537.329 409.651 537.526 409.67C538.603 409.763 543.961 409.693 549.745 409.588C549.083 407.698 548.388 405.801 547.173 404.072C546.142 402.606 544.693 401.256 542.829 400.376C537.408 400.956 532.283 402.876 533.096 408.281V408.277Z" fill="#FDC5A6"/>
<path d="M533.096 408.281C533.096 408.281 533.181 408.623 533.524 408.936C533.916 409.295 534.324 409.302 534.324 409.302C534.324 409.302 534.301 406.897 535.253 405.274C536.099 404.111 536.597 403.723 538.359 402.682C537.562 402.596 536.109 403.008 534.821 403.989C533.224 405.205 533.099 408.277 533.099 408.277L533.096 408.281Z" fill="#6256EA"/>
<path d="M535.728 409.486C536.123 409.532 537.131 409.634 537.526 409.671C537.526 408.136 537.974 407.342 538.462 406.644C538.771 406.094 539.835 405.033 541.594 403.993C540.464 404.131 538.478 404.763 537.717 405.55C536.357 406.953 536.031 408.096 535.728 409.486Z" fill="#6256EA"/>
<path d="M565.815 408.87L571.375 409.549C571.375 409.549 562.469 386.966 550.952 379.727C551.943 391.725 565.812 408.867 565.812 408.867L565.815 408.87Z" fill="#E5755E"/>
<path d="M601.945 409.4C600.921 410.754 584.204 409.4 584.204 409.4C584.204 409.4 585.202 382.197 563.465 370.008C554.296 364.874 551.411 363.596 548.631 358.81C542.496 348.252 540.533 317.705 540.533 317.705C540.533 317.705 542.4 309.785 544.238 306.221C544.729 304.374 573.339 296.627 573.339 296.627C573.339 296.627 573.579 297.494 574.024 298.956C574.109 299.233 574.281 300.659 574.653 302.905C574.781 303.659 571.415 306.725 571.593 307.654C571.771 308.579 575.489 307.367 575.726 308.441C577.152 314.889 579.734 323.772 584.447 332.381C597.934 357.019 622.262 382.576 601.949 409.404L601.945 409.4Z" fill="#FF8268"/>
<path d="M575.724 308.438C567.227 311.155 555.39 312.808 545.312 308.177C553.542 309.761 566.324 307.341 574.65 302.901C574.907 304.41 575.249 306.287 575.724 308.438Z" fill="#E5755E"/>
<path d="M544.768 369.395C551.865 385.77 570.012 407.734 570.012 407.734C570.012 407.734 581.045 410.204 593.23 409.901C589.779 386.841 578.417 385.227 561.976 345.456C556.957 333.316 554.977 329.044 552.955 320.926C551.042 313.223 544.764 310.964 540.76 317.023C540.239 317.811 533.778 344.046 544.768 369.392V369.395Z" fill="#FDC5A6"/>
<path d="M528.421 283.573C528.445 283.079 530.256 283.164 530.696 281.454C533.766 269.49 545.037 260.907 558.041 261.511C571.041 262.114 581.466 271.71 583.413 283.908C583.691 285.652 587.691 285.363 587.345 286.215C585.979 289.559 583.906 290.453 583.906 290.453C583.906 290.453 578.378 310.947 555.549 309.886C533.626 308.682 530.658 288.88 530.658 288.88C530.658 288.88 528.291 286.451 528.425 283.57L528.421 283.573Z" fill="#FF8268"/>
<path d="M528.775 279.586C528.792 279.172 532.248 279.269 532.663 277.841C535.558 267.85 545.045 262.46 558.04 263.152C571.032 263.845 579.606 270.396 581.726 280.655C582.028 282.122 587.995 281.937 587.661 282.646C586.345 285.431 584.288 286.151 584.288 286.151C584.288 286.151 579.06 303.261 556.245 302.045C534.332 300.72 531.084 284.069 531.084 284.069C531.084 284.069 528.686 281.998 528.778 279.583L528.775 279.586Z" fill="#FF8268"/>
<path d="M541.617 279.854C541.617 279.854 538.211 276.207 541.483 276.649C541.855 276.697 542.205 276.786 542.531 276.907C545.563 277.98 546.885 281.572 546.885 281.572C546.885 281.572 544.169 284.896 540.395 284.329C539.713 284.229 539.087 283.957 538.537 283.592C536.432 282.205 541.617 279.857 541.617 279.857L541.617 279.854Z" fill="#FBF2EB"/>
<path d="M535.306 279.457C535.306 279.457 538.211 276.209 541.484 276.649C541.856 276.697 542.206 276.786 542.531 276.907C543.421 277.816 543.871 279.082 543.636 280.367C543.23 282.588 540.95 284.03 538.541 283.59C536.436 282.203 535.306 279.457 535.306 279.457Z" fill="#6256EA"/>
<path d="M558.647 282.017C558.647 282.017 555.241 278.369 558.513 278.811C558.885 278.86 559.235 278.949 559.561 279.069C562.593 280.142 563.915 283.734 563.915 283.734C563.915 283.734 561.199 287.058 557.425 286.491C556.743 286.392 556.117 286.119 555.567 285.755C553.462 284.368 558.647 282.019 558.647 282.019L558.647 282.017Z" fill="#FBF2EB"/>
<path d="M552.336 281.62C552.336 281.62 555.241 278.372 558.514 278.811C558.886 278.86 559.236 278.949 559.561 279.069C560.451 279.979 560.901 281.245 560.666 282.53C560.26 284.75 557.98 286.193 555.571 285.753C553.466 284.365 552.336 281.62 552.336 281.62Z" fill="#6256EA"/>
<path d="M536.778 289.055C537.136 289.04 537.414 288.728 537.399 288.36C537.383 287.991 537.08 287.704 536.722 287.719C536.364 287.734 536.087 288.045 536.102 288.414C536.118 288.783 536.42 289.07 536.778 289.055Z" fill="#6256EA"/>
<path d="M539.959 287.21C540.317 287.195 540.594 286.884 540.579 286.515C540.563 286.146 540.26 285.859 539.902 285.874C539.544 285.889 539.267 286.2 539.282 286.569C539.298 286.938 539.601 287.225 539.959 287.21Z" fill="#6256EA"/>
<path d="M539.669 290.437C540.027 290.422 540.305 290.111 540.289 289.742C540.274 289.373 539.971 289.086 539.613 289.101C539.255 289.116 538.977 289.428 538.993 289.796C539.008 290.165 539.311 290.452 539.669 290.437Z" fill="#6256EA"/>
<path d="M561.347 403.759C561.581 403.775 564.387 405.597 564.621 405.62C565.905 405.732 566.429 410.138 573.328 410.007C581.792 409.832 591.765 409.993 593.23 409.941C597.413 409.786 602.32 381.999 595.888 371.704C590.793 363.55 588.066 360.974 575.13 363.016C568.471 364.07 565.638 383.462 580.956 398.779C578.802 398.588 570.242 398.213 565.075 398.779C558.607 399.484 561.113 403.739 561.347 403.762V403.759Z" fill="#FF8268"/>
<path d="M553.464 408.413C553.51 408.772 554.254 407.876 554.34 408.222C554.755 408.294 554.511 409.595 554.926 409.661C555.733 409.773 556.53 409.881 557.33 409.964C557.574 409.993 558.256 408.32 558.489 408.343C558.723 408.36 558.512 410.082 558.746 410.105C560.031 410.217 566.43 410.135 573.326 410.003C572.536 407.698 571.706 405.386 570.257 403.278C569.028 401.493 567.296 399.843 565.073 398.773C558.605 399.478 552.489 401.819 553.46 408.409L553.464 408.413Z" fill="#FDC5A6"/>
<path d="M553.459 408.416C553.459 408.416 553.561 408.834 553.97 409.216C554.437 409.654 554.921 409.661 554.921 409.661C554.921 409.661 554.895 406.73 556.028 404.753C557.036 403.334 557.632 402.863 559.733 401.595C558.781 401.49 557.049 401.994 555.511 403.189C553.604 404.671 553.456 408.416 553.456 408.416H553.459Z" fill="#6256EA"/>
<path d="M556.598 409.881C557.069 409.937 558.274 410.062 558.742 410.105C558.742 408.231 559.276 407.266 559.855 406.413C560.224 405.745 561.492 404.45 563.593 403.182C562.243 403.354 559.875 404.121 558.969 405.079C557.349 406.792 556.96 408.185 556.595 409.878L556.598 409.881Z" fill="#6256EA"/>
<path d="M595.889 409.96H599.769C599.769 409.96 603.985 396.256 599.018 377.438C600.355 400.811 595.889 409.96 595.889 409.96Z" fill="#E5755E"/>
<path d="M557.706 291.081C558.064 291.066 558.342 290.755 558.326 290.386C558.31 290.017 558.008 289.73 557.65 289.745C557.292 289.76 557.014 290.071 557.03 290.44C557.045 290.809 557.348 291.096 557.706 291.081Z" fill="#6256EA"/>
<path d="M554.381 289.51C554.739 289.495 555.017 289.183 555.002 288.814C554.986 288.445 554.683 288.159 554.325 288.174C553.967 288.189 553.69 288.5 553.705 288.869C553.721 289.238 554.023 289.525 554.381 289.51Z" fill="#6256EA"/>
<path d="M554.94 292.698C555.298 292.682 555.576 292.371 555.56 292.002C555.544 291.633 555.242 291.347 554.884 291.362C554.526 291.377 554.248 291.688 554.263 292.057C554.279 292.426 554.582 292.713 554.94 292.698Z" fill="#6256EA"/>
<path d="M572.934 283.266C573.237 284.066 574.129 284.465 574.88 284.136C577.66 282.91 583.775 279.66 585.88 274.071C587.336 270.208 588.864 266.723 589.819 264.622C590.25 263.674 589.555 262.551 588.511 262.511C587.309 262.465 585.56 262.373 583.11 262.192C573.763 261.507 569.117 265.294 567.582 266.911C567.206 267.306 567.094 267.896 567.295 268.426L572.93 283.266H572.934Z" fill="#FF8268"/>
<path d="M547.907 263.713C548.318 263.173 548.364 262.317 548.002 261.846C546.668 260.097 543.408 256.458 539.617 256.873C536.999 257.159 534.588 257.248 533.126 257.271C532.467 257.281 531.947 258.252 532.148 259.096C532.382 260.067 532.704 261.49 533.126 263.499C534.74 271.173 538.007 273.445 539.301 274.061C539.617 274.212 539.993 274.081 540.266 273.722L547.9 263.716L547.907 263.713Z" fill="#FF8268"/>
<path d="M579.234 277.351C579.524 277.95 580.311 278.089 580.782 277.618C581.988 276.412 583.895 274.206 584.517 271.808C585.074 269.654 585.762 268.166 586.319 267.204C586.734 266.493 586.246 265.597 585.423 265.544C584.471 265.482 583.203 265.465 581.701 265.597C577.802 265.939 574.765 267.721 573.277 268.775C572.753 269.144 572.727 269.908 573.221 270.316C574.182 271.11 575.711 272.46 577.044 274.002C578.108 275.23 578.813 276.468 579.238 277.344L579.234 277.351Z" fill="#FDC5A6"/>
<path d="M547.722 289.695C547.652 290.771 547.577 291.858 547.277 292.899C546.799 294.552 546.141 296.877 543.374 296.377C541.82 296.097 540.963 294.467 541.118 293.396" fill="#FF8268"/>
<path d="M543.455 298.228C543.201 298.228 542.928 298.202 542.635 298.149C540.879 297.833 539.799 296.038 540.003 294.645C540.039 294.391 540.276 294.217 540.53 294.253C540.784 294.289 540.958 294.526 540.922 294.78C540.8 295.6 541.489 296.996 542.803 297.237C544.97 297.629 545.592 296.12 546.172 294.108C546.471 293.07 546.541 291.961 546.606 290.982C546.623 290.726 546.85 290.535 547.1 290.551C547.357 290.568 547.552 290.788 547.535 291.045C547.469 292.073 547.394 293.235 547.074 294.348C546.643 295.847 545.954 298.231 543.461 298.231L543.455 298.228Z" fill="#6256EA"/>
<path d="M547.864 289.721C547.67 290.785 547.353 292.026 547.4 293.271C547.485 295.573 548.691 297.576 551.464 297.576C553.361 297.576 554.912 296.12 555.001 295.043" fill="#FF8268"/>
<path d="M550.805 299.354C548.121 299.354 546.386 297.533 546.277 294.605C546.237 293.542 546.445 292.494 546.629 291.569C546.672 291.358 546.712 291.154 546.748 290.956C546.794 290.706 547.038 290.538 547.288 290.584C547.542 290.63 547.706 290.874 547.66 291.124C547.624 291.328 547.581 291.536 547.538 291.75C547.364 292.626 547.166 293.617 547.202 294.572C547.245 295.732 547.683 298.429 550.802 298.429C552.455 298.429 553.806 297.151 553.878 296.321C553.898 296.064 554.125 295.873 554.379 295.896C554.636 295.916 554.823 296.143 554.804 296.397C554.688 297.764 552.916 299.354 550.805 299.354Z" fill="#6256EA"/>
<path d="M546.225 292.731L543.603 287.343C543.323 286.767 543.804 286.112 544.44 286.207L551.175 287.238C551.81 287.334 552.074 288.104 551.632 288.572L547.519 292.932C547.137 293.337 546.468 293.235 546.221 292.735L546.225 292.731Z" fill="#6256EA"/>
<path d="M548.029 339.508C548.029 339.508 573.833 347.165 574.403 335.822C574.568 332.496 573.767 329.206 572.967 325.972C574.093 331.686 577.851 337.749 574.775 343.015C571.396 348.802 563.554 346.756 560.518 345.785C554.54 343.868 548.029 339.508 548.029 339.508Z" fill="#E5755E"/>
<path d="M537.344 326.416C529.203 326.683 528.603 338.424 528.603 338.424C528.603 338.424 529.226 340.901 529.387 340.789C529.433 340.756 529.749 340.726 530.168 340.693C531.136 340.624 532.667 340.561 532.779 340.482C533.645 339.867 539.676 340.041 541.77 339.201C541.826 339.178 541.945 336.619 541.945 336.619C541.945 336.619 560.559 348.983 570.726 344.425C577.925 341.197 574.609 330.227 574.609 330.227C574.609 330.227 543.704 326.202 537.341 326.41L537.344 326.416Z" fill="#FF8268"/>
<path d="M541.775 339.205C541.446 346.335 541.097 348.924 538.231 349.431C537.849 349.503 536.944 347.501 536.463 347.501C536.216 347.501 536.446 349.523 536.213 349.51C534.971 349.427 533.884 349.138 532.955 348.683C532.59 348.505 532.013 346.493 531.694 346.269C531.374 346.045 531.318 347.603 531.045 347.336C528.792 345.143 528.058 341.638 528.608 338.424C529.82 336.583 537.625 337.005 541.775 339.205Z" fill="#FDC5A6"/>
<path d="M532.952 348.683C532.224 348.324 531.588 347.87 531.041 347.336C530.827 344.958 531.829 343.045 532.267 342.482C531.881 345.103 532.059 346.984 532.952 348.68V348.683Z" fill="#6256EA"/>
<path d="M538.228 349.43C537.846 349.503 537.418 349.533 536.934 349.533C536.687 349.533 536.443 349.523 536.209 349.51C534.582 346.094 536.143 343.206 536.756 342.498C536.41 345.436 536.819 347.494 538.231 349.43H538.228Z" fill="#6256EA"/>
</g>
<defs>
<filter id="filter0_d_2999_16366" x="224.859" y="2.65902" width="353.578" height="344.49" filterUnits="userSpaceOnUse" color-interpolation-filters="sRGB">
<feFlood flood-opacity="0" result="BackgroundImageFix"/>
<feColorMatrix in="SourceAlpha" type="matrix" values="0 0 0 0 0 0 0 0 0 0 0 0 0 0 0 0 0 0 127 0" result="hardAlpha"/>
<feOffset dx="2.76072" dy="2.76072"/>
<feGaussianBlur stdDeviation="2.76072"/>
<feComposite in2="hardAlpha" operator="out"/>
<feColorMatrix type="matrix" values="0 0 0 0 0 0 0 0 0 0 0 0 0 0 0 0 0 0 0.25 0"/>
<feBlend mode="normal" in2="BackgroundImageFix" result="effect1_dropShadow_2999_16366"/>
<feBlend mode="normal" in="SourceGraphic" in2="effect1_dropShadow_2999_16366" result="shape"/>
</filter>
<filter id="filter1_d_2999_16366" x="426" y="333.87" width="85" height="83.8655" filterUnits="userSpaceOnUse" color-interpolation-filters="sRGB">
<feFlood flood-opacity="0" result="BackgroundImageFix"/>
<feColorMatrix in="SourceAlpha" type="matrix" values="0 0 0 0 0 0 0 0 0 0 0 0 0 0 0 0 0 0 127 0" result="hardAlpha"/>
<feOffset dx="-1" dy="-1"/>
<feGaussianBlur stdDeviation="4"/>
<feComposite in2="hardAlpha" operator="out"/>
<feColorMatrix type="matrix" values="0 0 0 0 0 0 0 0 0 0 0 0 0 0 0 0 0 0 0.12 0"/>
<feBlend mode="normal" in2="BackgroundImageFix" result="effect1_dropShadow_2999_16366"/>
<feBlend mode="normal" in="SourceGraphic" in2="effect1_dropShadow_2999_16366" result="shape"/>
</filter>
<filter id="filter2_d_2999_16366" x="552.593" y="68.7857" width="80.4102" height="64.2639" filterUnits="userSpaceOnUse" color-interpolation-filters="sRGB">
<feFlood flood-opacity="0" result="BackgroundImageFix"/>
<feColorMatrix in="SourceAlpha" type="matrix" values="0 0 0 0 0 0 0 0 0 0 0 0 0 0 0 0 0 0 127 0" result="hardAlpha"/>
<feOffset/>
<feGaussianBlur stdDeviation="1.45362"/>
<feComposite in2="hardAlpha" operator="out"/>
<feColorMatrix type="matrix" values="0 0 0 0 0 0 0 0 0 0 0 0 0 0 0 0 0 0 0.17 0"/>
<feBlend mode="normal" in2="BackgroundImageFix" result="effect1_dropShadow_2999_16366"/>
<feBlend mode="normal" in="SourceGraphic" in2="effect1_dropShadow_2999_16366" result="shape"/>
</filter>
<filter id="filter3_d_2999_16366" x="-2.47876" y="181.732" width="262.969" height="262.969" filterUnits="userSpaceOnUse" color-interpolation-filters="sRGB">
<feFlood flood-opacity="0" result="BackgroundImageFix"/>
<feColorMatrix in="SourceAlpha" type="matrix" values="0 0 0 0 0 0 0 0 0 0 0 0 0 0 0 0 0 0 127 0" result="hardAlpha"/>
<feOffset dx="2.21124" dy="4.42247"/>
<feGaussianBlur stdDeviation="2.845"/>
<feComposite in2="hardAlpha" operator="out"/>
<feColorMatrix type="matrix" values="0 0 0 0 0 0 0 0 0 0 0 0 0 0 0 0 0 0 0.12 0"/>
<feBlend mode="normal" in2="BackgroundImageFix" result="effect1_dropShadow_2999_16366"/>
<feBlend mode="normal" in="SourceGraphic" in2="effect1_dropShadow_2999_16366" result="shape"/>
</filter>
<filter id="filter4_d_2999_16366" x="479.998" y="241.733" width="192.378" height="192.378" filterUnits="userSpaceOnUse" color-interpolation-filters="sRGB">
<feFlood flood-opacity="0" result="BackgroundImageFix"/>
<feColorMatrix in="SourceAlpha" type="matrix" values="0 0 0 0 0 0 0 0 0 0 0 0 0 0 0 0 0 0 127 0" result="hardAlpha"/>
<feOffset dx="2.21124" dy="4.42247"/>
<feGaussianBlur stdDeviation="8.84494"/>
<feComposite in2="hardAlpha" operator="out"/>
<feColorMatrix type="matrix" values="0 0 0 0 0 0 0 0 0 0 0 0 0 0 0 0 0 0 0.1 0"/>
<feBlend mode="normal" in2="BackgroundImageFix" result="effect1_dropShadow_2999_16366"/>
<feBlend mode="normal" in="SourceGraphic" in2="effect1_dropShadow_2999_16366" result="shape"/>
</filter>
<linearGradient id="paint0_linear_2999_16366" x1="0" y1="335.428" x2="211.195" y2="-9.66725e-06" gradientUnits="userSpaceOnUse">
<stop stop-color="white" stop-opacity="0.33"/>
<stop offset="0.390033" stop-color="white" stop-opacity="0.2"/>
<stop offset="1" stop-color="white" stop-opacity="0"/>
</linearGradient>
<linearGradient id="paint1_linear_2999_16366" x1="4.64311e-07" y1="0.34509" x2="44.1716" y2="30.713" gradientUnits="userSpaceOnUse">
<stop stop-color="#F3F4F8"/>
<stop offset="1" stop-color="#F8F8FF"/>
</linearGradient>
<clipPath id="clip0_2999_16366">
<rect width="363.035" height="346.471" fill="white" transform="translate(214.516 0.529297)"/>
</clipPath>
<clipPath id="clip1_2999_16366">
<rect width="74.5395" height="24.1267" fill="white" transform="matrix(-0.988247 -0.152869 -0.421004 0.907059 323.395 285.966)"/>
</clipPath>
<clipPath id="clip2_2999_16366">
<rect width="41.4108" height="35.8894" fill="white" transform="matrix(-0.988247 -0.152869 -0.421004 0.907059 439.132 291.765)"/>
</clipPath>
<clipPath id="clip3_2999_16366">
<rect width="17.3531" height="22.0858" fill="white" transform="matrix(-0.988247 -0.152869 -0.421004 0.907059 405.397 54.3866)"/>
</clipPath>
<clipPath id="clip4_2999_16366">
<rect width="335.428" height="211.195" rx="11.0429" transform="matrix(-0.421004 0.907059 -0.988247 -0.152869 572.257 33.2954)" fill="white"/>
</clipPath>
</defs>
</svg>
