<svg xmlns="http://www.w3.org/2000/svg" width="98" height="70" viewBox="0 0 98 70" fill="none">
  <path d="M27.0413 26.1388C27.0413 26.2134 27.0413 26.2862 27.0413 26.3608C27.0413 26.4355 27.0413 26.5101 27.0413 26.5829C27.0413 26.6557 27.0955 26.7266 27.1049 26.8013C27.1142 26.8759 27.0394 26.9599 27.0525 27.0327C27.0656 27.1055 27.1704 27.1615 27.1853 27.2343C27.2003 27.3071 27.1853 27.3873 27.1853 27.4601C27.1853 27.5329 27.2434 27.5982 27.2639 27.6691C27.2845 27.74 27.2134 27.8408 27.2359 27.9099C27.2583 27.9789 27.3014 28.048 27.3276 28.117C27.3538 28.1861 27.3931 28.2514 27.423 28.3204C27.4529 28.3895 27.4847 28.4567 27.5166 28.5239C27.5484 28.5911 27.5465 28.675 27.5802 28.7422C27.6138 28.8094 27.7112 28.8411 27.7486 28.9065C27.786 28.9718 27.7635 29.0707 27.8028 29.1341C27.8421 29.1976 27.9712 29.2032 28.0124 29.2648C28.0536 29.3264 28.0854 29.3936 28.1284 29.4514C28.1715 29.5093 28.2239 29.5634 28.2688 29.6212C28.3137 29.6791 28.3212 29.7687 28.3679 29.8265C28.4147 29.8844 28.4821 29.9236 28.5307 29.9796C28.5794 30.0356 28.6411 30.0785 28.6917 30.1326C28.7422 30.1867 28.7384 30.2931 28.7908 30.3472C28.8432 30.4014 28.9237 30.4237 28.978 30.476C29.0322 30.5283 29.1127 30.5469 29.1651 30.5973C29.2175 30.6477 29.2717 30.6981 29.3279 30.7466C29.384 30.7951 29.4439 30.8381 29.5019 30.8847C29.5599 30.9314 29.6291 30.9594 29.689 31.0042C29.7489 31.049 29.7826 31.1273 29.8425 31.1703C29.9023 31.2132 29.9304 31.3046 29.9922 31.3457C30.0539 31.3868 30.1456 31.3849 30.2073 31.4241C30.2691 31.4633 30.314 31.5361 30.3795 31.5734C30.445 31.6107 30.5442 31.5827 30.6096 31.6182C30.6751 31.6536 30.7032 31.7563 30.7706 31.7899C30.8379 31.8235 30.9016 31.8627 30.9689 31.8944C31.0363 31.9261 31.1149 31.9317 31.1841 31.9616C31.2533 31.9914 31.3301 31.9989 31.3993 32.0269C31.4685 32.0549 31.5434 32.0661 31.6126 32.0922C31.6818 32.1183 31.7268 32.2098 31.7997 32.2359C31.8727 32.262 31.9494 32.2564 32.0205 32.2788C32.0916 32.3012 32.1646 32.3162 32.2357 32.3367C32.3068 32.3572 32.3835 32.3628 32.4546 32.3815C32.5258 32.4001 32.5912 32.4487 32.6642 32.4673L32.8813 32.5159C32.9543 32.5308 33.031 32.5271 33.104 32.542C33.1769 32.5569 33.2537 32.542 33.3285 32.5569C33.4034 32.5718 33.4688 32.6166 33.5418 32.6278C33.6148 32.639 33.6971 32.5905 33.7701 32.5998C33.8431 32.6092 33.9105 32.6838 33.9853 32.6894C34.0602 32.695 34.135 32.6894 34.208 32.6894C34.2809 32.6894 34.3539 32.7529 34.4288 32.7566C34.5036 32.7603 34.5803 32.7323 34.6552 32.7342C34.73 32.7361 34.803 32.7454 34.8779 32.7454C34.9527 32.7454 35.0276 32.6969 35.1005 32.695C35.1735 32.6932 35.2484 32.6726 35.3232 32.6708C35.3981 32.6689 35.4748 32.7044 35.5478 32.6988C35.6207 32.6932 35.7012 32.7305 35.7742 32.723C35.8471 32.7156 35.9257 32.723 36.0006 32.723C36.0754 32.723 36.1353 32.6036 36.2083 32.5924C36.2813 32.5812 36.3673 32.639 36.4403 32.6278C36.5133 32.6166 36.5694 32.5047 36.6424 32.4916C36.7154 32.4785 36.7977 32.514 36.8707 32.4916C36.9437 32.4692 37.0017 32.4057 37.0747 32.3889C37.1476 32.3721 37.2374 32.4225 37.3086 32.4039C37.3797 32.3852 37.4452 32.3423 37.5163 32.3218C37.5874 32.3012 37.6622 32.2863 37.7333 32.262C37.8044 32.2378 37.8662 32.1949 37.9373 32.1706C38.0084 32.1463 38.1019 32.1893 38.1712 32.1706C38.2404 32.1519 38.2722 32.0232 38.3415 31.9952C38.4107 31.9672 38.5024 31.9952 38.5698 31.9616C38.6371 31.928 38.6951 31.8795 38.7569 31.8477C38.8186 31.816 38.8935 31.7899 38.9608 31.7563C39.0282 31.7227 39.0731 31.6536 39.1479 31.6182L39.3351 31.5099C39.3987 31.4726 39.5128 31.5099 39.5764 31.4801C39.6401 31.4502 39.6869 31.3756 39.7486 31.3345C39.8104 31.2934 39.8665 31.2412 39.9357 31.2001C40.005 31.1591 40.0293 31.077 40.0892 31.0322C40.149 30.9874 40.2445 30.9892 40.3025 30.9426C40.3605 30.8959 40.3867 30.8119 40.4428 30.7559C40.499 30.7 40.5794 30.6869 40.6299 30.6365C40.6805 30.5861 40.701 30.4965 40.7534 30.4499C40.8058 30.4032 40.9125 30.3995 40.9649 30.3454C41.0173 30.2913 41.0323 30.2054 41.0828 30.1587C41.1333 30.1121 41.1857 30.0505 41.2343 29.9945C41.283 29.9385 41.3373 29.8881 41.384 29.8321C41.4308 29.7761 41.4289 29.6791 41.4739 29.6194C41.5188 29.5597 41.5899 29.5223 41.631 29.4607C41.6722 29.3992 41.7695 29.3749 41.8182 29.3114C41.8668 29.248 41.8387 29.1491 41.8762 29.0856C41.9136 29.0222 41.951 28.9587 41.9866 28.899C42.0221 28.8393 42.1363 28.8094 42.1737 28.7441C42.2111 28.6788 42.1606 28.5724 42.1905 28.5052C42.2205 28.438 42.2485 28.369 42.2766 28.3018C42.3047 28.2346 42.3215 28.1618 42.3477 28.0928C42.3739 28.0237 42.3889 27.9528 42.4132 27.8819C42.4375 27.811 42.5049 27.7568 42.5255 27.684C42.546 27.6113 42.5592 27.5403 42.576 27.4694C42.5928 27.3985 42.6827 27.3388 42.6976 27.266C42.7126 27.1932 42.649 27.1074 42.6602 27.0327C42.6714 26.9581 42.7388 26.8946 42.7481 26.82C42.7575 26.7453 42.7014 26.6669 42.7089 26.5923C42.7163 26.5176 42.6789 26.4448 42.6827 26.3702C42.6864 26.2955 42.6827 26.2246 42.6827 26.15C42.6827 26.0753 42.6827 26.0025 42.6827 25.9297C42.6827 25.8569 42.7706 25.7748 42.7631 25.702C42.7556 25.6293 42.677 25.5602 42.6696 25.4874C42.6621 25.4146 42.6695 25.34 42.6527 25.2653C42.6359 25.1907 42.5928 25.1272 42.5797 25.0544C42.5666 24.9817 42.5535 24.9107 42.5348 24.838C42.5161 24.7652 42.6115 24.6644 42.591 24.5935C42.5704 24.5226 42.5217 24.4572 42.4974 24.3863C42.4731 24.3154 42.4525 24.2445 42.4263 24.1736C42.4001 24.1026 42.2747 24.0746 42.2392 24.0056C42.2036 23.9365 42.2186 23.8563 42.1868 23.7891C42.155 23.7219 42.1868 23.6211 42.1568 23.5558C42.1269 23.4905 42.0202 23.4588 41.9828 23.3953C41.9454 23.3319 41.9585 23.2386 41.9211 23.1732C41.8836 23.1079 41.8331 23.0538 41.792 22.9866C41.7508 22.9194 41.7021 22.869 41.6591 22.8C41.6161 22.7309 41.6104 22.6507 41.5655 22.5928C41.5206 22.535 41.4402 22.4995 41.3934 22.4416C41.3466 22.3838 41.3092 22.3185 41.2605 22.255C41.2119 22.1916 41.1314 22.1729 41.0734 22.1169C41.0154 22.0609 41.0154 21.9676 40.963 21.9154C40.9106 21.8631 40.8077 21.8612 40.7534 21.809C40.6992 21.7567 40.6748 21.6765 40.6187 21.6223C40.5626 21.5682 40.5214 21.5066 40.4653 21.4581C40.4091 21.4096 40.3418 21.3741 40.2781 21.3275C40.2145 21.2808 40.1116 21.3013 40.0517 21.2566C39.9919 21.2118 39.9339 21.1726 39.8646 21.1296C39.7954 21.0867 39.7879 20.9822 39.7262 20.943C39.6644 20.9038 39.627 20.818 39.5634 20.7788C39.4997 20.7396 39.3987 20.7657 39.3332 20.7284C39.2677 20.6911 39.2228 20.622 39.1573 20.5866C39.0918 20.5511 38.9982 20.5698 38.9328 20.5362C38.8673 20.5026 38.8242 20.4205 38.7569 20.3869C38.6895 20.3533 38.6016 20.3701 38.5323 20.3402C38.4631 20.3104 38.4013 20.2712 38.3321 20.2432C38.2629 20.2152 38.1936 20.1909 38.1244 20.1629C38.0552 20.1349 38.0084 20.0472 37.9373 20.0229C37.8662 19.9987 37.7633 20.0696 37.6922 20.0472C37.6211 20.0248 37.5555 19.9931 37.4844 19.9726C37.4133 19.952 37.3516 19.896 37.2805 19.8774C37.2094 19.8587 37.1345 19.8475 37.0616 19.8307L36.8464 19.7766C36.7734 19.7617 36.7079 19.715 36.6349 19.7001C36.5619 19.6851 36.4946 19.6348 36.4216 19.6217C36.3486 19.6086 36.2644 19.6516 36.1914 19.6404L36.0099 19.6217C35.9351 19.6124 35.8602 19.6217 35.7854 19.6217C35.7106 19.6217 35.6357 19.6217 35.5627 19.6217C35.4897 19.6217 35.4186 19.5116 35.3457 19.5078C35.2727 19.5041 35.1941 19.5676 35.1193 19.5676C35.0444 19.5676 34.9696 19.5526 34.8947 19.5526C34.8199 19.5526 34.745 19.534 34.672 19.5358C34.5991 19.5377 34.5205 19.5358 34.4475 19.5358C34.3745 19.5358 34.3053 19.6441 34.2304 19.6497C34.1556 19.6553 34.0826 19.6497 34.0078 19.6497L33.7869 19.6721C33.714 19.6814 33.6242 19.575 33.5512 19.5862C33.4782 19.5974 33.409 19.6553 33.336 19.6665C33.263 19.6777 33.2013 19.7542 33.1283 19.7691C33.0553 19.7841 32.973 19.7523 32.9 19.7691C32.827 19.7859 32.7615 19.8307 32.6904 19.8475C32.6193 19.8643 32.5258 19.8102 32.4546 19.8288C32.3835 19.8475 32.3386 19.9651 32.2675 19.9875C32.1964 20.0099 32.0935 19.9315 32.0224 19.9539C31.9513 19.9763 31.8821 20.008 31.8128 20.0323C31.7436 20.0565 31.6912 20.1387 31.6257 20.1648C31.5602 20.1909 31.491 20.2282 31.4236 20.2562C31.3563 20.2842 31.2627 20.2562 31.1935 20.2898C31.1242 20.3234 31.055 20.3458 30.9876 20.3794C30.9203 20.413 30.8697 20.4765 30.8005 20.51C30.7313 20.5436 30.6564 20.5567 30.5909 20.5922C30.5254 20.6276 30.4974 20.7303 30.4338 20.7676C30.3701 20.8049 30.2466 20.7564 30.1905 20.7956C30.1344 20.8348 30.1119 20.9505 30.0502 20.9915C29.9884 21.0326 29.878 21.0046 29.8181 21.0475C29.7583 21.0905 29.7189 21.1651 29.6591 21.2099C29.5992 21.2547 29.5786 21.3499 29.5206 21.3965C29.4626 21.4432 29.3784 21.4581 29.3223 21.5048C29.2661 21.5514 29.2119 21.6056 29.1576 21.6541C29.1033 21.7026 29.0771 21.7847 29.0229 21.8407C28.9686 21.8967 28.9068 21.9322 28.8545 21.9844C28.8021 22.0367 28.7703 22.1076 28.7197 22.1617C28.6692 22.2158 28.6168 22.2662 28.5682 22.3222C28.5195 22.3782 28.4016 22.3763 28.3548 22.4342C28.3081 22.492 28.3268 22.6021 28.2819 22.66C28.237 22.7179 28.0947 22.7141 28.0592 22.7738C28.0236 22.8336 28.0592 22.9605 28.018 23.0165C27.9769 23.0725 27.8945 23.1135 27.8571 23.177C27.8197 23.2404 27.8571 23.3449 27.8159 23.4102C27.7748 23.4756 27.7317 23.5316 27.6981 23.5969C27.6644 23.6622 27.6064 23.7163 27.5746 23.7835C27.5427 23.8507 27.4941 23.9104 27.4642 23.9701C27.4342 24.0299 27.4192 24.112 27.3949 24.1829C27.3706 24.2538 27.2845 24.3023 27.2602 24.3695C27.2359 24.4367 27.2115 24.5114 27.191 24.5823C27.1704 24.6532 27.1666 24.7316 27.1479 24.8044C27.1292 24.8771 27.1928 24.9649 27.1779 25.0376C27.1629 25.1104 27.0862 25.172 27.0749 25.2448C27.0637 25.3176 27.06 25.3941 27.0506 25.4688C27.0413 25.5434 27.0693 25.6181 27.0619 25.6927C27.0544 25.7674 27.0787 25.842 27.0749 25.9148C27.0712 25.9876 27.0413 26.0641 27.0413 26.1388Z" fill="#FBF2EB"/>
  <path d="M79.8816 35.1641C77.8949 54.3405 68.4228 69.801 48.65 69.801C27.9439 69.801 20.0646 54.5794 18.2639 35.1641C15.9516 10.2335 30.2341 2.24854 48.65 2.24854C67.0659 2.24854 82.2762 12.0496 79.8816 35.1641Z" fill="#DB66C3"/>
  <path d="M46.0001 32.7507C35.5963 34.3042 31.7197 42.3989 30.6481 47.7053C27.8339 61.6465 38.1535 65.2674 48.7984 65.2451C60.1373 65.2227 68.2797 62.0019 66.1957 48.1318C64.9649 39.9417 58.9906 30.8093 46.0001 32.7507Z" fill="#FBF2EB"/>
  <path d="M41.9466 37.3354C42.8576 34.0416 52.6803 33.6873 54.4396 36.5802C56.0612 39.2465 51.3604 44.8968 48.4897 45.1822C45.4773 45.4818 41.0639 40.5219 41.9466 37.3354Z" fill="#6256EA"/>
  <path d="M95.6788 43.3531C94.003 51.9158 87.0586 55.9384 81.2667 55.0276C75.4749 54.1168 77.5275 37.0832 75.9443 29.8921C72.6851 15.1339 65.1017 12.8682 66.5993 6.37778C68.6089 -2.29172 80.7176 3.98497 87.1338 11.909C93.0305 19.1873 98.1189 30.8837 95.6788 43.3531Z" fill="#6256EA"/>
  <path d="M2.06885 44.0905C3.94944 52.6106 10.9882 56.4656 16.7566 55.4162C22.525 54.3668 20.0647 37.3873 21.4751 30.1604C24.3796 15.3283 29.7441 12.736 28.0914 6.28327C25.8746 -2.33557 16.0822 4.37508 9.85773 12.4506C4.13722 19.8682 -0.669444 31.6832 2.06885 44.0905Z" fill="#6256EA"/>
  <ellipse cx="34.8381" cy="25.5" rx="6" ry="6.5" fill="white"/>
  <mask id="mask0_2815_13984" style="mask-type:alpha" maskUnits="userSpaceOnUse" x="28" y="19" width="13" height="13">
    <ellipse cx="34.8381" cy="25.5" rx="6" ry="6.5" fill="white"/>
  </mask>
  <g mask="url(#mask0_2815_13984)">
    <ellipse cx="35.3245" cy="22.1131" rx="6.08965" ry="6.08965" fill="#6256EA"/>
  </g>
  <ellipse cx="61.8381" cy="25.5" rx="6" ry="6.5" fill="white"/>
  <mask id="mask1_2815_13984" style="mask-type:alpha" maskUnits="userSpaceOnUse" x="55" y="19" width="13" height="13">
    <ellipse cx="61.8381" cy="25.5" rx="6" ry="6.5" fill="white"/>
  </mask>
  <g mask="url(#mask1_2815_13984)">
    <circle cx="61.2671" cy="22.0787" r="6.12457" fill="#6256EA"/>
  </g>
  <path d="M48.2591 59.1198C50.1479 59.1198 51.6791 57.0782 51.6791 54.5598C51.6791 52.0413 50.1479 49.9998 48.2591 49.9998C46.3703 49.9998 44.8391 52.0413 44.8391 54.5598C44.8391 57.0782 46.3703 59.1198 48.2591 59.1198Z" fill="#6256EA"/>
</svg>
