<svg width="200" height="200" viewBox="0 0 200 200" fill="none" xmlns="http://www.w3.org/2000/svg">
<ellipse cx="99.9917" cy="168.75" rx="74.2122" ry="17.1875" fill="#090084"/>
<g clip-path="url(#clip0_3293_30453)">
<path d="M138.644 157H60.2809C57.0336 157 54.3929 154.36 54.3929 151.112V63.1145L99.4624 39.3486L144.532 63.1145V151.112C144.532 154.36 141.891 157 138.644 157Z" fill="#FC6B4D"/>
<path d="M43.4913 74.7115L38.4241 64.9875C37.3536 62.9357 38.1565 60.4199 40.1905 59.3494L97.5353 29.4815C98.7486 28.8571 100.194 28.8571 101.389 29.4815L158.734 59.3672C160.786 60.4378 161.571 62.9535 160.5 65.0054L155.433 74.7294C154.363 76.7812 151.847 77.5663 149.795 76.4958L99.4445 50.2499L49.1116 76.4958C47.0597 77.5663 44.544 76.7634 43.4734 74.7294L43.4913 74.7115Z" fill="#6256EA"/>
<path d="M99.4623 98.1743C112.255 98.1743 122.639 108.558 122.639 121.351V157H76.2853V121.351C76.2853 108.558 86.6694 98.1743 99.4623 98.1743Z" fill="#C34EAB"/>
<path d="M106.558 92.9836C109.208 92.9836 111.356 90.8353 111.356 88.1852C111.356 86.1442 110.082 83.9832 108.286 83.0978C107.676 82.77 106.173 81.4445 105.041 78.7649C104.243 76.4521 102.047 74.7908 99.463 74.7908C96.879 74.7908 94.6829 76.4521 93.8847 78.7649C92.7531 81.4445 91.2503 82.77 90.6404 83.0978C88.8439 83.9832 87.5696 86.1442 87.5696 88.1852C87.5696 90.8353 89.7179 92.9836 92.368 92.9836C93.4531 93.0651 96.0799 92.8869 97.9061 91.522C98.1569 91.3346 98.4016 91.1906 98.6386 91.0834C99.1599 90.8475 99.7662 90.8475 100.287 91.0834C100.524 91.1906 100.769 91.3346 101.02 91.522C102.846 92.8869 105.473 93.0651 106.558 92.9836Z" fill="#FFEBE0"/>
<path d="M90.9 75.4038C91.5902 77.99 90.6496 80.4868 88.7992 80.9806C86.9488 81.4744 84.8893 79.7783 84.1991 77.1922C83.5089 74.606 84.4494 72.1092 86.2998 71.6154C88.1502 71.1216 90.2098 72.8177 90.9 75.4038Z" fill="#FFEBE0"/>
<path d="M108.025 75.4038C107.334 77.99 108.275 80.4868 110.125 80.9806C111.976 81.4744 114.035 79.7783 114.725 77.1922C115.416 74.606 114.475 72.1092 112.625 71.6154C110.774 71.1216 108.715 72.8177 108.025 75.4038Z" fill="#FFEBE0"/>
<path d="M101.094 67.1353C100.302 70.1036 101.34 72.9582 103.412 73.5112C105.484 74.0642 107.805 72.1061 108.598 69.1378C109.39 66.1694 108.352 63.3149 106.28 62.7619C104.208 62.2089 101.887 64.167 101.094 67.1353Z" fill="#FFEBE0"/>
<path d="M97.8276 67.1353C98.6198 70.1036 97.5823 72.9582 95.5104 73.5112C93.4384 74.0642 91.1166 72.1061 90.3244 69.1378C89.5322 66.1694 90.5696 63.3149 92.6416 62.7619C94.7135 62.2089 97.0354 64.167 97.8276 67.1353Z" fill="#FFEBE0"/>
</g>
<defs>
<clipPath id="clip0_3293_30453">
<rect width="123.04" height="128" fill="white" transform="translate(37.9424 29)"/>
</clipPath>
</defs>
</svg>
