<svg width="129" height="128" viewBox="0 0 129 128" fill="none" xmlns="http://www.w3.org/2000/svg">
<ellipse cx="64.5693" cy="108" rx="47.5" ry="11" fill="#D8DDE9"/>
<ellipse cx="4.95679" cy="4.98396" rx="4.95679" ry="4.98396" transform="matrix(0.850862 0.525389 -0.516318 0.856397 62.8643 94.9431)" fill="#392FB4" stroke="#392FB4" stroke-width="5"/>
<path d="M45.1638 35.9844L39.274 32.3476C38.3342 31.7672 37.1099 32.0636 36.5396 33.0096L18.7436 62.5271C14.362 69.7949 16.6635 79.301 23.8843 83.7597V83.7597M56.973 43.2763L62.0193 46.3923C62.9591 46.9726 63.2587 48.2099 62.6884 49.1559L44.8924 78.6734C40.5107 85.9412 31.105 88.2184 23.8843 83.7597V83.7597M23.8843 83.7597C19.867 88.503 14.4988 99.5189 25.1642 105.636C35.8296 111.753 43.3756 102.629 45.8155 97.3018L54.3074 83.2165C56.6853 78.6324 63.5499 70.7663 71.985 75.9747C82.5288 82.4853 73.8224 91.1666 71.5993 93.8939C69.8208 96.0758 68.4089 97.5859 67.9252 98.0682" stroke="#392FB4" stroke-width="5" stroke-linecap="round"/>
<rect x="84.5957" y="8.44305" width="86" height="26" rx="13" transform="rotate(60 84.5957 8.44305)" fill="#392FB4"/>
<rect x="84.1406" y="45.6559" width="12" height="22" rx="4" transform="rotate(-30 84.1406 45.6559)" fill="#C34EAB"/>
</svg>
