<svg width="129" height="128" viewBox="0 0 129 128" fill="none" xmlns="http://www.w3.org/2000/svg">
<path d="M75.5808 22.1724L22.9529 74.8002C21.2795 76.4737 21.2795 79.1869 22.9529 80.8604L47.4095 105.317C49.083 106.99 51.7962 106.99 53.4697 105.317L106.097 52.6891C107.771 51.0157 107.771 48.3024 106.098 46.629L81.6409 22.1724C79.9675 20.4989 77.2542 20.4989 75.5808 22.1724Z" fill="#392FB4"/>
<path d="M28.9442 86.8512L27.4324 85.3394C31.5747 81.197 31.5747 74.4587 27.4324 70.3164L28.9442 68.8046C33.9202 73.7806 33.9201 81.8752 28.9442 86.8512Z" fill="#332AA2"/>
<path d="M59.4635 99.3235L57.9517 100.835C53.8094 96.693 47.0711 96.693 42.9288 100.835L41.417 99.3235C46.393 94.3475 54.4876 94.3475 59.4635 99.3235Z" fill="#332AA2"/>
<path d="M101.618 57.1683L100.106 58.6801C95.1303 53.7042 95.1303 45.6096 100.106 40.6336L101.618 42.1454C97.4779 46.2855 97.4758 53.026 101.618 57.1683Z" fill="#332AA2"/>
<path d="M87.6325 28.1633C82.6565 33.1393 74.5619 33.1393 69.5859 28.1633L71.0977 26.6515C75.2401 30.7939 81.9784 30.7939 86.1207 26.6515L87.6325 28.1633Z" fill="#332AA2"/>
<path d="M76.3834 75.6003C81.8177 70.166 80.9145 60.4522 74.3662 53.9038C67.8178 47.3555 58.104 46.4524 52.6697 51.8867C47.2355 57.3209 48.1386 67.0348 54.6869 73.5831C61.2352 80.1315 70.9491 81.0346 76.3834 75.6003Z" fill="#332AA2"/>
<path d="M72.2335 63.9669C72.2529 65.1698 71.8124 66.4182 70.9139 67.7097L72.5424 69.3381L70.4734 71.4071L68.9184 69.8521C68.1452 70.5475 67.331 71.1371 66.4757 71.6209C65.6205 72.1047 64.8322 72.4308 64.1216 72.5971L62.7135 68.9558C63.4867 68.7485 64.262 68.431 65.0395 67.9947C65.817 67.5585 66.4865 67.0618 67.0437 66.5046C67.5232 66.0251 67.8212 65.6363 67.9314 65.3361C68.0437 65.0381 68.007 64.794 67.8212 64.6083C67.6053 64.3923 67.3115 64.3664 66.9336 64.5284C66.5556 64.6904 65.9963 65.0165 65.2533 65.5046C64.2944 66.1309 63.4543 66.6125 62.7351 66.9516C62.0159 67.2907 61.2428 67.4375 60.4156 67.3922C59.5884 67.3468 58.8023 66.9538 58.0593 66.2108C57.1976 65.3491 56.77 64.2995 56.7765 63.062C56.7829 61.8244 57.2818 60.5394 58.2796 59.209L56.6793 57.6087L58.7483 55.5397L60.3184 57.1098C61.6013 56.0429 62.8777 55.3323 64.1497 54.9803L65.6162 58.5331C64.0979 59.0319 62.8906 59.7338 61.9922 60.6323C61.0937 61.5307 60.8713 62.1851 61.3011 62.6149C61.5062 62.8201 61.7935 62.8438 62.1606 62.6797C62.5278 62.5199 63.0742 62.1937 63.7977 61.7035C64.7264 61.0685 65.5557 60.5761 66.2857 60.2263C67.0135 59.8785 67.7932 59.7209 68.6203 59.7576C69.4475 59.79 70.2315 60.1809 70.9766 60.926C71.7994 61.7488 72.2206 62.7618 72.24 63.9647L72.2335 63.9669Z" fill="#392FB4"/>
<path d="M88.5735 28.0193L21.7017 60.6927C19.5754 61.7316 18.6938 64.2976 19.7327 66.424L34.9163 97.4999C35.9553 99.6263 38.5213 100.508 40.6477 99.4689L107.519 66.7955C109.646 65.7566 110.527 63.1905 109.488 61.0641L94.3049 29.9883C93.2659 27.8619 90.6999 26.9804 88.5735 28.0193Z" fill="#C34EAB"/>
<path d="M23.4526 74.0363L22.514 72.1153C27.7775 69.5436 29.9668 63.1709 27.3951 57.9074L29.3161 56.9688C32.4053 63.2915 29.7753 70.947 23.4526 74.0363Z" fill="#392FB4"/>
<path d="M48.2637 95.7477L46.3428 96.6863C43.7711 91.4229 37.3983 89.2335 32.1349 91.8052L31.1963 89.8843C37.519 86.795 45.1745 89.425 48.2637 95.7477Z" fill="#392FB4"/>
<path d="M101.828 69.5762L99.9067 70.5148C96.8174 64.192 99.4474 56.5366 105.77 53.4473L106.709 55.3683C101.448 57.9387 99.2559 64.3127 101.828 69.5762Z" fill="#392FB4"/>
<path d="M98.0245 37.6006C91.7017 40.6899 84.0463 38.0599 80.957 31.7372L82.878 30.7986C85.4497 36.0621 91.8224 38.2514 97.0859 35.6797L98.0245 37.6006Z" fill="#392FB4"/>
<path d="M71.9732 78.8091C78.8783 75.4353 81.1802 65.9551 77.1148 57.6344C73.0493 49.3137 64.1559 45.3035 57.2508 48.6773C50.3457 52.0511 48.0437 61.5314 52.1092 69.852C56.1747 78.1727 65.0681 82.1829 71.9732 78.8091Z" fill="#392FB4"/>
<path d="M71.8284 66.4585C71.4559 67.6025 70.6337 68.6399 69.3643 69.5695L70.3753 71.6386L67.7463 72.9232L66.7809 70.9473C65.8238 71.3538 64.8622 71.6468 63.8961 71.8265C62.9301 72.0061 62.0786 72.0585 61.3526 71.9849L61.2039 68.0836C62.0025 68.1388 62.8389 68.0904 63.716 67.9304C64.5931 67.7705 65.3876 67.5182 66.0956 67.1723C66.7049 66.8746 67.1131 66.6038 67.3148 66.3557C67.5178 66.1103 67.5624 65.8676 67.4471 65.6315C67.313 65.3571 67.0436 65.2372 66.6336 65.2676C66.2235 65.298 65.5885 65.4246 64.7273 65.6449C63.6169 65.9257 62.6659 66.1082 61.8755 66.1952C61.0852 66.2822 60.3063 66.1699 59.5387 65.8582C58.7712 65.5466 58.1554 64.9194 57.6941 63.9754C57.1591 62.8804 57.0958 61.7488 57.504 60.5806C57.9122 59.4123 58.8015 58.3591 60.1774 57.425L59.1839 55.3916L61.8128 54.1071L62.7876 56.1021C64.3475 55.5099 65.7856 55.2526 67.103 55.333L67.3355 59.1694C65.7375 59.148 64.3677 59.4195 63.2261 59.9773C62.0845 60.5351 61.6615 61.0817 61.9283 61.6278C62.0557 61.8885 62.3196 62.0043 62.7202 61.9684C63.1194 61.9365 63.7421 61.8056 64.5856 61.577C65.6702 61.2783 66.6145 61.082 67.4186 60.9883C68.2199 60.8959 69.0085 61.0001 69.7789 61.3036C70.5506 61.603 71.1651 62.2274 71.6277 63.1742C72.1385 64.2198 72.2077 65.3146 71.8352 66.4586L71.8284 66.4585Z" fill="#FDC5A6"/>
<path d="M101.933 42.2094H27.5059C25.1392 42.2094 23.2207 44.1279 23.2207 46.4945V81.0813C23.2207 83.448 25.1392 85.3665 27.5059 85.3665H101.933C104.3 85.3665 106.218 83.448 106.218 81.0813V46.4945C106.218 44.1279 104.3 42.2094 101.933 42.2094Z" fill="#FC6B4D"/>
<path d="M23.2207 54.9668V52.8288C29.0788 52.8288 33.8435 48.0641 33.8435 42.2059H35.9816C35.9816 49.243 30.2578 54.9668 23.2207 54.9668Z" fill="#392FB4"/>
<path d="M35.9816 85.3662H33.8435C33.8435 79.508 29.0788 74.7434 23.2207 74.7434V72.6053C30.2578 72.6053 35.9816 78.3291 35.9816 85.3662Z" fill="#392FB4"/>
<path d="M95.598 85.3661H93.46C93.46 78.329 99.1837 72.6052 106.221 72.6052V74.7432C100.366 74.7432 95.598 79.5079 95.598 85.3661Z" fill="#392FB4"/>
<path d="M106.218 54.9668C99.1808 54.9668 93.457 49.243 93.457 42.2059H95.595C95.595 48.0641 100.36 52.8288 106.218 52.8288V54.9668Z" fill="#392FB4"/>
<path d="M64.721 80.5557C72.4063 80.5557 78.6364 73.0484 78.6364 63.7876C78.6364 54.5269 72.4063 47.0195 64.721 47.0195C57.0358 47.0195 50.8057 54.5269 50.8057 63.7876C50.8057 73.0484 57.0358 80.5557 64.721 80.5557Z" fill="#392FB4"/>
<path d="M70.0123 69.3953C69.1754 70.2597 67.9812 70.8308 66.4326 71.1088V73.4117H63.5066V71.2126C62.4682 71.1576 61.4755 70.9988 60.5287 70.7361C59.5819 70.4735 58.7938 70.1467 58.1738 69.7618L59.7529 66.1914C60.4462 66.5915 61.219 66.9152 62.0772 67.1565C62.9355 67.3978 63.7601 67.52 64.5481 67.52C65.2262 67.52 65.7118 67.4558 66.002 67.3214C66.2921 67.1901 66.4388 66.9916 66.4388 66.7289C66.4388 66.4235 66.2494 66.1975 65.8676 66.0448C65.4858 65.892 64.8597 65.7271 63.9892 65.5469C62.8683 65.3117 61.9337 65.0582 61.1854 64.7894C60.4371 64.5207 59.7865 64.0778 59.2337 63.4608C58.6809 62.8438 58.4029 62.01 58.4029 60.9594C58.4029 59.7407 58.8427 58.6961 59.7224 57.8256C60.602 56.9552 61.8634 56.3993 63.5097 56.1641V53.9009H66.4357V56.1213C68.0972 56.2741 69.5022 56.6742 70.6506 57.3247L69.1754 60.8738C67.749 60.153 66.399 59.7957 65.1285 59.7957C63.8579 59.7957 63.2379 60.1011 63.2379 60.7089C63.2379 60.9991 63.4242 61.219 63.7998 61.3625C64.1725 61.5091 64.7895 61.6649 65.6477 61.8298C66.7534 62.0375 67.688 62.2757 68.4515 62.5445C69.2121 62.8133 69.8749 63.2531 70.4338 63.864C70.9958 64.4718 71.2737 65.3026 71.2737 66.3563C71.2737 67.52 70.8553 68.534 70.0184 69.3984L70.0123 69.3953Z" fill="#FBF2EB"/>
</svg>
