<svg width="414" height="212" viewBox="0 0 414 212" fill="none" xmlns="http://www.w3.org/2000/svg">
<path fill-rule="evenodd" clip-rule="evenodd" d="M120.914 100.009C121.942 99.9158 122.961 99.7851 123.967 99.6181C125.479 99.3672 126.731 98.3864 127.251 97.0461C127.771 95.7057 127.479 94.2099 126.486 93.123C124.178 90.5953 122.542 87.5329 121.823 84.1683C121.692 83.5564 121.951 82.4865 123.28 81.2873C133.5 76 140 69.5 140 48.4037C140 9 105 1.35962 68.1695 1.35962C14.2331 1.35962 -9.15527e-05 21.6891 -9.15527e-05 48.4037C-9.15527e-05 75.1183 10.4875 96.197 55.8178 96.197C60.5878 96.197 92.1751 95.6841 96.6047 94.7171C102.551 98.178 109.588 100.18 117.118 100.18C118.398 100.18 119.665 100.122 120.914 100.009Z" fill="#D9D7F4"/>
<path d="M176.556 62.6723L191.7 97.0745C191.7 97.0745 237.555 118.938 254.147 120.825C259.476 121.423 267.037 120.266 274.935 118.731C280.212 117.704 283.215 109.452 288.22 108.518C288.93 108.387 292.045 115.322 292.732 115.202C296.915 114.463 300.729 113.964 303.795 113.967C305.307 113.966 307.075 114.085 309.049 114.289C310.157 114.406 310.411 108.048 311.635 108.224C312.858 108.399 315.156 115.121 316.533 115.361C321.724 116.244 327.546 117.473 333.43 118.839C338.928 120.116 344.464 121.503 349.541 122.839C361.84 126.071 371.478 128.924 371.478 128.924C371.478 128.924 370.334 150.161 344.437 159.358C319.815 168.105 283.818 159.24 283.818 159.24C283.818 159.24 301.174 179.551 352.084 171.937C365.359 169.949 424.733 137.499 395.072 78.401C385.645 59.5981 369.103 46.1213 349.914 36.5931C341.853 32.5862 296.133 22.3659 263.134 28.1502C230.136 33.9346 176.563 62.6772 176.563 62.6772L176.556 62.6723Z" fill="#DB66C3"/>
<path d="M333.424 118.834C338.921 120.111 344.458 121.497 349.535 122.833C349.011 117.377 348.922 111.896 349.612 106.463C350.87 96.6073 359.494 90.3369 367.293 83.1017C364.189 82.1924 356.338 80.8367 353.271 81.8703C342.459 85.5081 338.221 95.3637 335.469 105.248C334.226 109.685 333.621 114.244 333.416 118.829L333.424 118.834Z" fill="#C55CAF"/>
<path d="M274.929 118.738C280.956 117.561 287.162 116.184 292.726 115.209C293.216 111.769 293.167 108.255 292.547 104.883C288.056 80.4888 276.946 61.2983 261.282 55.2671C272.336 75.3624 277.429 96.7956 274.923 118.739L274.929 118.738Z" fill="#C55CAF"/>
<path d="M233.09 55.8141C238.872 57.8834 244.801 60.1769 250.156 61.9766C250.123 65.4514 249.547 68.9181 248.427 72.1581C240.323 95.6013 226.457 112.906 210.065 116.516C224.011 98.3085 232.266 77.8834 233.085 55.8121L233.09 55.8141Z" fill="#C55CAF"/>
<path d="M259.221 111.771C260.541 114.718 230.012 119.197 210.842 128.242C201.47 132.663 194.892 139.859 190.832 141.636C178.347 147.106 182.212 156.371 182.212 156.371C182.212 156.371 183.543 155.558 183.674 156.102C184.362 156.222 183.954 157.895 184.534 158.195C185.787 158.6 186.186 158.724 187.42 158.756C187.818 158.806 190.163 156.363 190.559 156.407C190.956 156.451 190.584 158.852 190.961 158.888C193.218 159.12 208.414 150.171 220.961 142.42C232.206 135.469 282.07 136.148 286.64 123.239C295.111 99.2779 273.787 52.8228 258.545 52.4023C248.865 52.136 235.654 59.1954 259.221 111.771Z" fill="#DB66C3"/>
<path d="M182.206 156.372C182.206 156.372 182.293 156.911 183.009 157.452C183.875 158.101 184.436 158.133 184.436 158.133C184.436 158.133 184.63 153.791 186.564 150.757C188.274 148.586 189.277 147.864 192.794 145.958C191.217 145.767 188.334 146.495 185.75 148.31C182.548 150.559 182.2 156.373 182.2 156.373L182.206 156.372Z" fill="#6256EA"/>
<path d="M187.367 158.741C189.007 159.001 189.398 159.015 190.954 158.889C191.005 155.98 191.879 154.764 192.866 153.453C193.491 152.425 195.632 150.451 199.156 148.544C196.914 148.766 192.969 149.893 191.438 151.359C188.704 153.972 188.02 156.122 187.374 158.746L187.367 158.741Z" fill="#6256EA"/>
<path d="M205.032 103.047C206.352 105.994 175.822 110.473 156.653 119.518C147.281 123.94 140.703 131.135 136.643 132.913C124.157 138.383 128.022 147.647 128.022 147.647C128.022 147.647 129.353 146.835 129.484 147.378C130.173 147.498 129.765 149.171 130.345 149.472C131.598 149.876 131.997 150 133.231 150.032C133.629 150.083 135.973 147.639 136.37 147.684C136.748 147.725 136.395 150.128 136.771 150.164C139.029 150.396 154.225 141.448 166.772 133.696C178.016 126.746 219.913 108.31 224.477 95.4017C232.948 71.4405 219.592 44.1003 204.356 43.6787C194.676 43.4124 181.465 50.4718 205.032 103.047Z" fill="#DB66C3"/>
<path d="M128.019 147.648C128.019 147.648 128.106 148.187 128.822 148.728C129.688 149.377 130.25 149.409 130.25 149.409C130.25 149.409 130.444 145.067 132.378 142.033C134.088 139.862 135.09 139.14 138.607 137.234C137.03 137.043 134.147 137.772 131.563 139.586C128.362 141.835 128.013 147.649 128.013 147.649L128.019 147.648Z" fill="#6256EA"/>
<path d="M133.18 150.017C134.819 150.277 135.211 150.291 136.767 150.165C136.817 147.256 137.692 146.04 138.678 144.729C139.303 143.701 141.445 141.727 144.968 139.82C142.726 140.042 138.782 141.169 137.25 142.635C134.517 145.249 133.833 147.398 133.187 150.022L133.18 150.017Z" fill="#6256EA"/>
<path d="M151.958 84.0962C152.733 95.608 156.6 103.947 169.472 104.693C178.845 105.238 183.312 88.584 186.674 75.0768C191.313 56.442 209.325 57.3953 208.175 48.6055C206.635 36.8523 188.292 35.3738 170.477 46.7481C158.861 54.1616 151.23 73.1683 151.966 84.1011L151.958 84.0962Z" fill="#6256EA"/>
<path d="M227.656 105.299C220.864 113.879 208.409 122.866 203.601 125.503C201.656 126.571 186.994 125.044 169.118 122.313C146.759 118.896 159.411 119.72 169.459 111.836C179.421 104.018 151.055 101.312 162.169 85.1745C164.677 81.5356 165.899 76.0418 166.916 66.3224C169.76 39.1402 194.952 31.8432 209.105 34.2904C230.583 38.0175 229.359 55.7335 239.323 68.5704C244.314 75.0056 236.963 93.5536 227.656 105.299Z" fill="#DB66C3"/>
<path d="M204.322 124.796C195.725 133.727 171.764 135.979 161.773 131.642C143.312 123.627 145.777 111.248 149.606 106.107C157.594 95.3757 162.763 83.8372 162.763 83.8372C162.763 83.8372 174.408 86.4686 184.487 95.7059C194.959 105.303 203.886 121.588 204.316 124.797L204.322 124.796Z" fill="#FBF2EB"/>
<path d="M169.054 127.533C169.776 127.4 170.346 127.208 170.709 127.068C173.344 126.033 175.134 123.896 174.974 121.988C174.944 121.655 174.651 121.406 174.318 121.437C173.965 121.465 173.735 121.76 173.766 122.093C173.882 123.46 172.373 125.114 170.267 125.94C168.897 126.476 164.118 127.8 159.805 122.301C158.443 120.565 158.55 116.523 159.101 113.312C159.157 112.981 158.933 112.67 158.608 112.613C158.277 112.557 157.966 112.78 157.909 113.105C157.54 115.259 156.89 120.542 158.851 123.05C162.562 127.79 166.657 127.98 169.061 127.537L169.054 127.533Z" fill="#6256EA"/>
<path d="M149.225 103.154C149.737 98.4266 164.694 98.0728 168.168 101.795C171.465 105.328 161.025 114 158.257 114.244C155.797 114.456 148.793 107.176 149.226 103.16L149.225 103.154Z" fill="#6256EA"/>
<path d="M154.464 122.833C156.409 122.475 158.287 121.081 158.742 118.825C158.811 118.498 158.598 118.179 158.265 118.111C157.938 118.048 157.619 118.255 157.55 118.588C157.128 120.714 154.919 121.855 153.12 121.699C151.07 121.521 149.805 119.847 149.741 117.219C149.734 116.881 149.457 116.617 149.119 116.624C148.787 116.629 148.517 116.907 148.524 117.245C148.618 121.139 150.901 122.718 153.008 122.904C153.479 122.947 153.967 122.919 154.451 122.83L154.464 122.833Z" fill="#6256EA"/>
<path d="M270.64 79.3484C271.299 90.8691 268.499 99.621 255.813 101.957C246.581 103.656 240.088 87.6878 235.074 74.6984C228.161 56.7838 210.404 59.9664 210.462 51.0963C210.532 39.244 228.555 35.5002 247.637 44.5793C260.079 50.5004 270.009 68.4148 270.634 79.3495L270.64 79.3484Z" fill="#6256EA"/>
<path d="M309.044 114.29C311.303 114.528 313.825 114.891 316.527 115.362C314.832 109.535 314.378 103.32 315.258 97.3397C316.577 88.3175 324.884 77.1081 333.955 69.4413C326.755 64.4801 316.186 72.0894 311.902 78.3074C303.625 90.3194 306.114 102.935 309.05 114.289L309.044 114.29Z" fill="#C55CAF"/>
<path d="M250.137 150.27C250.157 150.309 250.175 150.343 250.199 150.369C251.413 151.337 251.803 151.641 253.137 152.185L253.149 152.183C253.588 152.392 257.151 150.669 257.573 150.881C257.981 151.084 256.575 153.601 256.976 153.804C263.642 157.137 337.244 160.886 353.804 148.626C356.949 146.301 359.723 143.976 362.174 141.643C364.25 139.682 366.15 133.545 367.765 131.594C368.957 130.159 369.969 132.91 370.934 131.486C370.997 131.388 371.064 131.283 371.134 131.196C388.189 105.636 370.111 82.1756 359.99 71.638C346.742 57.8202 295.343 63.1802 315.602 115.211C317.19 119.312 319.229 123.687 321.766 128.384C324.477 133.394 279.92 133.694 264.069 134.588C248.399 135.468 248.41 146.886 248.419 147.372C248.407 147.374 248.409 147.386 248.409 147.386C248.409 147.386 250.213 147.029 250.132 147.692C250.796 148.082 249.796 149.623 250.125 150.272L250.137 150.27Z" fill="#DB66C3"/>
<path d="M248.424 147.377C248.424 147.377 248.288 148.013 248.86 148.907C249.54 149.985 250.145 150.256 250.145 150.256C250.145 150.256 252.177 145.513 255.579 142.944C258.374 141.238 259.773 140.858 264.438 140.196C262.786 139.328 259.309 138.944 255.714 139.89C251.252 141.057 248.43 147.376 248.43 147.376L248.424 147.377Z" fill="#6256EA"/>
<path d="M253.095 152.156C254.785 153.122 255.206 153.297 256.977 153.804C258.256 150.595 259.727 149.602 261.361 148.561C262.483 147.682 265.66 146.375 270.332 145.713C267.775 145.03 262.967 144.65 260.668 145.635C256.564 147.402 254.915 149.507 253.1 152.149L253.095 152.156Z" fill="#6256EA"/>
<path d="M362.174 141.643C365.774 138.241 368.653 134.842 370.94 131.485C371.054 131.198 371.155 130.908 371.251 130.625C371.263 130.623 371.261 130.611 371.259 130.599C374.998 119.978 375.254 108.134 371.863 97.388C371.182 110.007 370.08 118.033 367.146 127.661C365.879 131.842 364.257 136.336 362.173 141.637L362.174 141.643Z" fill="#C55CAF"/>
<path d="M289.27 31.6086C290.73 36.2188 295.876 38.7004 300.781 37.1467C305.091 35.7817 307.771 31.7441 307.343 27.6407C301.227 27.0193 295.184 26.6485 289.301 26.4816C288.772 28.1067 288.726 29.8907 289.27 31.6086Z" fill="#6256EA"/>
<path d="M265.784 33.2312C267.104 35.7197 269.058 37.7332 271.062 39.5509C272.348 40.7328 273.739 41.8857 275.307 42.2689C276.873 42.6463 278.657 42.0104 279.186 40.3805C279.675 38.8409 278.933 36.9713 279.297 35.3839C279.871 32.8944 282.663 32.3489 284.332 30.6827C285.366 29.6642 285.897 28.1168 285.931 26.4992C281.455 26.5082 277.096 26.6187 272.898 26.8287C270.016 26.9752 267.154 27.3135 264.323 27.8207C264.339 29.6646 264.902 31.5748 265.776 33.2274L265.784 33.2312Z" fill="#6256EA"/>
<path d="M314.292 37.4815C316.888 39.1861 320.312 39.1645 323.177 40.4145C329.009 42.9525 331.706 50.3407 337.871 52.022C342.879 53.3828 348.549 49.9255 350.337 45.1012C351.351 42.3934 351.268 39.4599 350.399 36.7373C338.031 32.4126 324.86 29.6917 311.863 28.1247C310.464 31.3237 311.324 35.5257 314.296 37.4739L314.292 37.4815Z" fill="#6256EA"/>
<path d="M301.507 41.1808C298.445 45.8805 305.57 46.6532 306.883 48.2867C308.902 50.804 308.411 53.0725 312.736 53.3638C316.445 53.6209 317.651 47.3007 316.432 43.7918C315.21 40.2771 305.855 34.5143 301.512 41.179L301.507 41.1808Z" fill="#6256EA"/>
<ellipse cx="192.977" cy="86.9885" rx="7.59192" ry="6.42393" transform="rotate(163.599 192.977 86.9885)" fill="white"/>
<mask id="mask0_3546_41658" style="mask-type:alpha" maskUnits="userSpaceOnUse" x="185" y="80" width="16" height="14">
<ellipse cx="7.59192" cy="6.42393" rx="7.59192" ry="6.42393" transform="matrix(0.959307 -0.282366 -0.282366 -0.959307 187.505 95.2959)" fill="white"/>
</mask>
<g mask="url(#mask0_3546_41658)">
<circle cx="6.44637" cy="6.44637" r="6.44637" transform="matrix(0.959307 -0.282366 -0.282366 -0.959307 190.436 93.3193)" fill="#6256EA"/>
</g>
<path d="M168.42 75.7471L171.069 80.3715M175.848 82.3376L171.069 80.3715M171.069 80.3715L166.931 80.9715" stroke="#6256EA" stroke-width="1.16821" stroke-linecap="round"/>
<path d="M25.95 39.5368C25.95 40.9823 25.6866 42.1909 25.1599 43.1624C24.6332 44.128 23.8694 44.8567 22.8686 45.3483C21.8737 45.834 20.6652 46.0769 19.243 46.0769H15.7579V33.2424H19.6293C20.9344 33.2424 22.0581 33.4824 23.0003 33.9623C23.9426 34.4363 24.6683 35.1416 25.1774 36.078C25.6925 37.0085 25.95 38.1614 25.95 39.5368ZM24.3786 39.5894C24.3786 38.4365 24.1854 37.4855 23.7992 36.7364C23.4188 35.9872 22.8569 35.4313 22.1137 35.0684C21.3763 34.6997 20.4721 34.5153 19.4011 34.5153H17.2503V44.7952H19.0675C20.8349 44.7952 22.1605 44.3592 23.0442 43.4872C23.9338 42.6152 24.3786 41.3159 24.3786 39.5894ZM30.0408 36.4554V46.0769H28.5836V36.4554H30.0408ZM29.3298 32.8562C29.5697 32.8562 29.7746 32.9352 29.9443 33.0932C30.1199 33.2454 30.2076 33.4853 30.2076 33.8131C30.2076 34.1349 30.1199 34.3749 29.9443 34.5329C29.7746 34.6909 29.5697 34.7699 29.3298 34.7699C29.0781 34.7699 28.8674 34.6909 28.6977 34.5329C28.5338 34.3749 28.4519 34.1349 28.4519 33.8131C28.4519 33.4853 28.5338 33.2454 28.6977 33.0932C28.8674 32.9352 29.0781 32.8562 29.3298 32.8562ZM36.5546 46.2525C35.3373 46.2525 34.3717 45.837 33.6577 45.0059C32.9495 44.1749 32.5954 42.94 32.5954 41.3013C32.5954 39.645 32.9583 38.3955 33.684 37.5528C34.4097 36.7042 35.3754 36.2799 36.581 36.2799C37.0901 36.2799 37.5349 36.3472 37.9153 36.4818C38.2958 36.6164 38.6235 36.7978 38.8986 37.0261C39.1736 37.2485 39.4048 37.503 39.5921 37.7898H39.6974C39.674 37.6084 39.6506 37.3596 39.6272 37.0436C39.6038 36.7276 39.5921 36.4701 39.5921 36.2711V32.4172H41.0493V46.0769H39.873L39.6535 44.7074H39.5921C39.4106 44.9942 39.1795 45.2546 38.8986 45.4887C38.6235 45.7228 38.2928 45.9101 37.9066 46.0506C37.5262 46.1852 37.0755 46.2525 36.5546 46.2525ZM36.7829 45.041C37.8129 45.041 38.5416 44.7484 38.9688 44.1631C39.396 43.5779 39.6096 42.7088 39.6096 41.5559V41.2925C39.6096 40.0693 39.4048 39.13 38.9951 38.4745C38.5913 37.8191 37.8539 37.4913 36.7829 37.4913C35.8875 37.4913 35.2174 37.8366 34.7726 38.5272C34.3278 39.212 34.1054 40.1484 34.1054 41.3364C34.1054 42.5186 34.3249 43.4316 34.7638 44.0754C35.2086 44.7191 35.8816 45.041 36.7829 45.041ZM55.0338 43.4433C55.0338 44.0578 54.8787 44.5757 54.5685 44.9971C54.2642 45.4126 53.8253 45.7258 53.2517 45.9364C52.6841 46.1471 52.0052 46.2525 51.2151 46.2525C50.5421 46.2525 49.9597 46.1998 49.4681 46.0945C48.9765 45.9891 48.5464 45.8399 48.1777 45.6467V44.3036C48.5698 44.4967 49.038 44.6723 49.5822 44.8303C50.1265 44.9883 50.6825 45.0674 51.2502 45.0674C52.0812 45.0674 52.6841 44.9327 53.0586 44.6635C53.4332 44.3943 53.6204 44.0285 53.6204 43.5662C53.6204 43.3028 53.5444 43.0717 53.3922 42.8727C53.2459 42.6678 52.9972 42.4718 52.646 42.2845C52.2949 42.0914 51.8091 41.8807 51.1887 41.6524C50.5742 41.4183 50.0417 41.1872 49.591 40.9589C49.1462 40.7248 48.8009 40.441 48.5551 40.1074C48.3152 39.7738 48.1952 39.3407 48.1952 38.8081C48.1952 37.9946 48.5229 37.3714 49.1784 36.9383C49.8398 36.4993 50.7059 36.2799 51.7769 36.2799C52.3563 36.2799 52.8977 36.3384 53.401 36.4554C53.9101 36.5666 54.3842 36.7188 54.8231 36.9119L54.3315 38.0795C53.9336 37.9098 53.5093 37.7664 53.0586 37.6493C52.608 37.5323 52.1486 37.4738 51.6804 37.4738C51.0073 37.4738 50.4894 37.585 50.1265 37.8074C49.7695 38.0298 49.591 38.3341 49.591 38.7203C49.591 39.0188 49.673 39.2646 49.8368 39.4578C50.0065 39.6509 50.2758 39.8323 50.6445 40.002C51.0132 40.1718 51.4989 40.3707 52.1017 40.599C52.7045 40.8214 53.2254 41.0526 53.6643 41.2925C54.1033 41.5266 54.4398 41.8134 54.6739 42.1528C54.9138 42.4864 55.0338 42.9166 55.0338 43.4433ZM65.6736 41.2486C65.6736 42.0387 65.5712 42.7439 65.3664 43.3643C65.1615 43.9846 64.866 44.5084 64.4797 44.9357C64.0934 45.3629 63.6252 45.6906 63.0751 45.9189C62.5308 46.1413 61.9134 46.2525 61.2228 46.2525C60.579 46.2525 59.9879 46.1413 59.4495 45.9189C58.9169 45.6906 58.4546 45.3629 58.0625 44.9357C57.6762 44.5084 57.3748 43.9846 57.1583 43.3643C56.9476 42.7439 56.8422 42.0387 56.8422 41.2486C56.8422 40.1952 57.0207 39.2997 57.3777 38.5623C57.7347 37.8191 58.2439 37.2543 58.9052 36.868C59.5724 36.4759 60.3654 36.2799 61.2843 36.2799C62.1621 36.2799 62.9288 36.4759 63.5843 36.868C64.2456 37.2602 64.7577 37.8278 65.1206 38.5711C65.4893 39.3085 65.6736 40.201 65.6736 41.2486ZM58.3522 41.2486C58.3522 42.0211 58.4546 42.6912 58.6594 43.2589C58.8643 43.8266 59.1803 44.2656 59.6075 44.5757C60.0348 44.8859 60.5849 45.041 61.2579 45.041C61.9251 45.041 62.4723 44.8859 62.8995 44.5757C63.3326 44.2656 63.6516 43.8266 63.8564 43.2589C64.0613 42.6912 64.1637 42.0211 64.1637 41.2486C64.1637 40.4819 64.0613 39.8206 63.8564 39.2646C63.6516 38.7028 63.3356 38.2697 62.9083 37.9654C62.4811 37.6611 61.928 37.5089 61.2491 37.5089C60.2484 37.5089 59.5139 37.8396 59.0457 38.5009C58.5833 39.1622 58.3522 40.0781 58.3522 41.2486ZM78.6398 36.2799C79.6991 36.2799 80.4979 36.5579 81.0363 37.1138C81.5748 37.664 81.844 38.5506 81.844 39.7738V46.0769H80.4043V39.844C80.4043 39.0656 80.2346 38.4833 79.8951 38.0971C79.5615 37.7049 79.0641 37.5089 78.4027 37.5089C77.4722 37.5089 76.7962 37.7781 76.3749 38.3165C75.9535 38.855 75.7428 39.648 75.7428 40.6956V46.0769H74.2943V39.844C74.2943 39.3232 74.2182 38.8901 74.0661 38.5448C73.9197 38.1995 73.6973 37.942 73.3989 37.7722C73.1062 37.5967 72.7346 37.5089 72.284 37.5089C71.6461 37.5089 71.134 37.6406 70.7477 37.9039C70.3614 38.1673 70.0805 38.5594 69.9049 39.0803C69.7352 39.5953 69.6504 40.2303 69.6504 40.9853V46.0769H68.1931V36.4554H69.3694L69.5889 37.8161H69.6679C69.8611 37.4826 70.1039 37.2016 70.3966 36.9734C70.6892 36.7451 71.0169 36.5725 71.3798 36.4554C71.7426 36.3384 72.1289 36.2799 72.5386 36.2799C73.2701 36.2799 73.8817 36.4174 74.3733 36.6925C74.8708 36.9617 75.2307 37.3743 75.4531 37.9303H75.5321C75.8481 37.3743 76.2812 36.9617 76.8313 36.6925C77.3815 36.4174 77.9843 36.2799 78.6398 36.2799ZM88.5421 36.2799C89.3615 36.2799 90.0638 36.4613 90.649 36.8241C91.2343 37.187 91.682 37.6962 91.9922 38.3516C92.3024 39.0013 92.4574 39.7621 92.4574 40.6341V41.5383H85.812C85.8295 42.6678 86.1104 43.5282 86.6547 44.1193C87.199 44.7104 87.9657 45.0059 88.9547 45.0059C89.5634 45.0059 90.1018 44.9503 90.57 44.8391C91.0382 44.7279 91.524 44.564 92.0273 44.3475V45.6292C91.5415 45.8457 91.0587 46.0037 90.5788 46.1032C90.1048 46.2027 89.5429 46.2525 88.8933 46.2525C87.9686 46.2525 87.161 46.0652 86.4704 45.6906C85.7856 45.3102 85.2531 44.7542 84.8726 44.0227C84.4922 43.2911 84.302 42.3957 84.302 41.3364C84.302 40.3005 84.4747 39.4051 84.82 38.6501C85.1711 37.8893 85.6627 37.3041 86.2948 36.8944C86.9327 36.4847 87.6818 36.2799 88.5421 36.2799ZM88.5246 37.4738C87.7462 37.4738 87.1258 37.7284 86.6635 38.2375C86.2012 38.7467 85.9261 39.4578 85.8383 40.3707H90.9299C90.9241 39.7972 90.8334 39.2939 90.6578 38.8608C90.4881 38.4219 90.2277 38.0824 89.8765 37.8425C89.5254 37.5967 89.0747 37.4738 88.5246 37.4738ZM103.229 41.2486C103.229 42.0387 103.126 42.7439 102.922 43.3643C102.717 43.9846 102.421 44.5084 102.035 44.9357C101.649 45.3629 101.181 45.6906 100.63 45.9189C100.086 46.1413 99.4687 46.2525 98.7781 46.2525C98.1343 46.2525 97.5432 46.1413 97.0048 45.9189C96.4722 45.6906 96.0099 45.3629 95.6178 44.9357C95.2315 44.5084 94.9301 43.9846 94.7136 43.3643C94.5029 42.7439 94.3975 42.0387 94.3975 41.2486C94.3975 40.1952 94.576 39.2997 94.933 38.5623C95.29 37.8191 95.7992 37.2543 96.4605 36.868C97.1277 36.4759 97.9207 36.2799 98.8396 36.2799C99.7174 36.2799 100.484 36.4759 101.14 36.868C101.801 37.2602 102.313 37.8278 102.676 38.5711C103.045 39.3085 103.229 40.201 103.229 41.2486ZM95.9075 41.2486C95.9075 42.0211 96.0099 42.6912 96.2147 43.2589C96.4196 43.8266 96.7356 44.2656 97.1628 44.5757C97.5901 44.8859 98.1402 45.041 98.8132 45.041C99.4804 45.041 100.028 44.8859 100.455 44.5757C100.888 44.2656 101.207 43.8266 101.412 43.2589C101.617 42.6912 101.719 42.0211 101.719 41.2486C101.719 40.4819 101.617 39.8206 101.412 39.2646C101.207 38.7028 100.891 38.2697 100.464 37.9654C100.036 37.6611 99.4833 37.5089 98.8044 37.5089C97.8037 37.5089 97.0692 37.8396 96.601 38.5009C96.1386 39.1622 95.9075 40.0781 95.9075 41.2486ZM110.305 36.2799C111.446 36.2799 112.309 36.5608 112.894 37.1226C113.48 37.6786 113.772 38.574 113.772 39.8089V46.0769H112.332V39.9055C112.332 39.1037 112.148 38.5038 111.779 38.1058C111.417 37.7079 110.858 37.5089 110.103 37.5089C109.037 37.5089 108.288 37.8103 107.855 38.4131C107.422 39.0159 107.206 39.8908 107.206 41.0379V46.0769H105.748V36.4554H106.925L107.144 37.8425H107.223C107.428 37.503 107.688 37.2192 108.005 36.9909C108.321 36.7568 108.675 36.5813 109.067 36.4642C109.459 36.3413 109.871 36.2799 110.305 36.2799ZM120.479 36.2799C121.298 36.2799 122.001 36.4613 122.586 36.8241C123.171 37.187 123.619 37.6962 123.929 38.3516C124.239 39.0013 124.394 39.7621 124.394 40.6341V41.5383H117.749C117.766 42.6678 118.047 43.5282 118.592 44.1193C119.136 44.7104 119.903 45.0059 120.892 45.0059C121.5 45.0059 122.039 44.9503 122.507 44.8391C122.975 44.7279 123.461 44.564 123.964 44.3475V45.6292C123.478 45.8457 122.996 46.0037 122.516 46.1032C122.042 46.2027 121.48 46.2525 120.83 46.2525C119.906 46.2525 119.098 46.0652 118.407 45.6906C117.723 45.3102 117.19 44.7542 116.81 44.0227C116.429 43.2911 116.239 42.3957 116.239 41.3364C116.239 40.3005 116.412 39.4051 116.757 38.6501C117.108 37.8893 117.6 37.3041 118.232 36.8944C118.87 36.4847 119.619 36.2799 120.479 36.2799ZM120.462 37.4738C119.683 37.4738 119.063 37.7284 118.6 38.2375C118.138 38.7467 117.863 39.4578 117.775 40.3707H122.867C122.861 39.7972 122.77 39.2939 122.595 38.8608C122.425 38.4219 122.165 38.0824 121.813 37.8425C121.462 37.5967 121.012 37.4738 120.462 37.4738ZM33.0168 64.4433C33.0168 65.0578 32.8617 65.5757 32.5516 65.9971C32.2472 66.4126 31.8083 66.7258 31.2347 66.9364C30.6671 67.1471 29.9882 67.2525 29.1981 67.2525C28.5251 67.2525 27.9427 67.1998 27.4511 67.0945C26.9595 66.9891 26.5294 66.8399 26.1607 66.6467V65.3036C26.5528 65.4967 27.021 65.6723 27.5652 65.8303C28.1095 65.9883 28.6655 66.0674 29.2332 66.0674C30.0643 66.0674 30.6671 65.9327 31.0416 65.6635C31.4162 65.3943 31.6035 65.0285 31.6035 64.5662C31.6035 64.3028 31.5274 64.0717 31.3752 63.8727C31.2289 63.6678 30.9802 63.4718 30.629 63.2845C30.2779 63.0914 29.7921 62.8807 29.1717 62.6524C28.5572 62.4183 28.0247 62.1872 27.574 61.9589C27.1292 61.7248 26.7839 61.441 26.5381 61.1074C26.2982 60.7738 26.1782 60.3407 26.1782 59.8081C26.1782 58.9946 26.5059 58.3714 27.1614 57.9383C27.8228 57.4993 28.6889 57.2799 29.7599 57.2799C30.3393 57.2799 30.8807 57.3384 31.384 57.4554C31.8931 57.5666 32.3672 57.7188 32.8061 57.9119L32.3145 59.0795C31.9166 58.9098 31.4923 58.7664 31.0416 58.6493C30.591 58.5323 30.1316 58.4738 29.6634 58.4738C28.9903 58.4738 28.4724 58.585 28.1095 58.8074C27.7525 59.0298 27.574 59.3341 27.574 59.7203C27.574 60.0188 27.656 60.2646 27.8198 60.4578C27.9896 60.6509 28.2588 60.8323 28.6275 61.002C28.9962 61.1718 29.4819 61.3707 30.0847 61.599C30.6875 61.8214 31.2084 62.0526 31.6473 62.2925C32.0863 62.5266 32.4228 62.8134 32.6569 63.1528C32.8968 63.4864 33.0168 63.9166 33.0168 64.4433ZM38.96 57.2974C40.1071 57.2974 40.9586 57.5549 41.5146 58.07C42.0706 58.585 42.3486 59.4072 42.3486 60.5368V67.0769H41.2864L41.0054 65.6548H40.9352C40.666 66.0059 40.3851 66.3015 40.0925 66.5414C39.7998 66.7755 39.4604 66.954 39.0741 67.0769C38.6937 67.194 38.2255 67.2525 37.6695 67.2525C37.0843 67.2525 36.5634 67.1501 36.1069 66.9452C35.6563 66.7404 35.2993 66.4302 35.0359 66.0147C34.7784 65.5992 34.6497 65.0724 34.6497 64.4345C34.6497 63.4747 35.0301 62.7373 35.7909 62.2223C36.5517 61.7073 37.7105 61.4263 39.2673 61.3795L40.9264 61.3093V60.7211C40.9264 59.8901 40.7479 59.3077 40.3909 58.9742C40.0339 58.6406 39.5306 58.4738 38.881 58.4738C38.3777 58.4738 37.8978 58.5469 37.4413 58.6932C36.9848 58.8396 36.5517 59.0122 36.142 59.2112L35.6943 58.1051C36.1274 57.8827 36.6249 57.6925 37.1867 57.5345C37.7485 57.3764 38.3396 57.2974 38.96 57.2974ZM40.9089 62.3364L39.4428 62.3979C38.2431 62.4447 37.3974 62.6407 36.9058 62.986C36.4142 63.3313 36.1684 63.82 36.1684 64.4521C36.1684 65.0022 36.3352 65.409 36.6688 65.6723C37.0024 65.9357 37.4442 66.0674 37.9943 66.0674C38.8488 66.0674 39.5482 65.8303 40.0925 65.3563C40.6367 64.8822 40.9089 64.1712 40.9089 63.2231V62.3364ZM43.8322 57.4554H45.3948L47.5192 63.0387C47.6421 63.3664 47.7563 63.6825 47.8616 63.9868C47.967 64.2853 48.0606 64.572 48.1425 64.8471C48.2245 65.1222 48.2888 65.3885 48.3357 65.646H48.3971C48.4791 65.3534 48.5961 64.97 48.7483 64.496C48.9004 64.0161 49.0643 63.5274 49.2399 63.0299L51.2502 57.4554H52.8216L48.6341 68.4903C48.4117 69.0814 48.1513 69.5964 47.8528 70.0353C47.5602 70.4743 47.2032 70.8108 46.7818 71.0449C46.3605 71.2848 45.8513 71.4048 45.2543 71.4048C44.9793 71.4048 44.7364 71.3872 44.5257 71.3521C44.315 71.3229 44.1336 71.2878 43.9814 71.2468V70.0792C44.1102 70.1085 44.2653 70.1348 44.4467 70.1582C44.634 70.1816 44.8271 70.1933 45.0261 70.1933C45.3889 70.1933 45.7021 70.1231 45.9654 69.9827C46.2346 69.848 46.4658 69.6491 46.6589 69.3857C46.8521 69.1223 47.0189 68.8092 47.1593 68.4464L47.686 67.0945L43.8322 57.4554ZM62.1358 66.0586C62.3757 66.0586 62.6215 66.0381 62.8732 65.9971C63.1249 65.9562 63.3297 65.9064 63.4877 65.8479V66.9803C63.318 67.0564 63.081 67.1208 62.7766 67.1735C62.4782 67.2261 62.1855 67.2525 61.8988 67.2525C61.3896 67.2525 60.9273 67.1647 60.5117 66.9891C60.0962 66.8077 59.7626 66.5034 59.511 66.0761C59.2652 65.6489 59.1423 65.0578 59.1423 64.3028V58.5967H57.7728V57.8856L59.151 57.315L59.7304 55.2257H60.6083V57.4554H63.4263V58.5967H60.6083V64.2589C60.6083 64.8617 60.7458 65.3124 61.0209 65.6109C61.3018 65.9093 61.6734 66.0586 62.1358 66.0586ZM69.8084 57.2799C70.0015 57.2799 70.2034 57.2916 70.4141 57.315C70.6248 57.3325 70.8121 57.3589 70.9759 57.394L70.7916 58.7459C70.6336 58.7049 70.458 58.6728 70.2649 58.6493C70.0717 58.6259 69.8903 58.6142 69.7206 58.6142C69.3343 58.6142 68.9686 58.6932 68.6233 58.8513C68.2838 59.0034 67.9853 59.2258 67.7278 59.5184C67.4703 59.8052 67.2684 60.1534 67.1221 60.5631C66.9758 60.9669 66.9026 61.4176 66.9026 61.915V67.0769H65.4366V57.4554H66.648L66.8061 59.2287H66.8675C67.0665 58.8717 67.3064 58.5469 67.5874 58.2543C67.8683 57.9558 68.1931 57.7188 68.5618 57.5432C68.9364 57.3677 69.3519 57.2799 69.8084 57.2799ZM76.4978 57.2799C77.3171 57.2799 78.0194 57.4613 78.6046 57.8241C79.1899 58.187 79.6376 58.6962 79.9478 59.3516C80.258 60.0013 80.4131 60.7621 80.4131 61.6341V62.5383H73.7676C73.7851 63.6678 74.0661 64.5282 74.6103 65.1193C75.1546 65.7104 75.9213 66.0059 76.9104 66.0059C77.519 66.0059 78.0574 65.9503 78.5256 65.8391C78.9938 65.7279 79.4796 65.564 79.9829 65.3475V66.6292C79.4971 66.8457 79.0143 67.0037 78.5344 67.1032C78.0604 67.2027 77.4985 67.2525 76.8489 67.2525C75.9242 67.2525 75.1166 67.0652 74.426 66.6906C73.7412 66.3102 73.2087 65.7542 72.8283 65.0227C72.4478 64.2911 72.2576 63.3957 72.2576 62.3364C72.2576 61.3005 72.4303 60.4051 72.7756 59.6501C73.1267 58.8893 73.6183 58.3041 74.2504 57.8944C74.8883 57.4847 75.6374 57.2799 76.4978 57.2799ZM76.4802 58.4738C75.7018 58.4738 75.0815 58.7284 74.6191 59.2375C74.1568 59.7467 73.8817 60.4578 73.7939 61.3707H78.8856C78.8797 60.7972 78.789 60.2939 78.6134 59.8608C78.4437 59.4219 78.1833 59.0824 77.8321 58.8425C77.481 58.5967 77.0303 58.4738 76.4802 58.4738ZM86.4879 57.2974C87.635 57.2974 88.4865 57.5549 89.0425 58.07C89.5985 58.585 89.8765 59.4072 89.8765 60.5368V67.0769H88.8143L88.5334 65.6548H88.4631C88.1939 66.0059 87.913 66.3015 87.6204 66.5414C87.3278 66.7755 86.9883 66.954 86.602 67.0769C86.2216 67.194 85.7534 67.2525 85.1975 67.2525C84.6122 67.2525 84.0913 67.1501 83.6348 66.9452C83.1842 66.7404 82.8272 66.4302 82.5638 66.0147C82.3063 65.5992 82.1776 65.0724 82.1776 64.4345C82.1776 63.4747 82.558 62.7373 83.3188 62.2223C84.0796 61.7073 85.2384 61.4263 86.7952 61.3795L88.4544 61.3093V60.7211C88.4544 59.8901 88.2759 59.3077 87.9189 58.9742C87.5619 58.6406 87.0585 58.4738 86.4089 58.4738C85.9056 58.4738 85.4257 58.5469 84.9692 58.6932C84.5127 58.8396 84.0796 59.0122 83.67 59.2112L83.2222 58.1051C83.6553 57.8827 84.1528 57.6925 84.7146 57.5345C85.2765 57.3764 85.8676 57.2974 86.4879 57.2974ZM88.4368 62.3364L86.9708 62.3979C85.771 62.4447 84.9253 62.6407 84.4337 62.986C83.9421 63.3313 83.6963 63.82 83.6963 64.4521C83.6963 65.0022 83.8631 65.409 84.1967 65.6723C84.5303 65.9357 84.9721 66.0674 85.5223 66.0674C86.3767 66.0674 87.0761 65.8303 87.6204 65.3563C88.1647 64.8822 88.4368 64.1712 88.4368 63.2231V62.3364ZM95.9865 66.0586C96.2264 66.0586 96.4722 66.0381 96.7239 65.9971C96.9755 65.9562 97.1804 65.9064 97.3384 65.8479V66.9803C97.1687 67.0564 96.9317 67.1208 96.6273 67.1735C96.3288 67.2261 96.0362 67.2525 95.7495 67.2525C95.2403 67.2525 94.7779 67.1647 94.3624 66.9891C93.9469 66.8077 93.6133 66.5034 93.3616 66.0761C93.1158 65.6489 92.9929 65.0578 92.9929 64.3028V58.5967H91.6235V57.8856L93.0017 57.315L93.5811 55.2257H94.459V57.4554H97.2769V58.5967H94.459V64.2589C94.459 64.8617 94.5965 65.3124 94.8716 65.6109C95.1525 65.9093 95.5241 66.0586 95.9865 66.0586ZM105.511 64.4433C105.511 65.0578 105.356 65.5757 105.046 65.9971C104.742 66.4126 104.303 66.7258 103.729 66.9364C103.162 67.1471 102.483 67.2525 101.693 67.2525C101.02 67.2525 100.437 67.1998 99.9457 67.0945C99.4541 66.9891 99.0239 66.8399 98.6552 66.6467V65.3036C99.0473 65.4967 99.5155 65.6723 100.06 65.8303C100.604 65.9883 101.16 66.0674 101.728 66.0674C102.559 66.0674 103.162 65.9327 103.536 65.6635C103.911 65.3943 104.098 65.0285 104.098 64.5662C104.098 64.3028 104.022 64.0717 103.87 63.8727C103.723 63.6678 103.475 63.4718 103.124 63.2845C102.772 63.0914 102.287 62.8807 101.666 62.6524C101.052 62.4183 100.519 62.1872 100.069 61.9589C99.6238 61.7248 99.2785 61.441 99.0327 61.1074C98.7927 60.7738 98.6728 60.3407 98.6728 59.8081C98.6728 58.9946 99.0005 58.3714 99.656 57.9383C100.317 57.4993 101.183 57.2799 102.254 57.2799C102.834 57.2799 103.375 57.3384 103.879 57.4554C104.388 57.5666 104.862 57.7188 105.301 57.9119L104.809 59.0795C104.411 58.9098 103.987 58.7664 103.536 58.6493C103.086 58.5323 102.626 58.4738 102.158 58.4738C101.485 58.4738 100.967 58.585 100.604 58.8074C100.247 59.0298 100.069 59.3341 100.069 59.7203C100.069 60.0188 100.151 60.2646 100.314 60.4578C100.484 60.6509 100.753 60.8323 101.122 61.002C101.491 61.1718 101.976 61.3707 102.579 61.599C103.182 61.8214 103.703 62.0526 104.142 62.2925C104.581 62.5266 104.917 62.8134 105.151 63.1528C105.391 63.4864 105.511 63.9166 105.511 64.4433ZM108.847 63.5127V63.0563C108.847 62.5881 108.891 62.1872 108.979 61.8536C109.067 61.5141 109.219 61.1981 109.435 60.9055C109.658 60.6129 109.965 60.3027 110.357 59.9749C110.814 59.5945 111.174 59.2726 111.437 59.0093C111.706 58.7401 111.899 58.4708 112.016 58.2016C112.133 57.9324 112.192 57.6076 112.192 57.2272C112.192 56.6185 111.996 56.1533 111.604 55.8314C111.212 55.5036 110.659 55.3398 109.945 55.3398C109.365 55.3398 108.85 55.4129 108.4 55.5592C107.949 55.7056 107.516 55.8811 107.1 56.086L106.591 54.9096C107.071 54.658 107.592 54.4531 108.154 54.2951C108.716 54.1371 109.342 54.0581 110.032 54.0581C111.162 54.0581 112.037 54.339 112.657 54.9008C113.278 55.4568 113.588 56.2235 113.588 57.2009C113.588 57.7451 113.5 58.2104 113.324 58.5967C113.149 58.9771 112.9 59.3282 112.578 59.6501C112.256 59.9662 111.876 60.3027 111.437 60.6597C111.051 60.9874 110.755 61.2771 110.55 61.5288C110.346 61.7746 110.205 62.0291 110.129 62.2925C110.053 62.55 110.015 62.8602 110.015 63.2231V63.5127H108.847ZM108.461 66.1639C108.461 65.7542 108.558 65.4645 108.751 65.2948C108.944 65.1193 109.193 65.0315 109.497 65.0315C109.784 65.0315 110.027 65.1193 110.226 65.2948C110.43 65.4645 110.533 65.7542 110.533 66.1639C110.533 66.5677 110.43 66.8633 110.226 67.0506C110.027 67.232 109.784 67.3227 109.497 67.3227C109.193 67.3227 108.944 67.232 108.751 67.0506C108.558 66.8633 108.461 66.5677 108.461 66.1639Z" fill="#090084"/>
</svg>
