<svg width="570" height="476" viewBox="0 0 570 476" fill="none" xmlns="http://www.w3.org/2000/svg">
<g clip-path="url(#clip0_3173_30400)">
<g filter="url(#filter0_d_3173_30400)">
<ellipse cx="210.175" cy="252.296" rx="90.3451" ry="102.507" transform="rotate(90 210.175 252.296)" fill="#C34EAB"/>
<path d="M162.339 280.387C162.339 291.013 170.953 299.626 181.579 299.626C189.763 299.626 198.427 294.517 201.977 287.314C203.292 284.868 208.606 278.842 219.351 274.305C228.624 271.105 235.285 262.299 235.285 251.938C235.285 241.577 228.624 232.772 219.351 229.572C208.606 225.034 203.292 219.009 201.977 216.563C198.427 209.36 189.763 204.25 181.579 204.25C170.953 204.25 162.339 212.864 162.339 223.49C162.012 227.841 162.727 238.373 168.199 245.696C168.951 246.701 169.528 247.682 169.958 248.633C170.904 250.723 170.904 253.154 169.958 255.244C169.528 256.194 168.951 257.176 168.199 258.181C162.727 265.503 162.012 276.036 162.339 280.387Z" fill="#392FB4"/>
<path d="M232.827 217.604C222.458 220.371 212.447 216.6 210.466 209.181C208.486 201.761 215.287 193.504 225.657 190.736C236.026 187.969 246.037 191.74 248.017 199.159C249.997 206.579 243.196 214.836 232.827 217.604Z" fill="#392FB4"/>
<path d="M232.827 286.267C222.458 283.5 212.447 287.271 210.466 294.69C208.486 302.109 215.287 310.367 225.656 313.135C236.026 315.902 246.037 312.131 248.017 304.712C249.997 297.292 243.196 289.034 232.827 286.267Z" fill="#392FB4"/>
<path d="M265.981 258.48C254.079 255.303 242.633 259.463 240.416 267.771C238.199 276.078 246.05 285.388 257.951 288.565C269.853 291.741 281.299 287.581 283.516 279.274C285.733 270.966 277.882 261.656 265.981 258.48Z" fill="#392FB4"/>
<path d="M265.981 245.381C254.079 248.557 242.633 244.398 240.416 236.09C238.199 227.782 246.05 218.472 257.951 215.296C269.853 212.12 281.299 216.279 283.516 224.587C285.733 232.895 277.882 242.204 265.981 245.381Z" fill="#392FB4"/>
<rect x="156.315" y="179.323" width="149.417" height="646.315" transform="rotate(90 156.315 179.323)" fill="#C34EAB"/>
</g>
<g filter="url(#filter1_d_3173_30400)">
<g clip-path="url(#clip1_3173_30400)">
<path d="M534.052 444.599L534.052 30.6936L272.615 30.6936L272.615 444.599L534.052 444.599Z" fill="white"/>
<g clip-path="url(#clip2_3173_30400)">
<rect width="264.042" height="456.405" transform="translate(271.897 8.31714)" fill="white"/>
<path d="M337.372 47.6969C340.641 45.8925 341.814 41.7883 340.002 38.5333C338.598 36.0212 335.543 34.2345 332.718 34.376C331.741 34.376 328.969 33.7922 325.754 31.2625C323.178 28.9627 319.341 28.432 316.143 30.1834C312.963 31.9524 311.382 35.4905 311.986 38.8694C312.43 42.9382 311.488 45.5917 310.955 46.4055C309.339 48.723 309.25 52.2433 310.653 54.7377C312.465 57.9927 316.587 59.1603 319.856 57.3559C321.241 56.719 324.368 54.7023 325.683 51.7834C325.86 51.3765 326.074 51.0404 326.287 50.7397C326.767 50.1028 327.513 49.6782 328.33 49.6075C328.703 49.5721 329.094 49.5898 329.538 49.6429C332.718 50.0674 336.093 48.493 337.372 47.6615L337.372 47.6969Z" fill="#392FB4"/>
<path d="M306.016 36.7972C308.645 39.5039 309.196 43.2012 307.241 45.0763C305.305 46.9515 301.592 46.2616 298.963 43.555C296.333 40.8483 295.783 37.151 297.737 35.2758C299.691 33.4007 303.386 34.0906 306.016 36.7972Z" fill="#392FB4"/>
<path d="M327.137 25.1229C328.061 28.7672 330.921 31.1908 333.55 30.5362C336.18 29.8817 337.548 26.3967 336.624 22.7524C335.7 19.1082 332.84 16.6846 330.21 17.3392C327.581 17.9937 326.213 21.4787 327.137 25.1229Z" fill="#392FB4"/>
<path d="M308.893 21.9237C311.913 25.0195 312.588 29.2476 310.403 31.335C308.218 33.4225 304.025 32.6087 301.005 29.4952C297.985 26.3994 297.31 22.1714 299.495 20.0839C301.68 17.9964 305.873 18.8102 308.893 21.9237Z" fill="#392FB4"/>
<path d="M298.626 132.876C302.143 131.603 303.956 127.728 302.659 124.243C301.664 121.554 298.928 119.308 296.121 119.007C295.162 118.865 292.515 117.839 289.726 114.85C287.54 112.178 283.827 111.046 280.399 112.285C276.97 113.523 274.874 116.778 274.927 120.21C274.732 124.296 273.364 126.755 272.724 127.481C270.77 129.515 270.13 132.982 271.107 135.671C272.387 139.174 276.277 140.961 279.795 139.687C281.269 139.28 284.662 137.776 286.421 135.088C286.67 134.716 286.919 134.415 287.185 134.15C287.754 133.584 288.571 133.301 289.37 133.354C289.743 133.389 290.134 133.46 290.56 133.584C293.634 134.504 297.205 133.478 298.608 132.841L298.626 132.876Z" fill="#392FB4"/>
<path d="M292.053 108.976C292.391 112.727 294.843 115.557 297.543 115.327C300.243 115.079 302.144 111.86 301.807 108.109C301.469 104.359 299.017 101.528 296.317 101.758C293.617 102.006 291.716 105.226 292.053 108.976Z" fill="#392FB4"/>
<path d="M278.869 101.405C279.26 105.704 282.014 108.977 285.034 108.694C288.054 108.428 290.186 104.731 289.795 100.432C289.404 96.1335 286.651 92.8607 283.631 93.1438C280.61 93.4091 278.479 97.1064 278.869 101.405Z" fill="#392FB4"/>
<path d="M274.536 102.979C277.023 106.518 277.023 110.781 274.536 112.515C272.049 114.248 268.034 112.78 265.547 109.242C263.06 105.704 263.06 101.44 265.547 99.7068C268.034 97.9731 272.049 99.4414 274.536 102.979Z" fill="#392FB4"/>
<path d="M382.351 154.106C385.548 152.178 386.597 148.038 384.66 144.854C383.168 142.395 380.059 140.714 377.252 140.962C376.275 141.015 373.486 140.502 370.181 138.096C367.534 135.885 363.662 135.478 360.535 137.353C357.408 139.228 355.969 142.82 356.68 146.181C357.266 150.232 356.413 152.903 355.916 153.752C354.388 156.123 354.424 159.643 355.916 162.102C357.852 165.286 362.009 166.312 365.207 164.402C366.575 163.712 369.631 161.589 370.839 158.635C370.999 158.228 371.194 157.874 371.407 157.573C371.869 156.919 372.597 156.477 373.397 156.37C373.77 156.335 374.161 156.317 374.605 156.37C377.803 156.689 381.107 155.008 382.368 154.124L382.351 154.106Z" fill="#392FB4"/>
<path d="M350.623 144.307C353.341 146.926 354.016 150.605 352.151 152.533C350.268 154.462 346.555 153.913 343.837 151.313C341.119 148.695 340.444 145.015 342.309 143.087C344.192 141.158 347.905 141.707 350.623 144.307Z" fill="#392FB4"/>
<path d="M371.341 131.9C372.39 135.509 375.339 137.826 377.95 137.083C380.544 136.34 381.805 132.802 380.757 129.194C379.709 125.585 376.76 123.267 374.166 124.01C371.572 124.753 370.311 128.291 371.359 131.9L371.341 131.9Z" fill="#392FB4"/>
<path d="M356.932 126.972C358.14 131.111 361.462 133.8 364.375 132.969C367.289 132.137 368.657 128.086 367.467 123.947C366.259 119.807 362.937 117.118 360.023 117.949C357.109 118.781 355.742 122.832 356.932 126.972Z" fill="#392FB4"/>
<path d="M352.988 129.34C356.115 132.329 356.932 136.522 354.836 138.698C352.739 140.856 348.493 140.184 345.384 137.194C342.258 134.205 341.44 130.012 343.537 127.836C345.633 125.678 349.879 126.35 352.988 129.34Z" fill="#392FB4"/>
<path d="M365.584 253.283C368.817 251.425 369.918 247.303 368.053 244.066C366.614 241.589 363.523 239.856 360.698 240.033C359.721 240.068 356.95 239.502 353.681 237.043C351.069 234.796 347.214 234.319 344.052 236.141C340.89 237.963 339.38 241.519 340.055 244.897C340.57 248.949 339.664 251.62 339.149 252.451C337.585 254.786 337.55 258.307 338.989 260.801C340.854 264.021 345.011 265.118 348.245 263.26C349.63 262.588 352.704 260.536 353.983 257.582C354.161 257.175 354.356 256.839 354.569 256.538C355.031 255.883 355.777 255.459 356.577 255.37C356.95 255.335 357.34 255.335 357.785 255.388C360.982 255.759 364.322 254.132 365.584 253.265L365.584 253.283Z" fill="#392FB4"/>
<path d="M334.033 242.906C336.698 245.56 337.32 249.257 335.401 251.168C333.483 253.078 329.77 252.459 327.105 249.806C324.44 247.152 323.818 243.455 325.737 241.544C327.655 239.651 331.368 240.253 334.033 242.906Z" fill="#392FB4"/>
<path d="M354.942 230.869C355.919 234.495 358.833 236.866 361.444 236.176C364.056 235.468 365.37 231.966 364.393 228.339C363.416 224.713 360.503 222.342 357.891 223.032C355.28 223.74 353.965 227.242 354.942 230.869Z" fill="#392FB4"/>
<path d="M340.639 225.7C341.776 229.857 345.062 232.599 347.976 231.821C350.889 231.043 352.346 227.027 351.227 222.852C350.107 218.677 346.803 215.953 343.89 216.731C340.976 217.509 339.519 221.525 340.639 225.7Z" fill="#392FB4"/>
<path d="M336.642 227.977C339.715 231.038 340.461 235.23 338.311 237.353C336.18 239.476 331.952 238.733 328.878 235.69C325.805 232.63 325.059 228.437 327.208 226.314C329.34 224.191 333.568 224.934 336.642 227.977Z" fill="#392FB4"/>
<path d="M461.195 241.758C463.487 238.822 462.972 234.594 460.023 232.294C457.749 230.525 454.249 230.083 451.691 231.303C450.802 231.693 448.013 232.223 444.052 231.162C440.783 230.047 437.034 231.038 434.796 233.904C432.557 236.77 432.504 240.626 434.37 243.51C436.377 247.083 436.537 249.878 436.377 250.851C435.809 253.611 437.105 256.884 439.379 258.653C442.328 260.935 446.592 260.422 448.884 257.485C449.914 256.353 451.993 253.293 452.064 250.091C452.064 249.648 452.117 249.259 452.206 248.905C452.401 248.127 452.917 247.455 453.645 247.083C453.965 246.906 454.338 246.765 454.764 246.659C457.873 245.81 460.342 243.068 461.195 241.794L461.195 241.758Z" fill="#392FB4"/>
<path d="M428.044 243.922C431.526 245.39 433.48 248.592 432.432 251.068C431.384 253.545 427.707 254.359 424.225 252.891C420.743 251.422 418.788 248.22 419.837 245.744C420.885 243.267 424.562 242.453 428.044 243.922Z" fill="#392FB4"/>
<path d="M442.917 224.958C445.191 227.947 448.797 229.062 450.947 227.452C453.096 225.824 453.007 222.092 450.716 219.084C448.442 216.095 444.835 214.963 442.686 216.59C440.536 218.218 440.625 221.95 442.917 224.958Z" fill="#392FB4"/>
<path d="M427.689 225.487C430.3 228.937 434.386 230.246 436.802 228.424C439.218 226.602 439.058 222.338 436.429 218.906C433.818 215.457 429.732 214.148 427.316 215.97C424.899 217.792 425.059 222.055 427.689 225.487Z" fill="#392FB4"/>
<path d="M424.849 229.095C428.846 230.776 431.12 234.402 429.929 237.162C428.739 239.939 424.547 240.806 420.567 239.126C416.57 237.445 414.296 233.819 415.486 231.059C416.676 228.281 420.869 227.415 424.849 229.095Z" fill="#392FB4"/>
<path d="M460.289 328.904C462.741 326.091 462.439 321.828 459.614 319.404C457.447 317.529 453.965 316.892 451.354 317.971C450.448 318.325 447.641 318.696 443.732 317.423C440.534 316.149 436.733 316.945 434.334 319.687C431.936 322.429 431.687 326.285 433.411 329.257C435.223 332.919 435.24 335.732 435.027 336.687C434.317 339.412 435.436 342.755 437.603 344.63C440.428 347.072 444.709 346.771 447.161 343.958C448.245 342.879 450.483 339.925 450.732 336.741C450.767 336.298 450.838 335.909 450.945 335.555C451.176 334.777 451.744 334.14 452.473 333.804C452.81 333.645 453.183 333.521 453.61 333.432C456.754 332.76 459.366 330.124 460.289 328.904Z" fill="#392FB4"/>
<path d="M427.068 329.331C430.461 330.976 432.255 334.267 431.065 336.69C429.875 339.114 426.162 339.733 422.769 338.088C419.375 336.443 417.581 333.134 418.771 330.729C419.962 328.305 423.675 327.686 427.068 329.331Z" fill="#392FB4"/>
<path d="M442.898 311.167C445.012 314.28 448.547 315.571 450.786 314.068C453.024 312.564 453.113 308.814 450.999 305.7C448.885 302.587 445.35 301.295 443.111 302.799C440.873 304.303 440.784 308.053 442.898 311.167Z" fill="#392FB4"/>
<path d="M427.673 310.895C430.107 314.469 434.104 315.99 436.609 314.31C439.114 312.629 439.167 308.348 436.751 304.774C434.317 301.201 430.32 299.68 427.815 301.36C425.31 303.041 425.257 307.322 427.673 310.895Z" fill="#392FB4"/>
<path d="M424.652 314.365C428.542 316.258 430.639 319.991 429.306 322.698C427.974 325.404 423.746 326.059 419.855 324.166C415.965 322.273 413.868 318.54 415.201 315.834C416.533 313.127 420.761 312.473 424.652 314.365Z" fill="#392FB4"/>
<path d="M547.607 323.209C549.81 320.202 549.135 315.974 546.097 313.798C543.769 312.117 540.234 311.781 537.747 313.09C536.859 313.515 534.105 314.134 530.108 313.214C526.804 312.224 523.091 313.338 520.941 316.275C518.791 319.211 518.88 323.085 520.852 325.898C522.984 329.401 523.25 332.196 523.108 333.151C522.629 335.929 524.05 339.148 526.377 340.829C529.397 343.023 533.643 342.35 535.828 339.325C536.823 338.158 538.795 335.026 538.742 331.825C538.742 331.382 538.777 330.993 538.848 330.622C539.008 329.843 539.506 329.153 540.216 328.746C540.536 328.569 540.909 328.41 541.318 328.269C544.391 327.313 546.772 324.483 547.571 323.174L547.607 323.209Z" fill="#392FB4"/>
<path d="M514.544 326.517C518.079 327.861 520.14 330.993 519.181 333.505C518.204 336.017 514.562 336.954 511.044 335.61C507.509 334.265 505.448 331.134 506.407 328.622C507.384 326.11 511.026 325.172 514.544 326.517Z" fill="#392FB4"/>
<path d="M528.74 307.06C531.121 309.979 534.763 310.97 536.859 309.271C538.955 307.573 538.724 303.84 536.344 300.921C533.963 298.002 530.321 297.012 528.225 298.71C526.129 300.408 526.36 304.141 528.74 307.06Z" fill="#392FB4"/>
<path d="M513.552 308.117C516.288 311.461 520.41 312.646 522.755 310.736C525.1 308.843 524.798 304.579 522.062 301.236C519.326 297.892 515.204 296.707 512.859 298.618C510.514 300.51 510.816 304.774 513.552 308.117Z" fill="#392FB4"/>
<path d="M510.85 311.833C514.9 313.372 517.298 316.91 516.215 319.723C515.131 322.536 510.974 323.562 506.924 322.005C502.873 320.466 500.475 316.928 501.558 314.115C502.642 311.302 506.799 310.276 510.85 311.833Z" fill="#392FB4"/>
<path d="M483.732 394.464L463.971 394.464L463.971 429.822L483.732 429.822L483.732 394.464Z" fill="#F26724"/>
<path d="M465.236 412.146C465.236 404.982 468.617 398.587 473.866 394.467C470.022 391.454 465.174 389.655 459.894 389.655C447.404 389.655 437.308 399.725 437.308 412.146C437.308 424.568 447.435 434.637 459.894 434.637C465.174 434.637 470.022 432.839 473.866 429.826C468.601 425.706 465.236 419.326 465.236 412.146Z" fill="#E31E27"/>
<path d="M510.44 412.146C510.44 424.568 500.313 434.637 487.854 434.637C482.574 434.637 477.727 432.839 473.882 429.826C479.147 425.706 482.512 419.326 482.512 412.146C482.512 404.967 479.131 398.587 473.882 394.467C477.727 391.454 482.574 389.655 487.854 389.655C500.344 389.655 510.44 399.725 510.44 412.146Z" fill="#F9A01F"/>
<path d="M319.371 406.845L318.352 403.801C317.997 402.725 318.476 401.495 319.526 401.034C320.745 400.511 322.119 401.126 322.521 402.356L322.69 402.863L323.138 402.786C324.281 402.571 325.438 403.217 325.763 404.308C326.133 405.569 325.315 406.829 324.049 407.06L320.761 407.66C320.159 407.767 319.572 407.429 319.371 406.845Z" fill="#FC6B4D"/>
<path d="M358.555 422.782C358.555 422.26 358.849 422.106 358.849 421.091L358.849 404.534C358.849 402.951 358.293 402.874 358.293 402.32C358.293 401.875 358.524 401.644 359.296 401.567C361.72 401.306 363.727 401.044 363.974 401.044C364.499 401.044 364.715 401.337 364.715 402.059L364.715 421.091C364.715 422.106 365.009 422.26 365.009 422.782C365.009 423.259 364.653 423.536 364.113 423.536C363.341 423.536 362.554 423.505 361.782 423.505C361.01 423.505 360.223 423.536 359.451 423.536C358.926 423.536 358.571 423.243 358.571 422.767L358.555 422.782Z" fill="#392FB4"/>
<path d="M341.559 415.807C341.559 420.649 338.564 423.955 334.226 423.955C333.608 423.955 333.284 423.924 332.713 423.786C331.586 423.555 330.613 423.201 329.517 423.201C328.606 423.201 328.159 423.617 327.649 423.617C327.201 423.617 326.877 423.324 326.877 422.863C326.877 422.341 327.263 422.248 327.263 421.403L327.263 404.554C327.263 402.97 326.707 402.893 326.707 402.34C326.707 401.894 326.939 401.664 327.711 401.587C330.135 401.356 332.142 401.064 332.389 401.064C332.914 401.064 333.13 401.356 333.13 402.079L333.13 410.811C333.933 409.489 335.106 408.735 336.464 408.735C339.444 408.735 341.544 411.041 341.544 415.822L341.559 415.807ZM335.307 418.297C335.307 414.469 334.627 411.81 333.624 411.81C333.439 411.81 333.269 411.871 333.114 411.979L333.114 420.188C333.114 421.68 333.531 422.617 334.118 422.617C334.89 422.617 335.307 421.618 335.307 418.297Z" fill="#392FB4"/>
<path d="M357.35 415.807C357.35 420.649 354.355 423.955 350.017 423.955C349.399 423.955 349.075 423.924 348.504 423.786C347.377 423.555 346.404 423.201 345.308 423.201C344.397 423.201 343.949 423.617 343.44 423.617C342.992 423.617 342.668 423.324 342.668 422.863C342.668 422.341 343.054 422.248 343.054 421.403L343.054 404.554C343.054 402.97 342.498 402.893 342.498 402.34C342.498 401.894 342.73 401.664 343.502 401.587C345.925 401.356 347.932 401.064 348.179 401.064C348.704 401.064 348.921 401.356 348.921 402.079L348.921 410.811C349.723 409.489 350.897 408.735 352.271 408.735C355.25 408.735 357.35 411.041 357.35 415.822L357.35 415.807ZM351.113 418.297C351.113 414.469 350.433 411.81 349.43 411.81C349.245 411.81 349.075 411.871 348.921 411.979L348.921 420.188C348.921 421.68 349.337 422.617 349.924 422.617C350.696 422.617 351.113 421.618 351.113 418.297Z" fill="#392FB4"/>
<path d="M317.507 422.785C317.507 423.262 317.152 423.538 316.611 423.538C315.839 423.538 315.052 423.508 314.28 423.508C313.508 423.508 312.721 423.538 311.949 423.538C311.424 423.538 311.054 423.246 311.054 422.785C311.054 422.262 311.347 422.109 311.347 421.094L311.347 412.977C311.347 412.07 311.115 411.639 310.498 411.639C310.204 411.639 309.973 411.732 309.695 411.901L309.695 421.109C309.695 422.124 309.988 422.278 309.988 422.8C309.988 423.277 309.633 423.554 309.093 423.554C308.321 423.554 307.534 423.523 306.762 423.523C305.99 423.523 305.202 423.554 304.431 423.554C303.906 423.554 303.535 423.262 303.535 422.8C303.535 422.278 303.828 422.124 303.828 421.109L303.828 412.408C303.828 410.855 303.273 410.779 303.273 410.21C303.273 409.733 303.566 409.595 304.276 409.441L307.796 408.765C308.151 408.703 308.568 408.626 308.83 408.626C309.34 408.626 309.571 408.888 309.571 409.641L309.571 410.717C310.575 409.164 311.872 408.38 313.508 408.38C315.809 408.38 317.213 410.071 317.213 412.931L317.213 421.079C317.213 422.109 317.522 422.247 317.522 422.77L317.507 422.785Z" fill="#392FB4"/>
<path d="M382.98 423.231C382.131 423.231 381.822 423.707 381.297 423.707C380.911 423.707 380.556 423.507 380.649 422.892C380.834 421.724 380.973 420.387 381.066 419.034C381.096 418.603 381.359 418.25 381.899 418.25C382.409 418.25 382.579 418.48 382.81 418.988C383.844 421.263 384.755 422.278 386.207 422.278C387.04 422.278 387.596 421.801 387.596 421.017C387.596 420.079 387.117 419.695 385.203 418.649L384.107 418.065C381.652 416.759 380.788 415.39 380.788 413.653C380.788 410.932 383.057 408.396 387.565 408.396C390.498 408.396 392.505 409.595 392.505 411.516C392.505 412.838 391.733 413.622 390.313 413.622C386.948 413.622 388.507 409.979 386.5 409.979C385.728 409.979 385.311 410.409 385.311 411.147C385.311 411.962 385.929 412.577 388.569 413.976L389.665 414.56C392.119 415.882 392.83 417.066 392.83 419.111C392.83 421.647 390.761 423.846 386.407 423.846C384.23 423.846 384.153 423.231 382.964 423.231L382.98 423.231Z" fill="#392FB4"/>
<path d="M379.831 418.172C379.831 421.447 377.377 423.783 373.378 423.783C369.024 423.783 366.184 420.924 366.184 416.251C366.184 411.9 369.225 408.533 373.486 408.533C376.651 408.533 379.137 410.547 379.368 414.252L372.529 416.45C373.054 418.695 374.212 420.34 375.786 420.34C377.469 420.34 377.716 419.141 377.716 418.111C377.716 417.327 378.226 416.942 378.812 416.942C379.461 416.942 379.816 417.388 379.816 418.172L379.831 418.172ZM372.267 413.56C372.267 414.114 372.297 414.636 372.359 415.144L373.841 414.667C373.779 412.038 373.517 409.886 372.992 409.886C372.529 409.886 372.282 411.516 372.282 413.56L372.267 413.56Z" fill="#392FB4"/>
<path d="M319.003 422.785C319.003 422.262 319.296 422.108 319.296 421.093L319.296 412.392C319.296 410.839 318.741 410.763 318.741 410.194C318.741 409.717 319.034 409.579 319.744 409.425L323.388 408.749C323.743 408.687 324.159 408.61 324.422 408.61C324.931 408.61 325.163 408.872 325.163 409.625L325.163 421.078C325.163 422.093 325.456 422.246 325.456 422.769C325.456 423.246 325.101 423.522 324.561 423.522C323.789 423.522 323.002 423.492 322.23 423.492C321.458 423.492 320.67 423.522 319.899 423.522C319.374 423.522 319.019 423.23 319.019 422.769L319.003 422.785Z" fill="#392FB4"/>
<path d="M508.278 426.089L508.278 425.366L508.571 425.366L508.571 425.212L507.83 425.212L507.83 425.366L508.123 425.366L508.123 426.089L508.278 426.089ZM509.729 426.089L509.729 425.212L509.497 425.212L509.235 425.812L508.972 425.212L508.741 425.212L508.741 426.089L508.895 426.089L508.895 425.428L509.142 425.996L509.312 425.996L509.559 425.428L509.559 426.089L509.713 426.089L509.729 426.089Z" fill="#231F20"/>
<rect x="401.524" y="84.0531" width="43.4631" height="54.7305" rx="4.29278" fill="#DBDBDB" stroke="#6F7177" stroke-width="1.35822"/>
<path d="M446.402 98.4903L446.402 99.1314L433.211 99.1314L430.259 102.811L430.259 111.87L446.402 111.87L446.402 112.511L430.259 112.511L430.259 121.57L433.211 125.249L446.402 125.249L446.402 125.89L432.999 125.89L429.744 121.834L429.789 121.779L429.744 121.779L429.744 102.664L429.839 102.664L429.744 102.546L432.999 98.49L446.402 98.49L446.402 98.4903Z" fill="#6F7177"/>
<path d="M417.475 120.89L417.475 121.509L423.456 121.509L423.456 139.08L423.944 139.08L423.944 121.509L429.93 121.509L429.93 120.89L417.475 120.89Z" fill="#6F7177"/>
<path d="M423.567 84.1409L423.567 102.425L417.342 102.425L417.342 103.06L424.076 103.06L424.076 84.1409L423.567 84.1409Z" fill="#6F7177"/>
<path d="M401.392 98.4903L401.392 99.1314L414.302 99.1314L417.192 102.811L417.192 111.87L401.392 111.87L401.392 112.511L417.192 112.511L417.192 121.57L414.302 125.249L401.392 125.249L401.392 125.89L414.51 125.89L417.695 121.834L417.652 121.779L417.695 121.779L417.695 102.664L417.602 102.664L417.695 102.546L414.51 98.49L401.392 98.49L401.392 98.4903Z" fill="#6F7177"/>
</g>
</g>
</g>
</g>
<defs>
<filter id="filter0_d_3173_30400" x="-538.647" y="120.253" width="899.977" height="277.985" filterUnits="userSpaceOnUse" color-interpolation-filters="sRGB">
<feFlood flood-opacity="0" result="BackgroundImageFix"/>
<feColorMatrix in="SourceAlpha" type="matrix" values="0 0 0 0 0 0 0 0 0 0 0 0 0 0 0 0 0 0 127 0" result="hardAlpha"/>
<feOffset dy="6.94962"/>
<feGaussianBlur stdDeviation="24.3237"/>
<feComposite in2="hardAlpha" operator="out"/>
<feColorMatrix type="matrix" values="0 0 0 0 0 0 0 0 0 0 0 0 0 0 0 0 0 0 0.25 0"/>
<feBlend mode="normal" in2="BackgroundImageFix" result="effect1_dropShadow_3173_30400"/>
<feBlend mode="normal" in="SourceGraphic" in2="effect1_dropShadow_3173_30400" result="shape"/>
</filter>
<filter id="filter1_d_3173_30400" x="248.457" y="9.93422" width="309.754" height="462.119" filterUnits="userSpaceOnUse" color-interpolation-filters="sRGB">
<feFlood flood-opacity="0" result="BackgroundImageFix"/>
<feColorMatrix in="SourceAlpha" type="matrix" values="0 0 0 0 0 0 0 0 0 0 0 0 0 0 0 0 0 0 127 0" result="hardAlpha"/>
<feOffset dy="3.34869"/>
<feGaussianBlur stdDeviation="11.7204"/>
<feComposite in2="hardAlpha" operator="out"/>
<feColorMatrix type="matrix" values="0 0 0 0 0 0 0 0 0 0 0 0 0 0 0 0 0 0 0.25 0"/>
<feBlend mode="hard-light" in2="BackgroundImageFix" result="effect1_dropShadow_3173_30400"/>
<feBlend mode="normal" in="SourceGraphic" in2="effect1_dropShadow_3173_30400" result="shape"/>
</filter>
<clipPath id="clip0_3173_30400">
<rect width="570" height="476" fill="white"/>
</clipPath>
<clipPath id="clip1_3173_30400">
<rect x="534.77" y="30.0264" width="415.238" height="262.872" rx="18.1454" transform="rotate(90 534.77 30.0264)" fill="white"/>
</clipPath>
<clipPath id="clip2_3173_30400">
<rect width="264.042" height="456.405" fill="white" transform="translate(271.897 8.31714)"/>
</clipPath>
</defs>
</svg>
