<svg width="129" height="128" viewBox="0 0 129 128" fill="none" xmlns="http://www.w3.org/2000/svg">
<circle cx="43.8858" cy="75.7096" r="31.5" transform="rotate(-18.641 43.8858 75.7096)" fill="#FDC5A6"/>
<circle cx="43.8862" cy="75.7095" r="24.3871" transform="rotate(-18.641 43.8862 75.7095)" stroke="#FC6B4D" stroke-width="4.06452"/>
<path d="M52.0689 80.284C51.429 81.5754 50.2801 82.658 48.6247 83.5391L49.4671 86.159L46.139 87.2321L45.3367 84.731C44.1354 85.0452 42.9486 85.2304 41.7736 85.2793C40.5987 85.3281 39.5868 85.2475 38.7357 85.0299L39.2223 80.3897C40.1601 80.5946 41.1546 80.6728 42.218 80.6367C43.2814 80.6007 44.2601 80.436 45.164 80.1477C45.9316 79.897 46.4612 79.6521 46.7454 79.3908C47.0321 79.1369 47.1205 78.8589 47.0276 78.5592C46.9124 78.2175 46.6141 78.0203 46.1231 77.9873C45.6321 77.9544 44.8587 77.9919 43.8054 78.1073C42.4474 78.251 41.2898 78.3022 40.3426 78.266C39.3955 78.2297 38.4872 77.9652 37.6326 77.4675C36.7779 76.9698 36.1601 76.1192 35.774 74.9256C35.3302 73.5364 35.4469 72.1898 36.1289 70.8759C36.8109 69.5619 38.0392 68.4692 39.8309 67.6L39.0034 65.0247L42.3317 63.9516L43.1415 66.475C45.0885 66.0415 46.8311 65.9832 48.3793 66.3049L48.004 70.8828C46.1163 70.5846 44.4507 70.6749 43.002 71.1387C41.5534 71.6026 40.9605 72.1749 41.1861 72.8683C41.2964 73.1951 41.582 73.3801 42.0631 73.4081C42.5442 73.4361 43.2977 73.3888 44.3385 73.2611C45.6717 73.0927 46.8217 73.0191 47.7912 73.0478C48.7532 73.0791 49.6664 73.3336 50.526 73.8214C51.3855 74.3092 52.0083 75.1499 52.3944 76.3434C52.8156 77.6658 52.7187 78.9726 52.0788 80.2641L52.0689 80.284Z" fill="#FC6B4D"/>
<circle cx="81.1872" cy="48.8389" r="31.5" transform="rotate(25.6153 81.1872 48.8389)" fill="#FDC5A6"/>
<circle cx="81.1881" cy="48.8391" r="24.3871" transform="rotate(25.6153 81.1881 48.8391)" stroke="#FC6B4D" stroke-width="4.06452"/>
<path d="M83.8559 57.8257C82.4963 58.304 80.9179 58.2776 79.1174 57.7534L77.8924 60.2178L74.7599 58.6637L75.9307 56.3125C74.851 55.6992 73.8717 55.0036 72.9961 54.2187C72.1204 53.4337 71.452 52.6698 70.9943 51.92L74.581 48.9361C75.1098 49.7373 75.7674 50.4874 76.5542 51.2037C77.341 51.92 78.1569 52.485 79.0055 52.9093C79.7302 53.2654 80.2805 53.4597 80.6664 53.4708C81.0489 53.489 81.3062 53.3516 81.4488 53.0722C81.6047 52.747 81.5288 52.3976 81.2001 52.0313C80.8714 51.6651 80.2913 51.1522 79.4564 50.4998C78.3835 49.655 77.5186 48.8839 76.8655 48.1969C76.2124 47.5099 75.7465 46.6866 75.4817 45.7338C75.217 44.7809 75.3681 43.7405 75.9245 42.6162C76.5761 41.3115 77.5994 40.4284 79.0049 39.9633C80.4103 39.4982 82.0526 39.5726 83.9425 40.2005L85.147 37.7786L88.2797 39.3327L87.0987 41.7051C88.7957 42.7535 90.0845 43.9278 90.9688 45.2386L87.5053 48.2555C86.3613 46.7246 85.1054 45.6268 83.7441 44.9481C82.3829 44.2694 81.5588 44.2655 81.2366 44.9196C81.0874 45.2306 81.1629 45.5624 81.4879 45.9182C81.8129 46.274 82.3857 46.766 83.2202 47.4008C84.2926 48.2106 85.1677 48.9605 85.8419 49.6576C86.5092 50.3514 86.9856 51.171 87.2608 52.1202C87.536 53.0694 87.3954 54.1062 86.839 55.2305C86.2179 56.4716 85.2364 57.3399 83.8768 57.8183L83.8559 57.8257Z" fill="#FC6B4D"/>
<path d="M79.3973 84.2087C79.3487 84.254 79.2993 84.3124 79.2589 84.3838C78.9563 84.7682 78.7762 85.2718 78.7397 85.7707C78.6998 86.3166 78.8278 86.9358 79.2558 87.4242L85.7738 94.8617C86.1803 95.3256 86.76 95.5983 87.3774 95.5983C87.9947 95.5983 88.5745 95.3256 88.981 94.8617L95.4989 87.4242C96.2953 86.5154 96.2486 85.1057 95.3863 84.2573C95.0162 83.8931 94.5618 83.8234 94.1742 83.81C93.9805 83.8033 93.7678 83.8103 93.5568 83.8174L93.5254 83.8185C93.3168 83.8256 93.0954 83.8332 92.8476 83.8332H89.8528L89.5481 70.5171C89.5439 69.3091 88.6093 68.265 87.3774 68.265C86.1426 68.265 85.2066 69.3139 85.2066 70.5254L85.2066 83.8332H81.9085C80.8086 83.8332 80.2235 83.8901 79.8976 83.9676C79.7521 84.0022 79.5535 84.0629 79.3973 84.2087Z" fill="#392FB4" stroke="#392FB4" stroke-width="1.33333" stroke-linecap="round" stroke-linejoin="round"/>
</svg>
