<svg xmlns="http://www.w3.org/2000/svg" width="214" height="200" viewBox="0 0 214 200" fill="none">
  <ellipse cx="113.992" cy="168.75" rx="74.2122" ry="17.1875" fill="#090084"/>
  <path d="M176.703 51.7659L174.371 68.3539C173.976 71.1689 164.029 72.0942 152.156 70.4256C140.283 68.757 130.977 65.1218 131.372 62.3108L133.704 45.7227L176.703 51.7659Z" fill="#6256EA"/>
  <path d="M186.904 84.826C187.33 81.796 187.39 78.6124 185.972 75.9007C182.88 69.9904 176.571 66.8412 167.133 64.6607C163.065 63.7475 158.581 62.9937 153.867 62.3312C148.916 61.6354 144.459 61.1219 140.469 60.9136C130.796 60.4084 123.864 61.6966 119.264 66.5255C117.154 68.7413 116.333 71.8181 115.907 74.848L108.121 130.248C107.086 137.612 122.027 146.642 141.63 149.397C161.232 152.151 178.062 147.737 179.118 140.226L186.904 84.826Z" fill="#6256EA"/>
  <path d="M183.503 41.668L181.172 58.256C180.776 61.071 168.406 61.6558 153.546 59.5673C138.686 57.4789 126.957 53.5032 127.352 50.6921L129.683 34.1041L183.503 41.668Z" fill="#FF8268"/>
  <path d="M156.404 129.024C152.586 129.112 148.514 128.905 144.324 128.316C124.723 125.561 109.583 119.526 110.297 114.444L114.711 83.0333C113.997 88.1154 129.485 93.2375 149.086 95.9923C153.277 96.5812 157.332 96.9015 161.126 96.9914L156.404 129.024Z" fill="#FF8268"/>
  <path d="M155.699 43.3424C140.837 41.2537 129.109 37.2801 129.505 34.4672C129.9 31.6542 142.269 31.0671 157.13 33.1558C171.992 35.2445 183.72 39.2181 183.324 42.031C182.929 44.844 170.561 45.4311 155.699 43.3424Z" fill="#FF8268"/>
  <path d="M156.905 34.7645C150.106 33.809 143.901 33.4038 139.369 33.517C137.099 33.5738 135.279 33.76 134.022 34.0603C133.391 34.2112 132.939 34.3827 132.652 34.5561C132.358 34.7328 132.332 34.8495 132.329 34.8638C132.328 34.876 132.318 34.9959 132.554 35.2494C132.783 35.4954 133.17 35.7847 133.735 36.1037C134.86 36.7387 136.559 37.4196 138.725 38.0999C143.05 39.4577 149.126 40.7786 155.925 41.7341C162.723 42.6895 168.928 43.0947 173.459 42.9814C175.73 42.9247 177.551 42.7386 178.808 42.4383C179.439 42.2873 179.89 42.1159 180.178 41.9425C180.475 41.7638 180.498 41.6458 180.499 41.6337C180.501 41.6193 180.509 41.4999 180.275 41.2491C180.047 41.0032 179.66 40.714 179.095 40.3949C177.97 39.7598 176.27 39.079 174.103 38.3985C169.779 37.0408 163.703 35.72 156.905 34.7645Z" stroke="#DB66C3" stroke-width="1.24978"/>
  <path d="M42.195 27.7345L135.006 120.546C140.681 126.221 140.681 135.421 135.007 141.096L118.287 157.815C112.612 163.49 103.412 163.49 97.7376 157.815L4.92601 65.0034C-0.748579 59.3289 -0.748593 50.1285 4.926 44.4539L21.6455 27.7345C27.32 22.0599 36.5204 22.0599 42.195 27.7345Z" fill="#DB66C3"/>
  <path d="M66.45 51.99L110.751 96.2913L73.4823 133.56L29.181 89.259L66.45 51.99Z" fill="#6256EA"/>
  <path d="M77.6084 77.0403L85.7011 85.133C86.4728 85.9047 86.4728 87.1558 85.7011 87.9275L65.1191 108.51C64.3474 109.281 63.0962 109.281 62.3245 108.51L54.2318 100.417C53.4601 99.6452 53.4601 98.394 54.2318 97.6223L74.8139 77.0403C75.5856 76.2686 76.8367 76.2686 77.6084 77.0403Z" fill="#FDC5A6"/>
  <path d="M54.2316 85.1331L62.3243 77.0404C63.096 76.2687 64.3471 76.2686 65.1188 77.0403L85.7009 97.6224C86.4726 98.3941 86.4726 99.6453 85.7009 100.417L77.6082 108.51C76.8365 109.281 75.5853 109.281 74.8136 108.51L54.2316 87.9276C53.4599 87.1559 53.4599 85.9048 54.2316 85.1331Z" fill="#FDC5A6"/>
  <path d="M119.912 124.953C118.166 124.953 116.751 123.537 116.751 121.791C116.751 120.045 118.166 118.63 119.912 118.63C121.658 118.63 123.074 120.045 123.074 121.791C123.074 123.537 121.658 124.953 119.912 124.953Z" fill="#6256EA"/>
  <path d="M109.878 134.987C108.132 134.987 106.716 133.572 106.716 131.826C106.716 130.08 108.132 128.664 109.878 128.664C111.624 128.664 113.039 130.08 113.039 131.826C113.039 133.572 111.624 134.987 109.878 134.987Z" fill="#6256EA"/>
  <path d="M99.8404 145.025C98.0942 145.025 96.6787 143.609 96.6787 141.863C96.6787 140.117 98.0942 138.701 99.8404 138.701C101.587 138.701 103.002 140.117 103.002 141.863C103.002 143.609 101.587 145.025 99.8404 145.025Z" fill="#6256EA"/>
  <path d="M109.878 134.987C108.132 134.987 106.716 133.572 106.716 131.826C106.716 130.08 108.132 128.664 109.878 128.664C111.624 128.664 113.039 130.08 113.039 131.826C113.039 133.572 111.624 134.987 109.878 134.987Z" fill="#6256EA"/>
  <path d="M124.565 140.371C122.819 140.371 121.404 138.956 121.404 137.21C121.404 135.464 122.819 134.048 124.565 134.048C126.311 134.048 127.727 135.464 127.727 137.21C127.727 138.956 126.311 140.371 124.565 140.371Z" fill="#6256EA"/>
  <path d="M114.531 150.406C112.785 150.406 111.369 148.991 111.369 147.244C111.369 145.498 112.785 144.083 114.531 144.083C116.277 144.083 117.692 145.498 117.692 147.244C117.692 148.991 116.277 150.406 114.531 150.406Z" fill="#6256EA"/>
  <path d="M104.493 120.3C102.747 120.3 101.332 118.884 101.332 117.138C101.332 115.392 102.747 113.977 104.493 113.977C106.24 113.977 107.655 115.392 107.655 117.138C107.655 118.884 106.24 120.3 104.493 120.3Z" fill="#6256EA"/>
  <path d="M94.4561 130.334C92.71 130.334 91.2945 128.919 91.2945 127.173C91.2945 125.426 92.71 124.011 94.4561 124.011C96.2023 124.011 97.6178 125.426 97.6178 127.173C97.6178 128.919 96.2023 130.334 94.4561 130.334Z" fill="#6256EA"/>
  <path d="M40.9515 45.9928C39.2054 45.9928 37.7898 44.5772 37.7898 42.8311C37.7898 41.085 39.2054 39.6694 40.9515 39.6694C42.6976 39.6694 44.1132 41.085 44.1132 42.8311C44.1132 44.5772 42.6976 45.9928 40.9515 45.9928Z" fill="#6256EA"/>
  <path d="M30.9168 56.0272C29.1707 56.0272 27.7552 54.6117 27.7552 52.8655C27.7552 51.1194 29.1707 49.7039 30.9168 49.7039C32.6629 49.7039 34.0785 51.1194 34.0785 52.8655C34.0785 54.6117 32.6629 56.0272 30.9168 56.0272Z" fill="#6256EA"/>
  <path d="M20.8799 66.0643C19.1337 66.0643 17.7182 64.6488 17.7182 62.9026C17.7182 61.1565 19.1337 59.741 20.8799 59.741C22.626 59.741 24.0415 61.1565 24.0415 62.9026C24.0415 64.6488 22.626 66.0643 20.8799 66.0643Z" fill="#6256EA"/>
  <path d="M30.9168 56.0272C29.1707 56.0272 27.7552 54.6117 27.7552 52.8655C27.7552 51.1194 29.1707 49.7039 30.9168 49.7039C32.6629 49.7039 34.0785 51.1194 34.0785 52.8655C34.0785 54.6117 32.6629 56.0272 30.9168 56.0272Z" fill="#6256EA"/>
  <path d="M45.6045 61.411C43.8584 61.411 42.4429 59.9955 42.4429 58.2493C42.4429 56.5032 43.8584 55.0876 45.6045 55.0876C47.3507 55.0876 48.7662 56.5032 48.7662 58.2493C48.7662 59.9955 47.3507 61.411 45.6045 61.411Z" fill="#6256EA"/>
  <path d="M35.5704 71.4457C33.8243 71.4457 32.4087 70.0301 32.4087 68.284C32.4087 66.5378 33.8243 65.1223 35.5704 65.1223C37.3165 65.1223 38.7321 66.5378 38.7321 68.284C38.7321 70.0301 37.3165 71.4457 35.5704 71.4457Z" fill="#6256EA"/>
  <path d="M25.5333 41.3395C23.7871 41.3395 22.3716 39.9239 22.3716 38.1778C22.3716 36.4316 23.7871 35.0161 25.5333 35.0161C27.2794 35.0161 28.6949 36.4316 28.6949 38.1778C28.6949 39.9239 27.2794 41.3395 25.5333 41.3395Z" fill="#6256EA"/>
  <path d="M15.496 51.3739C13.7499 51.3739 12.3343 49.9583 12.3343 48.2122C12.3343 46.4661 13.7499 45.0505 15.496 45.0505C17.2422 45.0505 18.6577 46.4661 18.6577 48.2122C18.6577 49.9583 17.2422 51.3739 15.496 51.3739Z" fill="#6256EA"/>
</svg>
