<svg width="129" height="128" viewBox="0 0 129 128" fill="none" xmlns="http://www.w3.org/2000/svg">
<ellipse cx="64.5693" cy="108" rx="47.5" ry="11" fill="#D8DDE9"/>
<path fill-rule="evenodd" clip-rule="evenodd" d="M62.957 27.4389C63.9705 26.8758 65.2028 26.8758 66.2163 27.4389L96.417 44.2171C97.4823 44.8089 98.143 45.9317 98.143 47.1504C98.143 69.2492 86.0738 89.5834 66.6749 100.168L66.1942 100.431C65.1898 100.979 63.9753 100.977 62.9722 100.427L62.623 100.235C43.2353 89.5968 31.141 69.2816 31.0303 47.1672C31.0242 45.9425 31.6857 44.8118 32.7563 44.2171L62.957 27.4389Z" fill="#392FB4"/>
<path fill-rule="evenodd" clip-rule="evenodd" d="M56.3926 96.6423C58.2321 97.9369 60.1544 99.1372 62.1543 100.235L62.5035 100.426C63.5066 100.977 64.7211 100.978 65.7255 100.43L66.2061 100.168C85.6051 89.5829 97.6743 69.2486 97.6743 47.1499C97.6743 45.9312 97.0136 44.8084 95.9483 44.2165L94.3848 43.3479C94.8557 43.9343 95.1245 44.6725 95.1245 45.4497C95.1245 67.5484 83.0553 87.8827 63.6563 98.4675L63.1757 98.7298C62.1713 99.278 60.9568 99.2765 59.9537 98.7261L59.6044 98.5344C58.5103 97.934 57.4394 97.3028 56.3926 96.6423Z" fill="#332AA2"/>
<path d="M72.8327 82.8433C75.9648 82.8433 78.5038 80.1838 78.5038 76.9031C78.5038 74.3764 76.9977 71.7013 74.8745 70.6052C74.1536 70.1994 72.3775 68.5585 71.0401 65.2413C70.0967 62.3782 67.5013 60.3216 64.4473 60.3216C61.3933 60.3216 58.7978 62.3782 57.8544 65.2413C56.517 68.5585 54.7409 70.1994 54.0201 70.6052C51.8969 71.7013 50.3907 74.3764 50.3907 76.9031C50.3907 80.1838 52.9298 82.8433 56.0618 82.8433C57.3443 82.9441 60.4488 82.7235 62.6072 81.0339C62.9036 80.8018 63.1928 80.6236 63.4729 80.4909C64.089 80.1988 64.8056 80.1988 65.4217 80.4909C65.7017 80.6236 65.991 80.8018 66.2874 81.0339C68.4457 82.7235 71.5503 82.9441 72.8327 82.8433Z" fill="#FBF2EB"/>
<path d="M54.3268 61.0806C55.1426 64.282 54.031 67.3729 51.844 67.9842C49.6571 68.5956 47.223 66.4959 46.4073 63.2944C45.5916 60.0929 46.7031 57.0021 48.8901 56.3907C51.077 55.7794 53.5111 57.8791 54.3268 61.0806Z" fill="#FBF2EB"/>
<path d="M74.566 61.0806C73.7503 64.282 74.8619 67.3729 77.0488 67.9842C79.2357 68.5956 81.6698 66.4959 82.4855 63.2944C83.3013 60.0929 82.1897 57.0021 80.0028 56.3907C77.8158 55.7794 75.3817 57.8791 74.566 61.0806Z" fill="#FBF2EB"/>
<path d="M66.3754 50.8446C65.4391 54.5192 66.6652 58.053 69.114 58.7376C71.5628 59.4221 74.3069 56.9982 75.2432 53.3236C76.1795 49.649 74.9534 46.1152 72.5046 45.4306C70.0558 44.7461 67.3117 47.17 66.3754 50.8446Z" fill="#FBF2EB"/>
<path d="M62.5144 50.8446C63.4507 54.5192 62.2245 58.053 59.7757 58.7376C57.327 59.4221 54.5828 56.9982 53.6466 53.3236C52.7103 49.649 53.9364 46.1152 56.3852 45.4306C58.834 44.7461 61.5781 47.17 62.5144 50.8446Z" fill="#FBF2EB"/>
</svg>
